%TF.GenerationSoftware,KiCad,Pcbnew,5.1.9-73d0e3b20d~88~ubuntu20.10.1*%
%TF.CreationDate,2021-03-12T20:59:03+01:00*%
%TF.ProjectId,kosmo-sample-and-hold,6b6f736d-6f2d-4736-916d-706c652d616e,v1.0.0*%
%TF.SameCoordinates,Original*%
%TF.FileFunction,Legend,Bot*%
%TF.FilePolarity,Positive*%
%FSLAX46Y46*%
G04 Gerber Fmt 4.6, Leading zero omitted, Abs format (unit mm)*
G04 Created by KiCad (PCBNEW 5.1.9-73d0e3b20d~88~ubuntu20.10.1) date 2021-03-12 20:59:03*
%MOMM*%
%LPD*%
G01*
G04 APERTURE LIST*
%ADD10C,0.150000*%
%ADD11C,0.200000*%
%ADD12C,0.010000*%
%ADD13C,0.120000*%
%ADD14C,0.100000*%
G04 APERTURE END LIST*
D10*
X121506899Y-77323865D02*
X120744995Y-77323865D01*
X119744995Y-77704817D02*
X120316423Y-77704817D01*
X120030709Y-77704817D02*
X120030709Y-76704817D01*
X120125947Y-76847675D01*
X120221185Y-76942913D01*
X120316423Y-76990532D01*
X119364042Y-76800056D02*
X119316423Y-76752437D01*
X119221185Y-76704817D01*
X118983090Y-76704817D01*
X118887852Y-76752437D01*
X118840233Y-76800056D01*
X118792614Y-76895294D01*
X118792614Y-76990532D01*
X118840233Y-77133389D01*
X119411661Y-77704817D01*
X118792614Y-77704817D01*
X118506899Y-76704817D02*
X118173566Y-77704817D01*
X117840233Y-76704817D01*
D11*
X114219047Y-225352380D02*
X114219047Y-226066666D01*
X114266666Y-226209523D01*
X114361904Y-226304761D01*
X114504761Y-226352380D01*
X114600000Y-226352380D01*
X113266666Y-226352380D02*
X113742857Y-226352380D01*
X113742857Y-225352380D01*
X112361904Y-226257142D02*
X112409523Y-226304761D01*
X112552380Y-226352380D01*
X112647619Y-226352380D01*
X112790476Y-226304761D01*
X112885714Y-226209523D01*
X112933333Y-226114285D01*
X112980952Y-225923809D01*
X112980952Y-225780952D01*
X112933333Y-225590476D01*
X112885714Y-225495238D01*
X112790476Y-225400000D01*
X112647619Y-225352380D01*
X112552380Y-225352380D01*
X112409523Y-225400000D01*
X112361904Y-225447619D01*
X111647619Y-225352380D02*
X111647619Y-226066666D01*
X111695238Y-226209523D01*
X111790476Y-226304761D01*
X111933333Y-226352380D01*
X112028571Y-226352380D01*
X110695238Y-226352380D02*
X111171428Y-226352380D01*
X111171428Y-225352380D01*
X109790476Y-226257142D02*
X109838095Y-226304761D01*
X109980952Y-226352380D01*
X110076190Y-226352380D01*
X110219047Y-226304761D01*
X110314285Y-226209523D01*
X110361904Y-226114285D01*
X110409523Y-225923809D01*
X110409523Y-225780952D01*
X110361904Y-225590476D01*
X110314285Y-225495238D01*
X110219047Y-225400000D01*
X110076190Y-225352380D01*
X109980952Y-225352380D01*
X109838095Y-225400000D01*
X109790476Y-225447619D01*
X109076190Y-225352380D02*
X109076190Y-226066666D01*
X109123809Y-226209523D01*
X109219047Y-226304761D01*
X109361904Y-226352380D01*
X109457142Y-226352380D01*
X108123809Y-226352380D02*
X108600000Y-226352380D01*
X108600000Y-225352380D01*
X107219047Y-226257142D02*
X107266666Y-226304761D01*
X107409523Y-226352380D01*
X107504761Y-226352380D01*
X107647619Y-226304761D01*
X107742857Y-226209523D01*
X107790476Y-226114285D01*
X107838095Y-225923809D01*
X107838095Y-225780952D01*
X107790476Y-225590476D01*
X107742857Y-225495238D01*
X107647619Y-225400000D01*
X107504761Y-225352380D01*
X107409523Y-225352380D01*
X107266666Y-225400000D01*
X107219047Y-225447619D01*
X106504761Y-225352380D02*
X106504761Y-226066666D01*
X106552380Y-226209523D01*
X106647619Y-226304761D01*
X106790476Y-226352380D01*
X106885714Y-226352380D01*
X105552380Y-226352380D02*
X106028571Y-226352380D01*
X106028571Y-225352380D01*
X104647619Y-226257142D02*
X104695238Y-226304761D01*
X104838095Y-226352380D01*
X104933333Y-226352380D01*
X105076190Y-226304761D01*
X105171428Y-226209523D01*
X105219047Y-226114285D01*
X105266666Y-225923809D01*
X105266666Y-225780952D01*
X105219047Y-225590476D01*
X105171428Y-225495238D01*
X105076190Y-225400000D01*
X104933333Y-225352380D01*
X104838095Y-225352380D01*
X104695238Y-225400000D01*
X104647619Y-225447619D01*
D10*
X124014285Y-48102380D02*
X124014285Y-47102380D01*
X123633333Y-47102380D01*
X123538095Y-47150000D01*
X123490476Y-47197619D01*
X123442857Y-47292857D01*
X123442857Y-47435714D01*
X123490476Y-47530952D01*
X123538095Y-47578571D01*
X123633333Y-47626190D01*
X124014285Y-47626190D01*
X122871428Y-48102380D02*
X122966666Y-48054761D01*
X123014285Y-48007142D01*
X123061904Y-47911904D01*
X123061904Y-47626190D01*
X123014285Y-47530952D01*
X122966666Y-47483333D01*
X122871428Y-47435714D01*
X122728571Y-47435714D01*
X122633333Y-47483333D01*
X122585714Y-47530952D01*
X122538095Y-47626190D01*
X122538095Y-47911904D01*
X122585714Y-48007142D01*
X122633333Y-48054761D01*
X122728571Y-48102380D01*
X122871428Y-48102380D01*
X121966666Y-48102380D02*
X122061904Y-48054761D01*
X122109523Y-47959523D01*
X122109523Y-47102380D01*
X121680952Y-47435714D02*
X121442857Y-48102380D01*
X121204761Y-47435714D02*
X121442857Y-48102380D01*
X121538095Y-48340476D01*
X121585714Y-48388095D01*
X121680952Y-48435714D01*
X120823809Y-48102380D02*
X120823809Y-47102380D01*
X120728571Y-47721428D02*
X120442857Y-48102380D01*
X120442857Y-47435714D02*
X120823809Y-47816666D01*
X120014285Y-48102380D02*
X120014285Y-47435714D01*
X120014285Y-47102380D02*
X120061904Y-47150000D01*
X120014285Y-47197619D01*
X119966666Y-47150000D01*
X120014285Y-47102380D01*
X120014285Y-47197619D01*
X119680952Y-47435714D02*
X119300000Y-47435714D01*
X119538095Y-47102380D02*
X119538095Y-47959523D01*
X119490476Y-48054761D01*
X119395238Y-48102380D01*
X119300000Y-48102380D01*
X118252380Y-48054761D02*
X118109523Y-48102380D01*
X117871428Y-48102380D01*
X117776190Y-48054761D01*
X117728571Y-48007142D01*
X117680952Y-47911904D01*
X117680952Y-47816666D01*
X117728571Y-47721428D01*
X117776190Y-47673809D01*
X117871428Y-47626190D01*
X118061904Y-47578571D01*
X118157142Y-47530952D01*
X118204761Y-47483333D01*
X118252380Y-47388095D01*
X118252380Y-47292857D01*
X118204761Y-47197619D01*
X118157142Y-47150000D01*
X118061904Y-47102380D01*
X117823809Y-47102380D01*
X117680952Y-47150000D01*
X116823809Y-48102380D02*
X116823809Y-47578571D01*
X116871428Y-47483333D01*
X116966666Y-47435714D01*
X117157142Y-47435714D01*
X117252380Y-47483333D01*
X116823809Y-48054761D02*
X116919047Y-48102380D01*
X117157142Y-48102380D01*
X117252380Y-48054761D01*
X117300000Y-47959523D01*
X117300000Y-47864285D01*
X117252380Y-47769047D01*
X117157142Y-47721428D01*
X116919047Y-47721428D01*
X116823809Y-47673809D01*
X116347619Y-48102380D02*
X116347619Y-47435714D01*
X116347619Y-47530952D02*
X116300000Y-47483333D01*
X116204761Y-47435714D01*
X116061904Y-47435714D01*
X115966666Y-47483333D01*
X115919047Y-47578571D01*
X115919047Y-48102380D01*
X115919047Y-47578571D02*
X115871428Y-47483333D01*
X115776190Y-47435714D01*
X115633333Y-47435714D01*
X115538095Y-47483333D01*
X115490476Y-47578571D01*
X115490476Y-48102380D01*
X115014285Y-47435714D02*
X115014285Y-48435714D01*
X115014285Y-47483333D02*
X114919047Y-47435714D01*
X114728571Y-47435714D01*
X114633333Y-47483333D01*
X114585714Y-47530952D01*
X114538095Y-47626190D01*
X114538095Y-47911904D01*
X114585714Y-48007142D01*
X114633333Y-48054761D01*
X114728571Y-48102380D01*
X114919047Y-48102380D01*
X115014285Y-48054761D01*
X113966666Y-48102380D02*
X114061904Y-48054761D01*
X114109523Y-47959523D01*
X114109523Y-47102380D01*
X113204761Y-48054761D02*
X113300000Y-48102380D01*
X113490476Y-48102380D01*
X113585714Y-48054761D01*
X113633333Y-47959523D01*
X113633333Y-47578571D01*
X113585714Y-47483333D01*
X113490476Y-47435714D01*
X113300000Y-47435714D01*
X113204761Y-47483333D01*
X113157142Y-47578571D01*
X113157142Y-47673809D01*
X113633333Y-47769047D01*
X111919047Y-48102380D02*
X111966666Y-48102380D01*
X112061904Y-48054761D01*
X112204761Y-47911904D01*
X112442857Y-47626190D01*
X112538095Y-47483333D01*
X112585714Y-47340476D01*
X112585714Y-47245238D01*
X112538095Y-47150000D01*
X112442857Y-47102380D01*
X112395238Y-47102380D01*
X112300000Y-47150000D01*
X112252380Y-47245238D01*
X112252380Y-47292857D01*
X112300000Y-47388095D01*
X112347619Y-47435714D01*
X112633333Y-47626190D01*
X112680952Y-47673809D01*
X112728571Y-47769047D01*
X112728571Y-47911904D01*
X112680952Y-48007142D01*
X112633333Y-48054761D01*
X112538095Y-48102380D01*
X112395238Y-48102380D01*
X112300000Y-48054761D01*
X112252380Y-48007142D01*
X112109523Y-47816666D01*
X112061904Y-47673809D01*
X112061904Y-47578571D01*
X111490476Y-48102380D02*
X111490476Y-47102380D01*
X111490476Y-47578571D02*
X110919047Y-47578571D01*
X110919047Y-48102380D02*
X110919047Y-47102380D01*
X110300000Y-48102380D02*
X110395238Y-48054761D01*
X110442857Y-48007142D01*
X110490476Y-47911904D01*
X110490476Y-47626190D01*
X110442857Y-47530952D01*
X110395238Y-47483333D01*
X110300000Y-47435714D01*
X110157142Y-47435714D01*
X110061904Y-47483333D01*
X110014285Y-47530952D01*
X109966666Y-47626190D01*
X109966666Y-47911904D01*
X110014285Y-48007142D01*
X110061904Y-48054761D01*
X110157142Y-48102380D01*
X110300000Y-48102380D01*
X109395238Y-48102380D02*
X109490476Y-48054761D01*
X109538095Y-47959523D01*
X109538095Y-47102380D01*
X108585714Y-48102380D02*
X108585714Y-47102380D01*
X108585714Y-48054761D02*
X108680952Y-48102380D01*
X108871428Y-48102380D01*
X108966666Y-48054761D01*
X109014285Y-48007142D01*
X109061904Y-47911904D01*
X109061904Y-47626190D01*
X109014285Y-47530952D01*
X108966666Y-47483333D01*
X108871428Y-47435714D01*
X108680952Y-47435714D01*
X108585714Y-47483333D01*
X106633333Y-47054761D02*
X107490476Y-48340476D01*
X105538095Y-48102380D02*
X105538095Y-47102380D01*
X104966666Y-48102380D01*
X104966666Y-47102380D01*
X104347619Y-48102380D02*
X104442857Y-48054761D01*
X104490476Y-48007142D01*
X104538095Y-47911904D01*
X104538095Y-47626190D01*
X104490476Y-47530952D01*
X104442857Y-47483333D01*
X104347619Y-47435714D01*
X104204761Y-47435714D01*
X104109523Y-47483333D01*
X104061904Y-47530952D01*
X104014285Y-47626190D01*
X104014285Y-47911904D01*
X104061904Y-48007142D01*
X104109523Y-48054761D01*
X104204761Y-48102380D01*
X104347619Y-48102380D01*
X103585714Y-48102380D02*
X103585714Y-47435714D01*
X103585714Y-47102380D02*
X103633333Y-47150000D01*
X103585714Y-47197619D01*
X103538095Y-47150000D01*
X103585714Y-47102380D01*
X103585714Y-47197619D01*
X103157142Y-48054761D02*
X103061904Y-48102380D01*
X102871428Y-48102380D01*
X102776190Y-48054761D01*
X102728571Y-47959523D01*
X102728571Y-47911904D01*
X102776190Y-47816666D01*
X102871428Y-47769047D01*
X103014285Y-47769047D01*
X103109523Y-47721428D01*
X103157142Y-47626190D01*
X103157142Y-47578571D01*
X103109523Y-47483333D01*
X103014285Y-47435714D01*
X102871428Y-47435714D01*
X102776190Y-47483333D01*
X101919047Y-48054761D02*
X102014285Y-48102380D01*
X102204761Y-48102380D01*
X102300000Y-48054761D01*
X102347619Y-47959523D01*
X102347619Y-47578571D01*
X102300000Y-47483333D01*
X102204761Y-47435714D01*
X102014285Y-47435714D01*
X101919047Y-47483333D01*
X101871428Y-47578571D01*
X101871428Y-47673809D01*
X102347619Y-47769047D01*
X100776190Y-47435714D02*
X100538095Y-48102380D01*
X100300000Y-47435714D01*
X99395238Y-48102380D02*
X99966666Y-48102380D01*
X99680952Y-48102380D02*
X99680952Y-47102380D01*
X99776190Y-47245238D01*
X99871428Y-47340476D01*
X99966666Y-47388095D01*
X98966666Y-48007142D02*
X98919047Y-48054761D01*
X98966666Y-48102380D01*
X99014285Y-48054761D01*
X98966666Y-48007142D01*
X98966666Y-48102380D01*
X98300000Y-47102380D02*
X98204761Y-47102380D01*
X98109523Y-47150000D01*
X98061904Y-47197619D01*
X98014285Y-47292857D01*
X97966666Y-47483333D01*
X97966666Y-47721428D01*
X98014285Y-47911904D01*
X98061904Y-48007142D01*
X98109523Y-48054761D01*
X98204761Y-48102380D01*
X98300000Y-48102380D01*
X98395238Y-48054761D01*
X98442857Y-48007142D01*
X98490476Y-47911904D01*
X98538095Y-47721428D01*
X98538095Y-47483333D01*
X98490476Y-47292857D01*
X98442857Y-47197619D01*
X98395238Y-47150000D01*
X98300000Y-47102380D01*
X97538095Y-48007142D02*
X97490476Y-48054761D01*
X97538095Y-48102380D01*
X97585714Y-48054761D01*
X97538095Y-48007142D01*
X97538095Y-48102380D01*
X96871428Y-47102380D02*
X96776190Y-47102380D01*
X96680952Y-47150000D01*
X96633333Y-47197619D01*
X96585714Y-47292857D01*
X96538095Y-47483333D01*
X96538095Y-47721428D01*
X96585714Y-47911904D01*
X96633333Y-48007142D01*
X96680952Y-48054761D01*
X96776190Y-48102380D01*
X96871428Y-48102380D01*
X96966666Y-48054761D01*
X97014285Y-48007142D01*
X97061904Y-47911904D01*
X97109523Y-47721428D01*
X97109523Y-47483333D01*
X97061904Y-47292857D01*
X97014285Y-47197619D01*
X96966666Y-47150000D01*
X96871428Y-47102380D01*
X116561904Y-48752380D02*
X116561904Y-49466666D01*
X116609523Y-49609523D01*
X116704761Y-49704761D01*
X116847619Y-49752380D01*
X116942857Y-49752380D01*
X115657142Y-49752380D02*
X115657142Y-49228571D01*
X115704761Y-49133333D01*
X115800000Y-49085714D01*
X115990476Y-49085714D01*
X116085714Y-49133333D01*
X115657142Y-49704761D02*
X115752380Y-49752380D01*
X115990476Y-49752380D01*
X116085714Y-49704761D01*
X116133333Y-49609523D01*
X116133333Y-49514285D01*
X116085714Y-49419047D01*
X115990476Y-49371428D01*
X115752380Y-49371428D01*
X115657142Y-49323809D01*
X115180952Y-49085714D02*
X115180952Y-49752380D01*
X115180952Y-49180952D02*
X115133333Y-49133333D01*
X115038095Y-49085714D01*
X114895238Y-49085714D01*
X114800000Y-49133333D01*
X114752380Y-49228571D01*
X114752380Y-49752380D01*
X113514285Y-49752380D02*
X113514285Y-48752380D01*
X112942857Y-49752380D02*
X113371428Y-49180952D01*
X112942857Y-48752380D02*
X113514285Y-49323809D01*
X112514285Y-49085714D02*
X112514285Y-49752380D01*
X112514285Y-49180952D02*
X112466666Y-49133333D01*
X112371428Y-49085714D01*
X112228571Y-49085714D01*
X112133333Y-49133333D01*
X112085714Y-49228571D01*
X112085714Y-49752380D01*
X111609523Y-49752380D02*
X111609523Y-49085714D01*
X111609523Y-48752380D02*
X111657142Y-48800000D01*
X111609523Y-48847619D01*
X111561904Y-48800000D01*
X111609523Y-48752380D01*
X111609523Y-48847619D01*
X111133333Y-49085714D02*
X111133333Y-50085714D01*
X111133333Y-49133333D02*
X111038095Y-49085714D01*
X110847619Y-49085714D01*
X110752380Y-49133333D01*
X110704761Y-49180952D01*
X110657142Y-49276190D01*
X110657142Y-49561904D01*
X110704761Y-49657142D01*
X110752380Y-49704761D01*
X110847619Y-49752380D01*
X111038095Y-49752380D01*
X111133333Y-49704761D01*
X110228571Y-49085714D02*
X110228571Y-50085714D01*
X110228571Y-49133333D02*
X110133333Y-49085714D01*
X109942857Y-49085714D01*
X109847619Y-49133333D01*
X109800000Y-49180952D01*
X109752380Y-49276190D01*
X109752380Y-49561904D01*
X109800000Y-49657142D01*
X109847619Y-49704761D01*
X109942857Y-49752380D01*
X110133333Y-49752380D01*
X110228571Y-49704761D01*
X108942857Y-49704761D02*
X109038095Y-49752380D01*
X109228571Y-49752380D01*
X109323809Y-49704761D01*
X109371428Y-49609523D01*
X109371428Y-49228571D01*
X109323809Y-49133333D01*
X109228571Y-49085714D01*
X109038095Y-49085714D01*
X108942857Y-49133333D01*
X108895238Y-49228571D01*
X108895238Y-49323809D01*
X109371428Y-49419047D01*
X108466666Y-49752380D02*
X108466666Y-49085714D01*
X108466666Y-49276190D02*
X108419047Y-49180952D01*
X108371428Y-49133333D01*
X108276190Y-49085714D01*
X108180952Y-49085714D01*
X107133333Y-48847619D02*
X107085714Y-48800000D01*
X106990476Y-48752380D01*
X106752380Y-48752380D01*
X106657142Y-48800000D01*
X106609523Y-48847619D01*
X106561904Y-48942857D01*
X106561904Y-49038095D01*
X106609523Y-49180952D01*
X107180952Y-49752380D01*
X106561904Y-49752380D01*
X105942857Y-48752380D02*
X105847619Y-48752380D01*
X105752380Y-48800000D01*
X105704761Y-48847619D01*
X105657142Y-48942857D01*
X105609523Y-49133333D01*
X105609523Y-49371428D01*
X105657142Y-49561904D01*
X105704761Y-49657142D01*
X105752380Y-49704761D01*
X105847619Y-49752380D01*
X105942857Y-49752380D01*
X106038095Y-49704761D01*
X106085714Y-49657142D01*
X106133333Y-49561904D01*
X106180952Y-49371428D01*
X106180952Y-49133333D01*
X106133333Y-48942857D01*
X106085714Y-48847619D01*
X106038095Y-48800000D01*
X105942857Y-48752380D01*
X105228571Y-48847619D02*
X105180952Y-48800000D01*
X105085714Y-48752380D01*
X104847619Y-48752380D01*
X104752380Y-48800000D01*
X104704761Y-48847619D01*
X104657142Y-48942857D01*
X104657142Y-49038095D01*
X104704761Y-49180952D01*
X105276190Y-49752380D01*
X104657142Y-49752380D01*
X103704761Y-49752380D02*
X104276190Y-49752380D01*
X103990476Y-49752380D02*
X103990476Y-48752380D01*
X104085714Y-48895238D01*
X104180952Y-48990476D01*
X104276190Y-49038095D01*
X116752380Y-50735714D02*
X116752380Y-51545238D01*
X116800000Y-51640476D01*
X116847619Y-51688095D01*
X116942857Y-51735714D01*
X117085714Y-51735714D01*
X117180952Y-51688095D01*
X116752380Y-51354761D02*
X116847619Y-51402380D01*
X117038095Y-51402380D01*
X117133333Y-51354761D01*
X117180952Y-51307142D01*
X117228571Y-51211904D01*
X117228571Y-50926190D01*
X117180952Y-50830952D01*
X117133333Y-50783333D01*
X117038095Y-50735714D01*
X116847619Y-50735714D01*
X116752380Y-50783333D01*
X116276190Y-51402380D02*
X116276190Y-50735714D01*
X116276190Y-50402380D02*
X116323809Y-50450000D01*
X116276190Y-50497619D01*
X116228571Y-50450000D01*
X116276190Y-50402380D01*
X116276190Y-50497619D01*
X115942857Y-50735714D02*
X115561904Y-50735714D01*
X115800000Y-50402380D02*
X115800000Y-51259523D01*
X115752380Y-51354761D01*
X115657142Y-51402380D01*
X115561904Y-51402380D01*
X115228571Y-51402380D02*
X115228571Y-50402380D01*
X114800000Y-51402380D02*
X114800000Y-50878571D01*
X114847619Y-50783333D01*
X114942857Y-50735714D01*
X115085714Y-50735714D01*
X115180952Y-50783333D01*
X115228571Y-50830952D01*
X113895238Y-50735714D02*
X113895238Y-51402380D01*
X114323809Y-50735714D02*
X114323809Y-51259523D01*
X114276190Y-51354761D01*
X114180952Y-51402380D01*
X114038095Y-51402380D01*
X113942857Y-51354761D01*
X113895238Y-51307142D01*
X113419047Y-51402380D02*
X113419047Y-50402380D01*
X113419047Y-50783333D02*
X113323809Y-50735714D01*
X113133333Y-50735714D01*
X113038095Y-50783333D01*
X112990476Y-50830952D01*
X112942857Y-50926190D01*
X112942857Y-51211904D01*
X112990476Y-51307142D01*
X113038095Y-51354761D01*
X113133333Y-51402380D01*
X113323809Y-51402380D01*
X113419047Y-51354761D01*
X112514285Y-51307142D02*
X112466666Y-51354761D01*
X112514285Y-51402380D01*
X112561904Y-51354761D01*
X112514285Y-51307142D01*
X112514285Y-51402380D01*
X111609523Y-51354761D02*
X111704761Y-51402380D01*
X111895238Y-51402380D01*
X111990476Y-51354761D01*
X112038095Y-51307142D01*
X112085714Y-51211904D01*
X112085714Y-50926190D01*
X112038095Y-50830952D01*
X111990476Y-50783333D01*
X111895238Y-50735714D01*
X111704761Y-50735714D01*
X111609523Y-50783333D01*
X111038095Y-51402380D02*
X111133333Y-51354761D01*
X111180952Y-51307142D01*
X111228571Y-51211904D01*
X111228571Y-50926190D01*
X111180952Y-50830952D01*
X111133333Y-50783333D01*
X111038095Y-50735714D01*
X110895238Y-50735714D01*
X110800000Y-50783333D01*
X110752380Y-50830952D01*
X110704761Y-50926190D01*
X110704761Y-51211904D01*
X110752380Y-51307142D01*
X110800000Y-51354761D01*
X110895238Y-51402380D01*
X111038095Y-51402380D01*
X110276190Y-51402380D02*
X110276190Y-50735714D01*
X110276190Y-50830952D02*
X110228571Y-50783333D01*
X110133333Y-50735714D01*
X109990476Y-50735714D01*
X109895238Y-50783333D01*
X109847619Y-50878571D01*
X109847619Y-51402380D01*
X109847619Y-50878571D02*
X109800000Y-50783333D01*
X109704761Y-50735714D01*
X109561904Y-50735714D01*
X109466666Y-50783333D01*
X109419047Y-50878571D01*
X109419047Y-51402380D01*
X108228571Y-50354761D02*
X109085714Y-51640476D01*
X107895238Y-50735714D02*
X107895238Y-51735714D01*
X107895238Y-50783333D02*
X107800000Y-50735714D01*
X107609523Y-50735714D01*
X107514285Y-50783333D01*
X107466666Y-50830952D01*
X107419047Y-50926190D01*
X107419047Y-51211904D01*
X107466666Y-51307142D01*
X107514285Y-51354761D01*
X107609523Y-51402380D01*
X107800000Y-51402380D01*
X107895238Y-51354761D01*
X106847619Y-51402380D02*
X106942857Y-51354761D01*
X106990476Y-51307142D01*
X107038095Y-51211904D01*
X107038095Y-50926190D01*
X106990476Y-50830952D01*
X106942857Y-50783333D01*
X106847619Y-50735714D01*
X106704761Y-50735714D01*
X106609523Y-50783333D01*
X106561904Y-50830952D01*
X106514285Y-50926190D01*
X106514285Y-51211904D01*
X106561904Y-51307142D01*
X106609523Y-51354761D01*
X106704761Y-51402380D01*
X106847619Y-51402380D01*
X105942857Y-51402380D02*
X106038095Y-51354761D01*
X106085714Y-51259523D01*
X106085714Y-50402380D01*
X105657142Y-50735714D02*
X105419047Y-51402380D01*
X105180952Y-50735714D02*
X105419047Y-51402380D01*
X105514285Y-51640476D01*
X105561904Y-51688095D01*
X105657142Y-51735714D01*
X104800000Y-51402380D02*
X104800000Y-50402380D01*
X104704761Y-51021428D02*
X104419047Y-51402380D01*
X104419047Y-50735714D02*
X104800000Y-51116666D01*
X103990476Y-51402380D02*
X103990476Y-50735714D01*
X103990476Y-50402380D02*
X104038095Y-50450000D01*
X103990476Y-50497619D01*
X103942857Y-50450000D01*
X103990476Y-50402380D01*
X103990476Y-50497619D01*
X103657142Y-50735714D02*
X103276190Y-50735714D01*
X103514285Y-50402380D02*
X103514285Y-51259523D01*
X103466666Y-51354761D01*
X103371428Y-51402380D01*
X103276190Y-51402380D01*
D12*
%TO.C,G\u002A\u002A\u002A*%
G36*
X107664713Y-203214797D02*
G01*
X107506444Y-203277035D01*
X107326614Y-203347263D01*
X107169850Y-203334098D01*
X107135459Y-203322128D01*
X106920235Y-203298189D01*
X106727919Y-203375652D01*
X106582274Y-203528921D01*
X106507064Y-203732401D01*
X106526051Y-203960496D01*
X106530481Y-203973763D01*
X106561708Y-204107606D01*
X106553595Y-204254113D01*
X106501167Y-204454500D01*
X106456161Y-204589570D01*
X106393133Y-204792468D01*
X106351247Y-204990666D01*
X106326555Y-205218377D01*
X106315107Y-205509811D01*
X106312839Y-205831250D01*
X106314756Y-206175995D01*
X106324472Y-206434252D01*
X106348797Y-206646529D01*
X106394540Y-206853334D01*
X106468509Y-207095174D01*
X106577514Y-207412559D01*
X106579677Y-207418750D01*
X106690415Y-207750960D01*
X106790861Y-208079939D01*
X106869425Y-208366035D01*
X106912463Y-208557537D01*
X106974885Y-209149716D01*
X106969420Y-209791214D01*
X106900650Y-210442512D01*
X106773159Y-211064094D01*
X106591529Y-211616443D01*
X106545274Y-211723615D01*
X106446768Y-211944802D01*
X106396993Y-212082012D01*
X106391889Y-212166772D01*
X106427398Y-212230615D01*
X106473741Y-212279240D01*
X106566875Y-212398338D01*
X106599754Y-212482875D01*
X106590924Y-212564272D01*
X106565122Y-212754284D01*
X106524805Y-213036018D01*
X106472428Y-213392584D01*
X106410448Y-213807091D01*
X106341321Y-214262648D01*
X106333899Y-214311186D01*
X106265468Y-214771651D01*
X106206482Y-215194512D01*
X106159039Y-215562535D01*
X106125234Y-215858487D01*
X106107166Y-216065133D01*
X106106931Y-216165241D01*
X106107903Y-216168561D01*
X106136574Y-216210097D01*
X106198210Y-216239582D01*
X106311767Y-216259014D01*
X106496201Y-216270395D01*
X106770468Y-216275722D01*
X107135758Y-216277000D01*
X107510618Y-216275909D01*
X107776819Y-216271240D01*
X107952691Y-216260894D01*
X108056566Y-216242773D01*
X108106775Y-216214780D01*
X108121650Y-216174815D01*
X108122000Y-216164129D01*
X108061055Y-215950528D01*
X107883344Y-215768282D01*
X107596555Y-215623439D01*
X107339645Y-215548593D01*
X107033539Y-215478781D01*
X107376330Y-215242692D01*
X107618781Y-215057396D01*
X107911784Y-214806025D01*
X108223123Y-214518830D01*
X108520579Y-214226057D01*
X108771934Y-213957955D01*
X108878633Y-213832250D01*
X109082969Y-213578250D01*
X109335092Y-213864000D01*
X109587414Y-214207790D01*
X109820958Y-214632210D01*
X110013019Y-215090951D01*
X110129000Y-215483250D01*
X110186899Y-215730034D01*
X110240252Y-215947391D01*
X110277022Y-216086500D01*
X110323200Y-216245250D01*
X111349850Y-216262697D01*
X111786276Y-216266401D01*
X112099895Y-216260420D01*
X112294547Y-216244564D01*
X112374069Y-216218644D01*
X112376500Y-216211919D01*
X112318048Y-216009832D01*
X112161928Y-215818030D01*
X111936999Y-215657778D01*
X111672118Y-215550344D01*
X111432668Y-215516394D01*
X111289569Y-215506790D01*
X111240822Y-215455001D01*
X111253833Y-215322622D01*
X111256345Y-215308625D01*
X111328902Y-214737412D01*
X111342943Y-214178901D01*
X111298165Y-213675603D01*
X111269115Y-213522939D01*
X111138447Y-213080734D01*
X110947054Y-212620645D01*
X110716550Y-212187055D01*
X110468549Y-211824346D01*
X110404825Y-211748213D01*
X110145181Y-211453242D01*
X110243135Y-210959996D01*
X110298006Y-210666687D01*
X110348214Y-210369234D01*
X110383011Y-210131373D01*
X110383346Y-210128699D01*
X110411471Y-209934645D01*
X110445499Y-209839513D01*
X110504648Y-209815927D01*
X110591426Y-209832283D01*
X110814886Y-209884342D01*
X111105928Y-209946398D01*
X111437658Y-210013371D01*
X111783185Y-210080183D01*
X112115616Y-210141757D01*
X112408057Y-210193015D01*
X112633617Y-210228877D01*
X112765402Y-210244267D01*
X112774464Y-210244500D01*
X112895913Y-210212967D01*
X113091111Y-210129885D01*
X113328229Y-210012526D01*
X113575439Y-209878165D01*
X113800911Y-209744073D01*
X113972816Y-209627524D01*
X114058079Y-209547895D01*
X114036531Y-209476521D01*
X113939308Y-209372696D01*
X113916981Y-209354392D01*
X113820130Y-209288246D01*
X113717277Y-209252202D01*
X113580416Y-209245565D01*
X113381539Y-209267644D01*
X113092638Y-209317748D01*
X113016000Y-209332126D01*
X112929071Y-209339707D01*
X112825577Y-209326249D01*
X112688745Y-209285176D01*
X112501799Y-209209914D01*
X112247967Y-209093888D01*
X111910475Y-208930524D01*
X111603125Y-208778337D01*
X111247880Y-208599691D01*
X110934647Y-208438707D01*
X110680097Y-208304242D01*
X110500902Y-208205150D01*
X110413735Y-208150288D01*
X110408000Y-208143525D01*
X110456354Y-208095221D01*
X110591751Y-207982162D01*
X110799692Y-207815873D01*
X111065680Y-207607878D01*
X111375217Y-207369701D01*
X111523997Y-207256396D01*
X112639994Y-206409164D01*
X112920997Y-205831528D01*
X113039635Y-205580464D01*
X113133505Y-205368128D01*
X113190486Y-205222736D01*
X113202000Y-205177446D01*
X113141975Y-205125939D01*
X112971164Y-205102187D01*
X112907278Y-205101000D01*
X112705181Y-205115277D01*
X112566666Y-205176037D01*
X112432278Y-205307375D01*
X112265845Y-205497107D01*
X112095701Y-205689940D01*
X112076125Y-205712026D01*
X111982497Y-205797632D01*
X111844701Y-205885510D01*
X111645160Y-205984036D01*
X111366301Y-206101584D01*
X110990548Y-206246528D01*
X110824973Y-206308212D01*
X109749696Y-206706121D01*
X109599115Y-206522685D01*
X109415073Y-206262335D01*
X109282036Y-206002040D01*
X109216101Y-205776758D01*
X109213623Y-205685501D01*
X109285837Y-205524566D01*
X109471547Y-205358533D01*
X109503125Y-205336879D01*
X109694437Y-205185384D01*
X109764013Y-205068256D01*
X109712123Y-204984594D01*
X109618691Y-204949038D01*
X109411585Y-204848363D01*
X109288096Y-204685773D01*
X109265000Y-204566497D01*
X109283280Y-204468640D01*
X109362735Y-204433818D01*
X109478770Y-204435044D01*
X109648592Y-204457318D01*
X109765803Y-204493381D01*
X109768745Y-204495120D01*
X109865319Y-204484882D01*
X109989060Y-204358971D01*
X110084199Y-204212000D01*
X110129245Y-204090765D01*
X110173189Y-203907032D01*
X110183020Y-203852426D01*
X110226788Y-203588103D01*
X109793519Y-203544400D01*
X109419502Y-203476138D01*
X109068834Y-203358828D01*
X109011000Y-203332474D01*
X108695948Y-203223445D01*
X108337925Y-203166435D01*
X107979868Y-203163025D01*
X107664713Y-203214797D01*
G37*
X107664713Y-203214797D02*
X107506444Y-203277035D01*
X107326614Y-203347263D01*
X107169850Y-203334098D01*
X107135459Y-203322128D01*
X106920235Y-203298189D01*
X106727919Y-203375652D01*
X106582274Y-203528921D01*
X106507064Y-203732401D01*
X106526051Y-203960496D01*
X106530481Y-203973763D01*
X106561708Y-204107606D01*
X106553595Y-204254113D01*
X106501167Y-204454500D01*
X106456161Y-204589570D01*
X106393133Y-204792468D01*
X106351247Y-204990666D01*
X106326555Y-205218377D01*
X106315107Y-205509811D01*
X106312839Y-205831250D01*
X106314756Y-206175995D01*
X106324472Y-206434252D01*
X106348797Y-206646529D01*
X106394540Y-206853334D01*
X106468509Y-207095174D01*
X106577514Y-207412559D01*
X106579677Y-207418750D01*
X106690415Y-207750960D01*
X106790861Y-208079939D01*
X106869425Y-208366035D01*
X106912463Y-208557537D01*
X106974885Y-209149716D01*
X106969420Y-209791214D01*
X106900650Y-210442512D01*
X106773159Y-211064094D01*
X106591529Y-211616443D01*
X106545274Y-211723615D01*
X106446768Y-211944802D01*
X106396993Y-212082012D01*
X106391889Y-212166772D01*
X106427398Y-212230615D01*
X106473741Y-212279240D01*
X106566875Y-212398338D01*
X106599754Y-212482875D01*
X106590924Y-212564272D01*
X106565122Y-212754284D01*
X106524805Y-213036018D01*
X106472428Y-213392584D01*
X106410448Y-213807091D01*
X106341321Y-214262648D01*
X106333899Y-214311186D01*
X106265468Y-214771651D01*
X106206482Y-215194512D01*
X106159039Y-215562535D01*
X106125234Y-215858487D01*
X106107166Y-216065133D01*
X106106931Y-216165241D01*
X106107903Y-216168561D01*
X106136574Y-216210097D01*
X106198210Y-216239582D01*
X106311767Y-216259014D01*
X106496201Y-216270395D01*
X106770468Y-216275722D01*
X107135758Y-216277000D01*
X107510618Y-216275909D01*
X107776819Y-216271240D01*
X107952691Y-216260894D01*
X108056566Y-216242773D01*
X108106775Y-216214780D01*
X108121650Y-216174815D01*
X108122000Y-216164129D01*
X108061055Y-215950528D01*
X107883344Y-215768282D01*
X107596555Y-215623439D01*
X107339645Y-215548593D01*
X107033539Y-215478781D01*
X107376330Y-215242692D01*
X107618781Y-215057396D01*
X107911784Y-214806025D01*
X108223123Y-214518830D01*
X108520579Y-214226057D01*
X108771934Y-213957955D01*
X108878633Y-213832250D01*
X109082969Y-213578250D01*
X109335092Y-213864000D01*
X109587414Y-214207790D01*
X109820958Y-214632210D01*
X110013019Y-215090951D01*
X110129000Y-215483250D01*
X110186899Y-215730034D01*
X110240252Y-215947391D01*
X110277022Y-216086500D01*
X110323200Y-216245250D01*
X111349850Y-216262697D01*
X111786276Y-216266401D01*
X112099895Y-216260420D01*
X112294547Y-216244564D01*
X112374069Y-216218644D01*
X112376500Y-216211919D01*
X112318048Y-216009832D01*
X112161928Y-215818030D01*
X111936999Y-215657778D01*
X111672118Y-215550344D01*
X111432668Y-215516394D01*
X111289569Y-215506790D01*
X111240822Y-215455001D01*
X111253833Y-215322622D01*
X111256345Y-215308625D01*
X111328902Y-214737412D01*
X111342943Y-214178901D01*
X111298165Y-213675603D01*
X111269115Y-213522939D01*
X111138447Y-213080734D01*
X110947054Y-212620645D01*
X110716550Y-212187055D01*
X110468549Y-211824346D01*
X110404825Y-211748213D01*
X110145181Y-211453242D01*
X110243135Y-210959996D01*
X110298006Y-210666687D01*
X110348214Y-210369234D01*
X110383011Y-210131373D01*
X110383346Y-210128699D01*
X110411471Y-209934645D01*
X110445499Y-209839513D01*
X110504648Y-209815927D01*
X110591426Y-209832283D01*
X110814886Y-209884342D01*
X111105928Y-209946398D01*
X111437658Y-210013371D01*
X111783185Y-210080183D01*
X112115616Y-210141757D01*
X112408057Y-210193015D01*
X112633617Y-210228877D01*
X112765402Y-210244267D01*
X112774464Y-210244500D01*
X112895913Y-210212967D01*
X113091111Y-210129885D01*
X113328229Y-210012526D01*
X113575439Y-209878165D01*
X113800911Y-209744073D01*
X113972816Y-209627524D01*
X114058079Y-209547895D01*
X114036531Y-209476521D01*
X113939308Y-209372696D01*
X113916981Y-209354392D01*
X113820130Y-209288246D01*
X113717277Y-209252202D01*
X113580416Y-209245565D01*
X113381539Y-209267644D01*
X113092638Y-209317748D01*
X113016000Y-209332126D01*
X112929071Y-209339707D01*
X112825577Y-209326249D01*
X112688745Y-209285176D01*
X112501799Y-209209914D01*
X112247967Y-209093888D01*
X111910475Y-208930524D01*
X111603125Y-208778337D01*
X111247880Y-208599691D01*
X110934647Y-208438707D01*
X110680097Y-208304242D01*
X110500902Y-208205150D01*
X110413735Y-208150288D01*
X110408000Y-208143525D01*
X110456354Y-208095221D01*
X110591751Y-207982162D01*
X110799692Y-207815873D01*
X111065680Y-207607878D01*
X111375217Y-207369701D01*
X111523997Y-207256396D01*
X112639994Y-206409164D01*
X112920997Y-205831528D01*
X113039635Y-205580464D01*
X113133505Y-205368128D01*
X113190486Y-205222736D01*
X113202000Y-205177446D01*
X113141975Y-205125939D01*
X112971164Y-205102187D01*
X112907278Y-205101000D01*
X112705181Y-205115277D01*
X112566666Y-205176037D01*
X112432278Y-205307375D01*
X112265845Y-205497107D01*
X112095701Y-205689940D01*
X112076125Y-205712026D01*
X111982497Y-205797632D01*
X111844701Y-205885510D01*
X111645160Y-205984036D01*
X111366301Y-206101584D01*
X110990548Y-206246528D01*
X110824973Y-206308212D01*
X109749696Y-206706121D01*
X109599115Y-206522685D01*
X109415073Y-206262335D01*
X109282036Y-206002040D01*
X109216101Y-205776758D01*
X109213623Y-205685501D01*
X109285837Y-205524566D01*
X109471547Y-205358533D01*
X109503125Y-205336879D01*
X109694437Y-205185384D01*
X109764013Y-205068256D01*
X109712123Y-204984594D01*
X109618691Y-204949038D01*
X109411585Y-204848363D01*
X109288096Y-204685773D01*
X109265000Y-204566497D01*
X109283280Y-204468640D01*
X109362735Y-204433818D01*
X109478770Y-204435044D01*
X109648592Y-204457318D01*
X109765803Y-204493381D01*
X109768745Y-204495120D01*
X109865319Y-204484882D01*
X109989060Y-204358971D01*
X110084199Y-204212000D01*
X110129245Y-204090765D01*
X110173189Y-203907032D01*
X110183020Y-203852426D01*
X110226788Y-203588103D01*
X109793519Y-203544400D01*
X109419502Y-203476138D01*
X109068834Y-203358828D01*
X109011000Y-203332474D01*
X108695948Y-203223445D01*
X108337925Y-203166435D01*
X107979868Y-203163025D01*
X107664713Y-203214797D01*
G36*
X121786711Y-45965852D02*
G01*
X121796857Y-45922795D01*
X121811477Y-45855399D01*
X121829858Y-45767094D01*
X121851286Y-45661308D01*
X121875049Y-45541470D01*
X121900436Y-45411010D01*
X121902846Y-45398500D01*
X122014784Y-44816982D01*
X122610909Y-44743765D01*
X122762002Y-44724828D01*
X122894460Y-44707457D01*
X123006033Y-44691986D01*
X123094466Y-44678747D01*
X123157511Y-44668074D01*
X123192912Y-44660300D01*
X123199991Y-44656611D01*
X123184929Y-44645989D01*
X123145180Y-44621916D01*
X123083902Y-44586199D01*
X123004249Y-44540644D01*
X122909380Y-44487056D01*
X122802454Y-44427243D01*
X122689335Y-44364505D01*
X122573488Y-44300164D01*
X122466490Y-44240055D01*
X122371526Y-44186019D01*
X122291778Y-44139899D01*
X122230433Y-44103534D01*
X122190674Y-44078768D01*
X122175742Y-44067563D01*
X122176089Y-44047653D01*
X122182034Y-44000766D01*
X122192892Y-43931051D01*
X122207977Y-43842655D01*
X122226605Y-43739724D01*
X122248092Y-43626405D01*
X122251402Y-43609370D01*
X122284509Y-43439218D01*
X122311888Y-43297704D01*
X122333967Y-43182317D01*
X122351174Y-43090549D01*
X122363940Y-43019889D01*
X122372694Y-42967828D01*
X122377863Y-42931857D01*
X122379878Y-42909464D01*
X122379166Y-42898142D01*
X122376158Y-42895380D01*
X122373183Y-42896980D01*
X122358071Y-42910541D01*
X122322472Y-42943250D01*
X122269105Y-42992587D01*
X122200687Y-43056030D01*
X122119938Y-43131058D01*
X122029577Y-43215151D01*
X121935870Y-43302480D01*
X121839068Y-43392448D01*
X121749364Y-43475245D01*
X121669442Y-43548433D01*
X121601987Y-43609579D01*
X121549684Y-43656247D01*
X121515221Y-43686003D01*
X121501349Y-43696408D01*
X121484728Y-43689360D01*
X121443576Y-43668548D01*
X121381092Y-43635684D01*
X121300466Y-43592478D01*
X121204896Y-43540643D01*
X121097574Y-43481891D01*
X120984090Y-43419260D01*
X120867994Y-43354987D01*
X120760291Y-43295455D01*
X120664229Y-43242450D01*
X120583055Y-43197760D01*
X120520013Y-43163172D01*
X120478351Y-43140473D01*
X120461451Y-43131513D01*
X120455965Y-43138898D01*
X120465029Y-43170964D01*
X120481134Y-43209850D01*
X120497635Y-43246100D01*
X120525571Y-43306724D01*
X120562908Y-43387339D01*
X120607615Y-43483567D01*
X120657657Y-43591026D01*
X120711002Y-43705339D01*
X120730993Y-43748118D01*
X120782726Y-43859750D01*
X120829534Y-43962633D01*
X120869830Y-44053131D01*
X120902029Y-44127612D01*
X120924545Y-44182437D01*
X120935793Y-44213972D01*
X120936720Y-44219787D01*
X120924269Y-44234978D01*
X120891095Y-44269132D01*
X120839832Y-44319704D01*
X120773115Y-44384150D01*
X120693576Y-44459927D01*
X120603850Y-44544489D01*
X120506619Y-44635247D01*
X120409711Y-44725637D01*
X120320643Y-44809390D01*
X120241993Y-44884031D01*
X120176339Y-44947084D01*
X120126256Y-44996076D01*
X120094324Y-45028528D01*
X120083120Y-45041968D01*
X120083122Y-45042009D01*
X120098635Y-45042822D01*
X120142203Y-45039985D01*
X120210384Y-45033847D01*
X120299735Y-45024761D01*
X120406815Y-45013080D01*
X120528183Y-44999155D01*
X120660396Y-44983340D01*
X120679415Y-44981014D01*
X121274243Y-44908092D01*
X121523418Y-45445178D01*
X121579897Y-45566376D01*
X121632373Y-45677950D01*
X121679328Y-45776747D01*
X121719238Y-45859610D01*
X121750583Y-45923383D01*
X121771844Y-45964914D01*
X121781499Y-45981043D01*
X121781750Y-45981140D01*
X121786711Y-45965852D01*
G37*
X121786711Y-45965852D02*
X121796857Y-45922795D01*
X121811477Y-45855399D01*
X121829858Y-45767094D01*
X121851286Y-45661308D01*
X121875049Y-45541470D01*
X121900436Y-45411010D01*
X121902846Y-45398500D01*
X122014784Y-44816982D01*
X122610909Y-44743765D01*
X122762002Y-44724828D01*
X122894460Y-44707457D01*
X123006033Y-44691986D01*
X123094466Y-44678747D01*
X123157511Y-44668074D01*
X123192912Y-44660300D01*
X123199991Y-44656611D01*
X123184929Y-44645989D01*
X123145180Y-44621916D01*
X123083902Y-44586199D01*
X123004249Y-44540644D01*
X122909380Y-44487056D01*
X122802454Y-44427243D01*
X122689335Y-44364505D01*
X122573488Y-44300164D01*
X122466490Y-44240055D01*
X122371526Y-44186019D01*
X122291778Y-44139899D01*
X122230433Y-44103534D01*
X122190674Y-44078768D01*
X122175742Y-44067563D01*
X122176089Y-44047653D01*
X122182034Y-44000766D01*
X122192892Y-43931051D01*
X122207977Y-43842655D01*
X122226605Y-43739724D01*
X122248092Y-43626405D01*
X122251402Y-43609370D01*
X122284509Y-43439218D01*
X122311888Y-43297704D01*
X122333967Y-43182317D01*
X122351174Y-43090549D01*
X122363940Y-43019889D01*
X122372694Y-42967828D01*
X122377863Y-42931857D01*
X122379878Y-42909464D01*
X122379166Y-42898142D01*
X122376158Y-42895380D01*
X122373183Y-42896980D01*
X122358071Y-42910541D01*
X122322472Y-42943250D01*
X122269105Y-42992587D01*
X122200687Y-43056030D01*
X122119938Y-43131058D01*
X122029577Y-43215151D01*
X121935870Y-43302480D01*
X121839068Y-43392448D01*
X121749364Y-43475245D01*
X121669442Y-43548433D01*
X121601987Y-43609579D01*
X121549684Y-43656247D01*
X121515221Y-43686003D01*
X121501349Y-43696408D01*
X121484728Y-43689360D01*
X121443576Y-43668548D01*
X121381092Y-43635684D01*
X121300466Y-43592478D01*
X121204896Y-43540643D01*
X121097574Y-43481891D01*
X120984090Y-43419260D01*
X120867994Y-43354987D01*
X120760291Y-43295455D01*
X120664229Y-43242450D01*
X120583055Y-43197760D01*
X120520013Y-43163172D01*
X120478351Y-43140473D01*
X120461451Y-43131513D01*
X120455965Y-43138898D01*
X120465029Y-43170964D01*
X120481134Y-43209850D01*
X120497635Y-43246100D01*
X120525571Y-43306724D01*
X120562908Y-43387339D01*
X120607615Y-43483567D01*
X120657657Y-43591026D01*
X120711002Y-43705339D01*
X120730993Y-43748118D01*
X120782726Y-43859750D01*
X120829534Y-43962633D01*
X120869830Y-44053131D01*
X120902029Y-44127612D01*
X120924545Y-44182437D01*
X120935793Y-44213972D01*
X120936720Y-44219787D01*
X120924269Y-44234978D01*
X120891095Y-44269132D01*
X120839832Y-44319704D01*
X120773115Y-44384150D01*
X120693576Y-44459927D01*
X120603850Y-44544489D01*
X120506619Y-44635247D01*
X120409711Y-44725637D01*
X120320643Y-44809390D01*
X120241993Y-44884031D01*
X120176339Y-44947084D01*
X120126256Y-44996076D01*
X120094324Y-45028528D01*
X120083120Y-45041968D01*
X120083122Y-45042009D01*
X120098635Y-45042822D01*
X120142203Y-45039985D01*
X120210384Y-45033847D01*
X120299735Y-45024761D01*
X120406815Y-45013080D01*
X120528183Y-44999155D01*
X120660396Y-44983340D01*
X120679415Y-44981014D01*
X121274243Y-44908092D01*
X121523418Y-45445178D01*
X121579897Y-45566376D01*
X121632373Y-45677950D01*
X121679328Y-45776747D01*
X121719238Y-45859610D01*
X121750583Y-45923383D01*
X121771844Y-45964914D01*
X121781499Y-45981043D01*
X121781750Y-45981140D01*
X121786711Y-45965852D01*
G36*
X115906677Y-40477680D02*
G01*
X115921995Y-40436181D01*
X115944719Y-40371069D01*
X115973725Y-40285662D01*
X116007885Y-40183276D01*
X116046076Y-40067227D01*
X116087172Y-39940833D01*
X116091089Y-39928710D01*
X116273062Y-39365169D01*
X116873666Y-39365147D01*
X117025941Y-39364765D01*
X117159529Y-39363666D01*
X117272155Y-39361907D01*
X117361543Y-39359544D01*
X117425418Y-39356634D01*
X117461503Y-39353232D01*
X117468979Y-39350434D01*
X117455324Y-39338055D01*
X117418805Y-39309317D01*
X117362336Y-39266399D01*
X117288829Y-39211476D01*
X117201198Y-39146726D01*
X117102358Y-39074328D01*
X116997728Y-38998272D01*
X116890586Y-38920292D01*
X116791711Y-38847591D01*
X116704040Y-38782385D01*
X116630507Y-38726890D01*
X116574051Y-38683320D01*
X116537606Y-38653893D01*
X116524151Y-38640952D01*
X116526922Y-38621232D01*
X116538537Y-38575419D01*
X116557810Y-38507547D01*
X116583555Y-38421648D01*
X116614589Y-38321755D01*
X116649726Y-38211899D01*
X116655087Y-38195395D01*
X116708684Y-38030546D01*
X116753105Y-37893423D01*
X116789081Y-37781587D01*
X116817344Y-37692600D01*
X116838626Y-37624022D01*
X116853659Y-37573416D01*
X116863174Y-37538343D01*
X116867902Y-37516363D01*
X116868576Y-37505039D01*
X116865927Y-37501931D01*
X116862779Y-37503156D01*
X116846127Y-37514774D01*
X116806807Y-37542901D01*
X116747825Y-37585366D01*
X116672185Y-37639998D01*
X116582895Y-37704626D01*
X116482959Y-37777080D01*
X116379307Y-37852338D01*
X116272263Y-37929839D01*
X116173137Y-38001086D01*
X116084891Y-38063989D01*
X116010487Y-38116458D01*
X115952887Y-38156404D01*
X115915054Y-38181738D01*
X115900018Y-38190375D01*
X115884379Y-38181354D01*
X115846071Y-38155682D01*
X115788057Y-38115448D01*
X115713298Y-38062739D01*
X115624757Y-37999643D01*
X115525395Y-37928249D01*
X115420390Y-37852255D01*
X115312992Y-37774313D01*
X115213347Y-37702099D01*
X115124461Y-37637782D01*
X115049338Y-37583532D01*
X114990981Y-37541519D01*
X114952396Y-37513912D01*
X114936714Y-37502959D01*
X114930369Y-37509621D01*
X114935458Y-37542552D01*
X114946704Y-37583111D01*
X114958664Y-37621102D01*
X114979003Y-37684678D01*
X115006238Y-37769243D01*
X115038884Y-37870202D01*
X115075457Y-37982959D01*
X115114473Y-38102921D01*
X115129102Y-38147817D01*
X115166845Y-38264922D01*
X115200766Y-38372742D01*
X115229732Y-38467477D01*
X115252614Y-38545326D01*
X115268281Y-38602487D01*
X115275602Y-38635158D01*
X115275813Y-38641042D01*
X115261604Y-38654603D01*
X115224515Y-38684459D01*
X115167471Y-38728407D01*
X115093397Y-38784242D01*
X115005216Y-38849760D01*
X114905853Y-38922757D01*
X114798286Y-39000989D01*
X114691085Y-39078895D01*
X114592474Y-39151169D01*
X114505314Y-39215669D01*
X114432465Y-39270251D01*
X114376785Y-39312774D01*
X114341136Y-39341093D01*
X114328377Y-39353067D01*
X114328374Y-39353108D01*
X114343673Y-39355806D01*
X114387262Y-39358299D01*
X114455682Y-39360516D01*
X114545475Y-39362387D01*
X114653180Y-39363843D01*
X114775340Y-39364813D01*
X114908495Y-39365228D01*
X114927656Y-39365238D01*
X115526937Y-39365350D01*
X115708801Y-39928800D01*
X115750088Y-40055977D01*
X115788576Y-40173115D01*
X115823140Y-40276898D01*
X115852654Y-40364007D01*
X115875994Y-40431125D01*
X115892035Y-40474937D01*
X115899652Y-40492123D01*
X115899890Y-40492250D01*
X115906677Y-40477680D01*
G37*
X115906677Y-40477680D02*
X115921995Y-40436181D01*
X115944719Y-40371069D01*
X115973725Y-40285662D01*
X116007885Y-40183276D01*
X116046076Y-40067227D01*
X116087172Y-39940833D01*
X116091089Y-39928710D01*
X116273062Y-39365169D01*
X116873666Y-39365147D01*
X117025941Y-39364765D01*
X117159529Y-39363666D01*
X117272155Y-39361907D01*
X117361543Y-39359544D01*
X117425418Y-39356634D01*
X117461503Y-39353232D01*
X117468979Y-39350434D01*
X117455324Y-39338055D01*
X117418805Y-39309317D01*
X117362336Y-39266399D01*
X117288829Y-39211476D01*
X117201198Y-39146726D01*
X117102358Y-39074328D01*
X116997728Y-38998272D01*
X116890586Y-38920292D01*
X116791711Y-38847591D01*
X116704040Y-38782385D01*
X116630507Y-38726890D01*
X116574051Y-38683320D01*
X116537606Y-38653893D01*
X116524151Y-38640952D01*
X116526922Y-38621232D01*
X116538537Y-38575419D01*
X116557810Y-38507547D01*
X116583555Y-38421648D01*
X116614589Y-38321755D01*
X116649726Y-38211899D01*
X116655087Y-38195395D01*
X116708684Y-38030546D01*
X116753105Y-37893423D01*
X116789081Y-37781587D01*
X116817344Y-37692600D01*
X116838626Y-37624022D01*
X116853659Y-37573416D01*
X116863174Y-37538343D01*
X116867902Y-37516363D01*
X116868576Y-37505039D01*
X116865927Y-37501931D01*
X116862779Y-37503156D01*
X116846127Y-37514774D01*
X116806807Y-37542901D01*
X116747825Y-37585366D01*
X116672185Y-37639998D01*
X116582895Y-37704626D01*
X116482959Y-37777080D01*
X116379307Y-37852338D01*
X116272263Y-37929839D01*
X116173137Y-38001086D01*
X116084891Y-38063989D01*
X116010487Y-38116458D01*
X115952887Y-38156404D01*
X115915054Y-38181738D01*
X115900018Y-38190375D01*
X115884379Y-38181354D01*
X115846071Y-38155682D01*
X115788057Y-38115448D01*
X115713298Y-38062739D01*
X115624757Y-37999643D01*
X115525395Y-37928249D01*
X115420390Y-37852255D01*
X115312992Y-37774313D01*
X115213347Y-37702099D01*
X115124461Y-37637782D01*
X115049338Y-37583532D01*
X114990981Y-37541519D01*
X114952396Y-37513912D01*
X114936714Y-37502959D01*
X114930369Y-37509621D01*
X114935458Y-37542552D01*
X114946704Y-37583111D01*
X114958664Y-37621102D01*
X114979003Y-37684678D01*
X115006238Y-37769243D01*
X115038884Y-37870202D01*
X115075457Y-37982959D01*
X115114473Y-38102921D01*
X115129102Y-38147817D01*
X115166845Y-38264922D01*
X115200766Y-38372742D01*
X115229732Y-38467477D01*
X115252614Y-38545326D01*
X115268281Y-38602487D01*
X115275602Y-38635158D01*
X115275813Y-38641042D01*
X115261604Y-38654603D01*
X115224515Y-38684459D01*
X115167471Y-38728407D01*
X115093397Y-38784242D01*
X115005216Y-38849760D01*
X114905853Y-38922757D01*
X114798286Y-39000989D01*
X114691085Y-39078895D01*
X114592474Y-39151169D01*
X114505314Y-39215669D01*
X114432465Y-39270251D01*
X114376785Y-39312774D01*
X114341136Y-39341093D01*
X114328377Y-39353067D01*
X114328374Y-39353108D01*
X114343673Y-39355806D01*
X114387262Y-39358299D01*
X114455682Y-39360516D01*
X114545475Y-39362387D01*
X114653180Y-39363843D01*
X114775340Y-39364813D01*
X114908495Y-39365228D01*
X114927656Y-39365238D01*
X115526937Y-39365350D01*
X115708801Y-39928800D01*
X115750088Y-40055977D01*
X115788576Y-40173115D01*
X115823140Y-40276898D01*
X115852654Y-40364007D01*
X115875994Y-40431125D01*
X115892035Y-40474937D01*
X115899652Y-40492123D01*
X115899890Y-40492250D01*
X115906677Y-40477680D01*
G36*
X119888901Y-41925601D02*
G01*
X119892957Y-41881552D01*
X119898054Y-41812777D01*
X119903967Y-41722773D01*
X119910463Y-41615034D01*
X119917317Y-41493055D01*
X119924300Y-41360331D01*
X119924946Y-41347608D01*
X119954863Y-40756171D01*
X120534996Y-40600702D01*
X120681984Y-40560921D01*
X120810735Y-40525284D01*
X120919068Y-40494435D01*
X121004799Y-40469018D01*
X121065744Y-40449675D01*
X121099719Y-40437049D01*
X121106216Y-40432412D01*
X121089823Y-40423989D01*
X121047110Y-40405682D01*
X120981457Y-40378841D01*
X120896240Y-40344815D01*
X120794836Y-40304952D01*
X120680626Y-40260602D01*
X120559877Y-40214218D01*
X120436203Y-40166625D01*
X120321880Y-40121992D01*
X120220320Y-40081699D01*
X120134930Y-40047127D01*
X120069120Y-40019653D01*
X120026301Y-40000662D01*
X120009955Y-39991644D01*
X120007528Y-39971879D01*
X120006890Y-39924621D01*
X120007939Y-39854073D01*
X120010575Y-39764438D01*
X120014697Y-39659916D01*
X120020204Y-39544710D01*
X120021111Y-39527380D01*
X120030216Y-39354277D01*
X120037633Y-39210329D01*
X120043438Y-39092992D01*
X120047706Y-38999722D01*
X120050514Y-38927973D01*
X120051937Y-38875201D01*
X120052050Y-38838860D01*
X120050928Y-38816405D01*
X120048648Y-38805293D01*
X120045285Y-38802976D01*
X120042561Y-38804974D01*
X120029484Y-38820506D01*
X119998783Y-38857852D01*
X119952802Y-38914135D01*
X119893879Y-38986483D01*
X119824358Y-39072019D01*
X119746580Y-39167869D01*
X119665938Y-39267390D01*
X119582600Y-39369955D01*
X119505292Y-39464430D01*
X119436334Y-39548029D01*
X119378045Y-39617968D01*
X119332746Y-39671461D01*
X119302759Y-39705723D01*
X119290471Y-39717958D01*
X119273030Y-39713292D01*
X119229383Y-39698409D01*
X119162932Y-39674561D01*
X119077079Y-39642997D01*
X118975224Y-39604967D01*
X118860770Y-39561723D01*
X118739674Y-39515496D01*
X118615763Y-39468006D01*
X118500823Y-39424043D01*
X118398319Y-39384923D01*
X118311715Y-39351965D01*
X118244472Y-39326487D01*
X118200057Y-39309807D01*
X118182074Y-39303286D01*
X118177670Y-39311363D01*
X118191109Y-39341855D01*
X118212469Y-39378121D01*
X118233854Y-39411722D01*
X118269955Y-39467868D01*
X118318149Y-39542503D01*
X118375813Y-39631572D01*
X118440323Y-39731021D01*
X118509058Y-39836798D01*
X118534809Y-39876378D01*
X118601574Y-39979724D01*
X118662246Y-40075090D01*
X118714744Y-40159100D01*
X118756995Y-40228374D01*
X118786922Y-40279533D01*
X118802450Y-40309196D01*
X118804176Y-40314825D01*
X118793961Y-40331601D01*
X118765864Y-40370039D01*
X118722138Y-40427254D01*
X118665039Y-40500358D01*
X118596820Y-40586466D01*
X118519736Y-40682693D01*
X118436082Y-40786100D01*
X118352697Y-40889097D01*
X118276152Y-40984431D01*
X118208656Y-41069292D01*
X118152416Y-41140868D01*
X118109639Y-41196354D01*
X118082534Y-41232934D01*
X118073309Y-41247802D01*
X118073317Y-41247843D01*
X118088793Y-41246489D01*
X118131542Y-41237616D01*
X118198204Y-41222049D01*
X118285422Y-41200616D01*
X118389834Y-41174146D01*
X118508082Y-41143466D01*
X118636808Y-41109404D01*
X118655318Y-41104454D01*
X119234208Y-40949457D01*
X119555707Y-41446638D01*
X119628503Y-41558796D01*
X119695997Y-41661981D01*
X119756244Y-41753282D01*
X119807298Y-41829784D01*
X119847214Y-41888574D01*
X119874048Y-41926741D01*
X119885854Y-41941370D01*
X119886116Y-41941431D01*
X119888901Y-41925601D01*
G37*
X119888901Y-41925601D02*
X119892957Y-41881552D01*
X119898054Y-41812777D01*
X119903967Y-41722773D01*
X119910463Y-41615034D01*
X119917317Y-41493055D01*
X119924300Y-41360331D01*
X119924946Y-41347608D01*
X119954863Y-40756171D01*
X120534996Y-40600702D01*
X120681984Y-40560921D01*
X120810735Y-40525284D01*
X120919068Y-40494435D01*
X121004799Y-40469018D01*
X121065744Y-40449675D01*
X121099719Y-40437049D01*
X121106216Y-40432412D01*
X121089823Y-40423989D01*
X121047110Y-40405682D01*
X120981457Y-40378841D01*
X120896240Y-40344815D01*
X120794836Y-40304952D01*
X120680626Y-40260602D01*
X120559877Y-40214218D01*
X120436203Y-40166625D01*
X120321880Y-40121992D01*
X120220320Y-40081699D01*
X120134930Y-40047127D01*
X120069120Y-40019653D01*
X120026301Y-40000662D01*
X120009955Y-39991644D01*
X120007528Y-39971879D01*
X120006890Y-39924621D01*
X120007939Y-39854073D01*
X120010575Y-39764438D01*
X120014697Y-39659916D01*
X120020204Y-39544710D01*
X120021111Y-39527380D01*
X120030216Y-39354277D01*
X120037633Y-39210329D01*
X120043438Y-39092992D01*
X120047706Y-38999722D01*
X120050514Y-38927973D01*
X120051937Y-38875201D01*
X120052050Y-38838860D01*
X120050928Y-38816405D01*
X120048648Y-38805293D01*
X120045285Y-38802976D01*
X120042561Y-38804974D01*
X120029484Y-38820506D01*
X119998783Y-38857852D01*
X119952802Y-38914135D01*
X119893879Y-38986483D01*
X119824358Y-39072019D01*
X119746580Y-39167869D01*
X119665938Y-39267390D01*
X119582600Y-39369955D01*
X119505292Y-39464430D01*
X119436334Y-39548029D01*
X119378045Y-39617968D01*
X119332746Y-39671461D01*
X119302759Y-39705723D01*
X119290471Y-39717958D01*
X119273030Y-39713292D01*
X119229383Y-39698409D01*
X119162932Y-39674561D01*
X119077079Y-39642997D01*
X118975224Y-39604967D01*
X118860770Y-39561723D01*
X118739674Y-39515496D01*
X118615763Y-39468006D01*
X118500823Y-39424043D01*
X118398319Y-39384923D01*
X118311715Y-39351965D01*
X118244472Y-39326487D01*
X118200057Y-39309807D01*
X118182074Y-39303286D01*
X118177670Y-39311363D01*
X118191109Y-39341855D01*
X118212469Y-39378121D01*
X118233854Y-39411722D01*
X118269955Y-39467868D01*
X118318149Y-39542503D01*
X118375813Y-39631572D01*
X118440323Y-39731021D01*
X118509058Y-39836798D01*
X118534809Y-39876378D01*
X118601574Y-39979724D01*
X118662246Y-40075090D01*
X118714744Y-40159100D01*
X118756995Y-40228374D01*
X118786922Y-40279533D01*
X118802450Y-40309196D01*
X118804176Y-40314825D01*
X118793961Y-40331601D01*
X118765864Y-40370039D01*
X118722138Y-40427254D01*
X118665039Y-40500358D01*
X118596820Y-40586466D01*
X118519736Y-40682693D01*
X118436082Y-40786100D01*
X118352697Y-40889097D01*
X118276152Y-40984431D01*
X118208656Y-41069292D01*
X118152416Y-41140868D01*
X118109639Y-41196354D01*
X118082534Y-41232934D01*
X118073309Y-41247802D01*
X118073317Y-41247843D01*
X118088793Y-41246489D01*
X118131542Y-41237616D01*
X118198204Y-41222049D01*
X118285422Y-41200616D01*
X118389834Y-41174146D01*
X118508082Y-41143466D01*
X118636808Y-41109404D01*
X118655318Y-41104454D01*
X119234208Y-40949457D01*
X119555707Y-41446638D01*
X119628503Y-41558796D01*
X119695997Y-41661981D01*
X119756244Y-41753282D01*
X119807298Y-41829784D01*
X119847214Y-41888574D01*
X119874048Y-41926741D01*
X119885854Y-41941370D01*
X119886116Y-41941431D01*
X119888901Y-41925601D01*
G36*
X123506677Y-41877680D02*
G01*
X123521995Y-41836181D01*
X123544719Y-41771069D01*
X123573725Y-41685662D01*
X123607885Y-41583276D01*
X123646076Y-41467227D01*
X123687172Y-41340833D01*
X123691089Y-41328710D01*
X123873062Y-40765169D01*
X124473666Y-40765147D01*
X124625941Y-40764765D01*
X124759529Y-40763666D01*
X124872155Y-40761907D01*
X124961543Y-40759544D01*
X125025418Y-40756634D01*
X125061503Y-40753232D01*
X125068979Y-40750434D01*
X125055324Y-40738055D01*
X125018805Y-40709317D01*
X124962336Y-40666399D01*
X124888829Y-40611476D01*
X124801198Y-40546726D01*
X124702358Y-40474328D01*
X124597728Y-40398272D01*
X124490586Y-40320292D01*
X124391711Y-40247591D01*
X124304040Y-40182385D01*
X124230507Y-40126890D01*
X124174051Y-40083320D01*
X124137606Y-40053893D01*
X124124151Y-40040952D01*
X124126922Y-40021232D01*
X124138537Y-39975419D01*
X124157810Y-39907547D01*
X124183555Y-39821648D01*
X124214589Y-39721755D01*
X124249726Y-39611899D01*
X124255087Y-39595395D01*
X124308684Y-39430546D01*
X124353105Y-39293423D01*
X124389081Y-39181587D01*
X124417344Y-39092600D01*
X124438626Y-39024022D01*
X124453659Y-38973416D01*
X124463174Y-38938343D01*
X124467902Y-38916363D01*
X124468576Y-38905039D01*
X124465927Y-38901931D01*
X124462779Y-38903156D01*
X124446127Y-38914774D01*
X124406807Y-38942901D01*
X124347825Y-38985366D01*
X124272185Y-39039998D01*
X124182895Y-39104626D01*
X124082959Y-39177080D01*
X123979307Y-39252338D01*
X123872263Y-39329839D01*
X123773137Y-39401086D01*
X123684891Y-39463989D01*
X123610487Y-39516458D01*
X123552887Y-39556404D01*
X123515054Y-39581738D01*
X123500018Y-39590375D01*
X123484379Y-39581354D01*
X123446071Y-39555682D01*
X123388057Y-39515448D01*
X123313298Y-39462739D01*
X123224757Y-39399643D01*
X123125395Y-39328249D01*
X123020390Y-39252255D01*
X122912992Y-39174313D01*
X122813347Y-39102099D01*
X122724461Y-39037782D01*
X122649338Y-38983532D01*
X122590981Y-38941519D01*
X122552396Y-38913912D01*
X122536714Y-38902959D01*
X122530369Y-38909621D01*
X122535458Y-38942552D01*
X122546704Y-38983111D01*
X122558664Y-39021102D01*
X122579003Y-39084678D01*
X122606238Y-39169243D01*
X122638884Y-39270202D01*
X122675457Y-39382959D01*
X122714473Y-39502921D01*
X122729102Y-39547817D01*
X122766845Y-39664922D01*
X122800766Y-39772742D01*
X122829732Y-39867477D01*
X122852614Y-39945326D01*
X122868281Y-40002487D01*
X122875602Y-40035158D01*
X122875813Y-40041042D01*
X122861604Y-40054603D01*
X122824515Y-40084459D01*
X122767471Y-40128407D01*
X122693397Y-40184242D01*
X122605216Y-40249760D01*
X122505853Y-40322757D01*
X122398286Y-40400989D01*
X122291085Y-40478895D01*
X122192474Y-40551169D01*
X122105314Y-40615669D01*
X122032465Y-40670251D01*
X121976785Y-40712774D01*
X121941136Y-40741093D01*
X121928377Y-40753067D01*
X121928374Y-40753108D01*
X121943673Y-40755806D01*
X121987262Y-40758299D01*
X122055682Y-40760516D01*
X122145475Y-40762387D01*
X122253180Y-40763843D01*
X122375340Y-40764813D01*
X122508495Y-40765228D01*
X122527656Y-40765238D01*
X123126937Y-40765350D01*
X123308801Y-41328800D01*
X123350088Y-41455977D01*
X123388576Y-41573115D01*
X123423140Y-41676898D01*
X123452654Y-41764007D01*
X123475994Y-41831125D01*
X123492035Y-41874937D01*
X123499652Y-41892123D01*
X123499890Y-41892250D01*
X123506677Y-41877680D01*
G37*
X123506677Y-41877680D02*
X123521995Y-41836181D01*
X123544719Y-41771069D01*
X123573725Y-41685662D01*
X123607885Y-41583276D01*
X123646076Y-41467227D01*
X123687172Y-41340833D01*
X123691089Y-41328710D01*
X123873062Y-40765169D01*
X124473666Y-40765147D01*
X124625941Y-40764765D01*
X124759529Y-40763666D01*
X124872155Y-40761907D01*
X124961543Y-40759544D01*
X125025418Y-40756634D01*
X125061503Y-40753232D01*
X125068979Y-40750434D01*
X125055324Y-40738055D01*
X125018805Y-40709317D01*
X124962336Y-40666399D01*
X124888829Y-40611476D01*
X124801198Y-40546726D01*
X124702358Y-40474328D01*
X124597728Y-40398272D01*
X124490586Y-40320292D01*
X124391711Y-40247591D01*
X124304040Y-40182385D01*
X124230507Y-40126890D01*
X124174051Y-40083320D01*
X124137606Y-40053893D01*
X124124151Y-40040952D01*
X124126922Y-40021232D01*
X124138537Y-39975419D01*
X124157810Y-39907547D01*
X124183555Y-39821648D01*
X124214589Y-39721755D01*
X124249726Y-39611899D01*
X124255087Y-39595395D01*
X124308684Y-39430546D01*
X124353105Y-39293423D01*
X124389081Y-39181587D01*
X124417344Y-39092600D01*
X124438626Y-39024022D01*
X124453659Y-38973416D01*
X124463174Y-38938343D01*
X124467902Y-38916363D01*
X124468576Y-38905039D01*
X124465927Y-38901931D01*
X124462779Y-38903156D01*
X124446127Y-38914774D01*
X124406807Y-38942901D01*
X124347825Y-38985366D01*
X124272185Y-39039998D01*
X124182895Y-39104626D01*
X124082959Y-39177080D01*
X123979307Y-39252338D01*
X123872263Y-39329839D01*
X123773137Y-39401086D01*
X123684891Y-39463989D01*
X123610487Y-39516458D01*
X123552887Y-39556404D01*
X123515054Y-39581738D01*
X123500018Y-39590375D01*
X123484379Y-39581354D01*
X123446071Y-39555682D01*
X123388057Y-39515448D01*
X123313298Y-39462739D01*
X123224757Y-39399643D01*
X123125395Y-39328249D01*
X123020390Y-39252255D01*
X122912992Y-39174313D01*
X122813347Y-39102099D01*
X122724461Y-39037782D01*
X122649338Y-38983532D01*
X122590981Y-38941519D01*
X122552396Y-38913912D01*
X122536714Y-38902959D01*
X122530369Y-38909621D01*
X122535458Y-38942552D01*
X122546704Y-38983111D01*
X122558664Y-39021102D01*
X122579003Y-39084678D01*
X122606238Y-39169243D01*
X122638884Y-39270202D01*
X122675457Y-39382959D01*
X122714473Y-39502921D01*
X122729102Y-39547817D01*
X122766845Y-39664922D01*
X122800766Y-39772742D01*
X122829732Y-39867477D01*
X122852614Y-39945326D01*
X122868281Y-40002487D01*
X122875602Y-40035158D01*
X122875813Y-40041042D01*
X122861604Y-40054603D01*
X122824515Y-40084459D01*
X122767471Y-40128407D01*
X122693397Y-40184242D01*
X122605216Y-40249760D01*
X122505853Y-40322757D01*
X122398286Y-40400989D01*
X122291085Y-40478895D01*
X122192474Y-40551169D01*
X122105314Y-40615669D01*
X122032465Y-40670251D01*
X121976785Y-40712774D01*
X121941136Y-40741093D01*
X121928377Y-40753067D01*
X121928374Y-40753108D01*
X121943673Y-40755806D01*
X121987262Y-40758299D01*
X122055682Y-40760516D01*
X122145475Y-40762387D01*
X122253180Y-40763843D01*
X122375340Y-40764813D01*
X122508495Y-40765228D01*
X122527656Y-40765238D01*
X123126937Y-40765350D01*
X123308801Y-41328800D01*
X123350088Y-41455977D01*
X123388576Y-41573115D01*
X123423140Y-41676898D01*
X123452654Y-41764007D01*
X123475994Y-41831125D01*
X123492035Y-41874937D01*
X123499652Y-41892123D01*
X123499890Y-41892250D01*
X123506677Y-41877680D01*
G36*
X119329332Y-38176004D02*
G01*
X119346801Y-38135364D01*
X119372902Y-38071530D01*
X119406338Y-37987759D01*
X119445809Y-37887301D01*
X119490021Y-37773409D01*
X119537676Y-37649339D01*
X119542222Y-37637438D01*
X119753439Y-37084193D01*
X120353221Y-37115604D01*
X120505308Y-37123192D01*
X120638770Y-37129086D01*
X120751334Y-37133224D01*
X120840723Y-37135543D01*
X120904663Y-37135979D01*
X120940876Y-37134471D01*
X120948488Y-37132068D01*
X120935500Y-37118991D01*
X120900535Y-37088381D01*
X120846390Y-37042567D01*
X120775858Y-36983872D01*
X120691736Y-36914624D01*
X120596820Y-36837153D01*
X120496314Y-36755725D01*
X120393400Y-36672245D01*
X120298465Y-36594468D01*
X120214327Y-36524763D01*
X120143799Y-36465496D01*
X120089701Y-36419031D01*
X120054846Y-36387737D01*
X120042087Y-36374110D01*
X120045886Y-36354562D01*
X120059883Y-36309419D01*
X120082681Y-36242649D01*
X120112887Y-36158215D01*
X120149106Y-36060083D01*
X120189945Y-35952217D01*
X120196162Y-35936016D01*
X120258313Y-35774198D01*
X120309850Y-35639588D01*
X120351629Y-35529788D01*
X120384511Y-35442402D01*
X120409353Y-35375032D01*
X120427014Y-35325282D01*
X120438351Y-35290755D01*
X120444223Y-35269052D01*
X120445489Y-35257779D01*
X120443006Y-35254537D01*
X120439798Y-35255595D01*
X120422561Y-35266326D01*
X120381823Y-35292357D01*
X120320699Y-35331676D01*
X120242304Y-35382275D01*
X120149754Y-35442141D01*
X120046163Y-35509266D01*
X119938714Y-35578996D01*
X119827761Y-35650788D01*
X119725042Y-35716750D01*
X119633625Y-35774948D01*
X119556577Y-35823451D01*
X119496965Y-35860328D01*
X119457858Y-35883647D01*
X119442390Y-35891486D01*
X119427245Y-35881658D01*
X119390333Y-35854017D01*
X119334504Y-35810802D01*
X119262606Y-35754252D01*
X119177489Y-35686609D01*
X119081999Y-35610112D01*
X118981116Y-35528727D01*
X118877944Y-35445271D01*
X118782215Y-35367941D01*
X118696817Y-35299060D01*
X118624636Y-35240953D01*
X118568558Y-35195943D01*
X118531470Y-35166355D01*
X118516383Y-35154596D01*
X118509698Y-35160917D01*
X118513057Y-35194069D01*
X118522165Y-35235161D01*
X118532120Y-35273726D01*
X118549104Y-35338279D01*
X118571876Y-35424154D01*
X118599193Y-35526683D01*
X118629815Y-35641200D01*
X118662499Y-35763039D01*
X118674758Y-35808639D01*
X118706321Y-35927559D01*
X118734552Y-36037007D01*
X118758521Y-36133128D01*
X118777297Y-36212068D01*
X118789951Y-36269970D01*
X118795552Y-36302980D01*
X118795455Y-36308867D01*
X118780556Y-36321665D01*
X118741955Y-36349539D01*
X118682689Y-36390442D01*
X118605794Y-36442323D01*
X118514305Y-36503137D01*
X118411258Y-36570833D01*
X118299744Y-36643328D01*
X118188613Y-36715517D01*
X118086354Y-36782531D01*
X117995938Y-36842381D01*
X117920332Y-36893076D01*
X117862503Y-36932626D01*
X117825421Y-36959041D01*
X117812053Y-36970331D01*
X117812048Y-36970372D01*
X117827184Y-36973867D01*
X117870583Y-36978637D01*
X117938793Y-36984432D01*
X118028365Y-36991000D01*
X118135847Y-36998091D01*
X118257788Y-37005453D01*
X118390739Y-37012836D01*
X118409873Y-37013849D01*
X119008327Y-37045325D01*
X119160453Y-37617521D01*
X119195028Y-37746684D01*
X119227333Y-37865676D01*
X119256418Y-37971126D01*
X119281332Y-38059660D01*
X119301128Y-38127907D01*
X119314854Y-38172499D01*
X119321561Y-38190060D01*
X119321792Y-38190199D01*
X119329332Y-38176004D01*
G37*
X119329332Y-38176004D02*
X119346801Y-38135364D01*
X119372902Y-38071530D01*
X119406338Y-37987759D01*
X119445809Y-37887301D01*
X119490021Y-37773409D01*
X119537676Y-37649339D01*
X119542222Y-37637438D01*
X119753439Y-37084193D01*
X120353221Y-37115604D01*
X120505308Y-37123192D01*
X120638770Y-37129086D01*
X120751334Y-37133224D01*
X120840723Y-37135543D01*
X120904663Y-37135979D01*
X120940876Y-37134471D01*
X120948488Y-37132068D01*
X120935500Y-37118991D01*
X120900535Y-37088381D01*
X120846390Y-37042567D01*
X120775858Y-36983872D01*
X120691736Y-36914624D01*
X120596820Y-36837153D01*
X120496314Y-36755725D01*
X120393400Y-36672245D01*
X120298465Y-36594468D01*
X120214327Y-36524763D01*
X120143799Y-36465496D01*
X120089701Y-36419031D01*
X120054846Y-36387737D01*
X120042087Y-36374110D01*
X120045886Y-36354562D01*
X120059883Y-36309419D01*
X120082681Y-36242649D01*
X120112887Y-36158215D01*
X120149106Y-36060083D01*
X120189945Y-35952217D01*
X120196162Y-35936016D01*
X120258313Y-35774198D01*
X120309850Y-35639588D01*
X120351629Y-35529788D01*
X120384511Y-35442402D01*
X120409353Y-35375032D01*
X120427014Y-35325282D01*
X120438351Y-35290755D01*
X120444223Y-35269052D01*
X120445489Y-35257779D01*
X120443006Y-35254537D01*
X120439798Y-35255595D01*
X120422561Y-35266326D01*
X120381823Y-35292357D01*
X120320699Y-35331676D01*
X120242304Y-35382275D01*
X120149754Y-35442141D01*
X120046163Y-35509266D01*
X119938714Y-35578996D01*
X119827761Y-35650788D01*
X119725042Y-35716750D01*
X119633625Y-35774948D01*
X119556577Y-35823451D01*
X119496965Y-35860328D01*
X119457858Y-35883647D01*
X119442390Y-35891486D01*
X119427245Y-35881658D01*
X119390333Y-35854017D01*
X119334504Y-35810802D01*
X119262606Y-35754252D01*
X119177489Y-35686609D01*
X119081999Y-35610112D01*
X118981116Y-35528727D01*
X118877944Y-35445271D01*
X118782215Y-35367941D01*
X118696817Y-35299060D01*
X118624636Y-35240953D01*
X118568558Y-35195943D01*
X118531470Y-35166355D01*
X118516383Y-35154596D01*
X118509698Y-35160917D01*
X118513057Y-35194069D01*
X118522165Y-35235161D01*
X118532120Y-35273726D01*
X118549104Y-35338279D01*
X118571876Y-35424154D01*
X118599193Y-35526683D01*
X118629815Y-35641200D01*
X118662499Y-35763039D01*
X118674758Y-35808639D01*
X118706321Y-35927559D01*
X118734552Y-36037007D01*
X118758521Y-36133128D01*
X118777297Y-36212068D01*
X118789951Y-36269970D01*
X118795552Y-36302980D01*
X118795455Y-36308867D01*
X118780556Y-36321665D01*
X118741955Y-36349539D01*
X118682689Y-36390442D01*
X118605794Y-36442323D01*
X118514305Y-36503137D01*
X118411258Y-36570833D01*
X118299744Y-36643328D01*
X118188613Y-36715517D01*
X118086354Y-36782531D01*
X117995938Y-36842381D01*
X117920332Y-36893076D01*
X117862503Y-36932626D01*
X117825421Y-36959041D01*
X117812053Y-36970331D01*
X117812048Y-36970372D01*
X117827184Y-36973867D01*
X117870583Y-36978637D01*
X117938793Y-36984432D01*
X118028365Y-36991000D01*
X118135847Y-36998091D01*
X118257788Y-37005453D01*
X118390739Y-37012836D01*
X118409873Y-37013849D01*
X119008327Y-37045325D01*
X119160453Y-37617521D01*
X119195028Y-37746684D01*
X119227333Y-37865676D01*
X119256418Y-37971126D01*
X119281332Y-38059660D01*
X119301128Y-38127907D01*
X119314854Y-38172499D01*
X119321561Y-38190060D01*
X119321792Y-38190199D01*
X119329332Y-38176004D01*
D13*
%TO.C,POWER1*%
X122020000Y-76700000D02*
X123020000Y-77200000D01*
X122020000Y-77700000D02*
X122020000Y-76700000D01*
X123020000Y-77200000D02*
X122020000Y-77700000D01*
X124720000Y-70070000D02*
X123410000Y-70070000D01*
X124720000Y-70070000D02*
X124720000Y-70070000D01*
X124720000Y-63130000D02*
X124720000Y-70070000D01*
X131220000Y-63130000D02*
X124720000Y-63130000D01*
X131220000Y-81110000D02*
X131220000Y-63130000D01*
X124720000Y-81110000D02*
X131220000Y-81110000D01*
X124720000Y-74170000D02*
X124720000Y-81110000D01*
X123410000Y-74170000D02*
X124720000Y-74170000D01*
X123410000Y-61830000D02*
X123410000Y-82410000D01*
X132530000Y-61830000D02*
X123410000Y-61830000D01*
X132530000Y-82410000D02*
X132530000Y-61830000D01*
X123410000Y-82410000D02*
X132530000Y-82410000D01*
D10*
%TO.C,NOISE1*%
X128200000Y-164300000D02*
X123300000Y-164300000D01*
D14*
G36*
X126000000Y-162300000D02*
G01*
X128200000Y-162300000D01*
X128200000Y-164100000D01*
X126000000Y-164100000D01*
X126000000Y-162300000D01*
G37*
X126000000Y-162300000D02*
X128200000Y-162300000D01*
X128200000Y-164100000D01*
X126000000Y-164100000D01*
X126000000Y-162300000D01*
D10*
X123100000Y-164300000D02*
X118200000Y-164300000D01*
X118200000Y-164300000D02*
X118200000Y-162300000D01*
X119500000Y-180500000D02*
X115500000Y-176500000D01*
X123300000Y-164300000D02*
X123300000Y-162300000D01*
D14*
G36*
X120900000Y-162300000D02*
G01*
X123100000Y-162300000D01*
X123100000Y-164100000D01*
X120900000Y-164100000D01*
X120900000Y-162300000D01*
G37*
X120900000Y-162300000D02*
X123100000Y-162300000D01*
X123100000Y-164100000D01*
X120900000Y-164100000D01*
X120900000Y-162300000D01*
D10*
%TO.C,OUT1*%
X128200000Y-192300000D02*
X123300000Y-192300000D01*
D14*
G36*
X126000000Y-190300000D02*
G01*
X128200000Y-190300000D01*
X128200000Y-192100000D01*
X126000000Y-192100000D01*
X126000000Y-190300000D01*
G37*
X126000000Y-190300000D02*
X128200000Y-190300000D01*
X128200000Y-192100000D01*
X126000000Y-192100000D01*
X126000000Y-190300000D01*
D10*
X123100000Y-192300000D02*
X118200000Y-192300000D01*
X118200000Y-192300000D02*
X118200000Y-190300000D01*
X119500000Y-208500000D02*
X115500000Y-204500000D01*
X123300000Y-192300000D02*
X123300000Y-190300000D01*
D14*
G36*
X120900000Y-190300000D02*
G01*
X123100000Y-190300000D01*
X123100000Y-192100000D01*
X120900000Y-192100000D01*
X120900000Y-190300000D01*
G37*
X120900000Y-190300000D02*
X123100000Y-190300000D01*
X123100000Y-192100000D01*
X120900000Y-192100000D01*
X120900000Y-190300000D01*
D10*
%TO.C,IN1*%
X102200000Y-192300000D02*
X97300000Y-192300000D01*
D14*
G36*
X100000000Y-190300000D02*
G01*
X102200000Y-190300000D01*
X102200000Y-192100000D01*
X100000000Y-192100000D01*
X100000000Y-190300000D01*
G37*
X100000000Y-190300000D02*
X102200000Y-190300000D01*
X102200000Y-192100000D01*
X100000000Y-192100000D01*
X100000000Y-190300000D01*
D10*
X97100000Y-192300000D02*
X92200000Y-192300000D01*
X92200000Y-192300000D02*
X92200000Y-190300000D01*
X93500000Y-208500000D02*
X89500000Y-204500000D01*
X97300000Y-192300000D02*
X97300000Y-190300000D01*
D14*
G36*
X94900000Y-190300000D02*
G01*
X97100000Y-190300000D01*
X97100000Y-192100000D01*
X94900000Y-192100000D01*
X94900000Y-190300000D01*
G37*
X94900000Y-190300000D02*
X97100000Y-190300000D01*
X97100000Y-192100000D01*
X94900000Y-192100000D01*
X94900000Y-190300000D01*
D10*
%TO.C,TRIG1*%
X102200000Y-164300000D02*
X97300000Y-164300000D01*
D14*
G36*
X100000000Y-162300000D02*
G01*
X102200000Y-162300000D01*
X102200000Y-164100000D01*
X100000000Y-164100000D01*
X100000000Y-162300000D01*
G37*
X100000000Y-162300000D02*
X102200000Y-162300000D01*
X102200000Y-164100000D01*
X100000000Y-164100000D01*
X100000000Y-162300000D01*
D10*
X97100000Y-164300000D02*
X92200000Y-164300000D01*
X92200000Y-164300000D02*
X92200000Y-162300000D01*
X93500000Y-180500000D02*
X89500000Y-176500000D01*
X97300000Y-164300000D02*
X97300000Y-162300000D01*
D14*
G36*
X94900000Y-162300000D02*
G01*
X97100000Y-162300000D01*
X97100000Y-164100000D01*
X94900000Y-164100000D01*
X94900000Y-162300000D01*
G37*
X94900000Y-162300000D02*
X97100000Y-162300000D01*
X97100000Y-164100000D01*
X94900000Y-164100000D01*
X94900000Y-162300000D01*
%TO.C,POWER1*%
D10*
X132409523Y-84352380D02*
X132409523Y-83352380D01*
X132028571Y-83352380D01*
X131933333Y-83400000D01*
X131885714Y-83447619D01*
X131838095Y-83542857D01*
X131838095Y-83685714D01*
X131885714Y-83780952D01*
X131933333Y-83828571D01*
X132028571Y-83876190D01*
X132409523Y-83876190D01*
X131219047Y-83352380D02*
X131028571Y-83352380D01*
X130933333Y-83400000D01*
X130838095Y-83495238D01*
X130790476Y-83685714D01*
X130790476Y-84019047D01*
X130838095Y-84209523D01*
X130933333Y-84304761D01*
X131028571Y-84352380D01*
X131219047Y-84352380D01*
X131314285Y-84304761D01*
X131409523Y-84209523D01*
X131457142Y-84019047D01*
X131457142Y-83685714D01*
X131409523Y-83495238D01*
X131314285Y-83400000D01*
X131219047Y-83352380D01*
X130457142Y-83352380D02*
X130219047Y-84352380D01*
X130028571Y-83638095D01*
X129838095Y-84352380D01*
X129600000Y-83352380D01*
X129219047Y-83828571D02*
X128885714Y-83828571D01*
X128742857Y-84352380D02*
X129219047Y-84352380D01*
X129219047Y-83352380D01*
X128742857Y-83352380D01*
X127742857Y-84352380D02*
X128076190Y-83876190D01*
X128314285Y-84352380D02*
X128314285Y-83352380D01*
X127933333Y-83352380D01*
X127838095Y-83400000D01*
X127790476Y-83447619D01*
X127742857Y-83542857D01*
X127742857Y-83685714D01*
X127790476Y-83780952D01*
X127838095Y-83828571D01*
X127933333Y-83876190D01*
X128314285Y-83876190D01*
%TO.C,NOISE1*%
X130752380Y-180252380D02*
X130752380Y-179252380D01*
X130180952Y-180252380D01*
X130180952Y-179252380D01*
X129514285Y-179252380D02*
X129323809Y-179252380D01*
X129228571Y-179300000D01*
X129133333Y-179395238D01*
X129085714Y-179585714D01*
X129085714Y-179919047D01*
X129133333Y-180109523D01*
X129228571Y-180204761D01*
X129323809Y-180252380D01*
X129514285Y-180252380D01*
X129609523Y-180204761D01*
X129704761Y-180109523D01*
X129752380Y-179919047D01*
X129752380Y-179585714D01*
X129704761Y-179395238D01*
X129609523Y-179300000D01*
X129514285Y-179252380D01*
X128657142Y-180252380D02*
X128657142Y-179252380D01*
X128228571Y-180204761D02*
X128085714Y-180252380D01*
X127847619Y-180252380D01*
X127752380Y-180204761D01*
X127704761Y-180157142D01*
X127657142Y-180061904D01*
X127657142Y-179966666D01*
X127704761Y-179871428D01*
X127752380Y-179823809D01*
X127847619Y-179776190D01*
X128038095Y-179728571D01*
X128133333Y-179680952D01*
X128180952Y-179633333D01*
X128228571Y-179538095D01*
X128228571Y-179442857D01*
X128180952Y-179347619D01*
X128133333Y-179300000D01*
X128038095Y-179252380D01*
X127800000Y-179252380D01*
X127657142Y-179300000D01*
X127228571Y-179728571D02*
X126895238Y-179728571D01*
X126752380Y-180252380D02*
X127228571Y-180252380D01*
X127228571Y-179252380D01*
X126752380Y-179252380D01*
X125800000Y-180252380D02*
X126371428Y-180252380D01*
X126085714Y-180252380D02*
X126085714Y-179252380D01*
X126180952Y-179395238D01*
X126276190Y-179490476D01*
X126371428Y-179538095D01*
%TO.C,OUT1*%
X129776190Y-207252380D02*
X129585714Y-207252380D01*
X129490476Y-207300000D01*
X129395238Y-207395238D01*
X129347619Y-207585714D01*
X129347619Y-207919047D01*
X129395238Y-208109523D01*
X129490476Y-208204761D01*
X129585714Y-208252380D01*
X129776190Y-208252380D01*
X129871428Y-208204761D01*
X129966666Y-208109523D01*
X130014285Y-207919047D01*
X130014285Y-207585714D01*
X129966666Y-207395238D01*
X129871428Y-207300000D01*
X129776190Y-207252380D01*
X128919047Y-207252380D02*
X128919047Y-208061904D01*
X128871428Y-208157142D01*
X128823809Y-208204761D01*
X128728571Y-208252380D01*
X128538095Y-208252380D01*
X128442857Y-208204761D01*
X128395238Y-208157142D01*
X128347619Y-208061904D01*
X128347619Y-207252380D01*
X128014285Y-207252380D02*
X127442857Y-207252380D01*
X127728571Y-208252380D02*
X127728571Y-207252380D01*
X126585714Y-208252380D02*
X127157142Y-208252380D01*
X126871428Y-208252380D02*
X126871428Y-207252380D01*
X126966666Y-207395238D01*
X127061904Y-207490476D01*
X127157142Y-207538095D01*
%TO.C,IN1*%
X103300000Y-208252380D02*
X103300000Y-207252380D01*
X102823809Y-208252380D02*
X102823809Y-207252380D01*
X102252380Y-208252380D01*
X102252380Y-207252380D01*
X101252380Y-208252380D02*
X101823809Y-208252380D01*
X101538095Y-208252380D02*
X101538095Y-207252380D01*
X101633333Y-207395238D01*
X101728571Y-207490476D01*
X101823809Y-207538095D01*
%TO.C,TRIG1*%
X104300000Y-179252380D02*
X103728571Y-179252380D01*
X104014285Y-180252380D02*
X104014285Y-179252380D01*
X102823809Y-180252380D02*
X103157142Y-179776190D01*
X103395238Y-180252380D02*
X103395238Y-179252380D01*
X103014285Y-179252380D01*
X102919047Y-179300000D01*
X102871428Y-179347619D01*
X102823809Y-179442857D01*
X102823809Y-179585714D01*
X102871428Y-179680952D01*
X102919047Y-179728571D01*
X103014285Y-179776190D01*
X103395238Y-179776190D01*
X102395238Y-180252380D02*
X102395238Y-179252380D01*
X101395238Y-179300000D02*
X101490476Y-179252380D01*
X101633333Y-179252380D01*
X101776190Y-179300000D01*
X101871428Y-179395238D01*
X101919047Y-179490476D01*
X101966666Y-179680952D01*
X101966666Y-179823809D01*
X101919047Y-180014285D01*
X101871428Y-180109523D01*
X101776190Y-180204761D01*
X101633333Y-180252380D01*
X101538095Y-180252380D01*
X101395238Y-180204761D01*
X101347619Y-180157142D01*
X101347619Y-179823809D01*
X101538095Y-179823809D01*
X100395238Y-180252380D02*
X100966666Y-180252380D01*
X100680952Y-180252380D02*
X100680952Y-179252380D01*
X100776190Y-179395238D01*
X100871428Y-179490476D01*
X100966666Y-179538095D01*
%TD*%
M02*
