%TF.GenerationSoftware,KiCad,Pcbnew,5.1.9-73d0e3b20d~88~ubuntu20.10.1*%
%TF.CreationDate,2021-03-12T20:59:03+01:00*%
%TF.ProjectId,kosmo-sample-and-hold,6b6f736d-6f2d-4736-916d-706c652d616e,v1.0.0*%
%TF.SameCoordinates,Original*%
%TF.FileFunction,Soldermask,Bot*%
%TF.FilePolarity,Negative*%
%FSLAX46Y46*%
G04 Gerber Fmt 4.6, Leading zero omitted, Abs format (unit mm)*
G04 Created by KiCad (PCBNEW 5.1.9-73d0e3b20d~88~ubuntu20.10.1) date 2021-03-12 20:59:03*
%MOMM*%
%LPD*%
G01*
G04 APERTURE LIST*
%ADD10C,2.340000*%
%ADD11O,1.600000X1.600000*%
%ADD12C,1.600000*%
%ADD13C,1.700000*%
%ADD14R,1.600000X1.600000*%
%ADD15C,1.750000*%
%ADD16O,6.800000X4.000000*%
%ADD17O,2.400000X1.600000*%
%ADD18R,2.400000X1.600000*%
%ADD19R,1.500000X1.500000*%
%ADD20C,1.500000*%
G04 APERTURE END LIST*
D10*
%TO.C,GAIN1*%
X129000000Y-97000000D03*
X124000000Y-94500000D03*
X129000000Y-92000000D03*
%TD*%
D11*
%TO.C,R16*%
X104040000Y-74500000D03*
D12*
X114200000Y-74500000D03*
%TD*%
D11*
%TO.C,R15*%
X109840000Y-69300000D03*
D12*
X120000000Y-69300000D03*
%TD*%
D13*
%TO.C,POWER1*%
X129240000Y-67040000D03*
X129240000Y-69580000D03*
X129240000Y-72120000D03*
X129240000Y-74660000D03*
X129240000Y-77200000D03*
X126700000Y-67040000D03*
X126700000Y-69580000D03*
X126700000Y-72120000D03*
X126700000Y-74660000D03*
G36*
G01*
X125850000Y-77800000D02*
X125850000Y-76600000D01*
G75*
G02*
X126100000Y-76350000I250000J0D01*
G01*
X127300000Y-76350000D01*
G75*
G02*
X127550000Y-76600000I0J-250000D01*
G01*
X127550000Y-77800000D01*
G75*
G02*
X127300000Y-78050000I-250000J0D01*
G01*
X126100000Y-78050000D01*
G75*
G02*
X125850000Y-77800000I0J250000D01*
G01*
G37*
%TD*%
D12*
%TO.C,C8*%
X114200000Y-107500000D03*
X109200000Y-107500000D03*
%TD*%
%TO.C,C7*%
X91500000Y-69000000D03*
D14*
X89000000Y-69000000D03*
%TD*%
D12*
%TO.C,C6*%
X95700000Y-72500000D03*
D14*
X98200000Y-72500000D03*
%TD*%
D15*
%TO.C,NOISE1*%
X121750000Y-163205000D03*
X126830000Y-163205000D03*
X119210000Y-163205000D03*
X124290000Y-163205000D03*
%TD*%
%TO.C,OUT1*%
X121750000Y-191205000D03*
X126830000Y-191205000D03*
X119210000Y-191205000D03*
X124290000Y-191205000D03*
%TD*%
%TO.C,IN1*%
X95750000Y-191205000D03*
X100830000Y-191205000D03*
X93210000Y-191205000D03*
X98290000Y-191205000D03*
%TD*%
%TO.C,TRIG1*%
X95750000Y-163205000D03*
X100830000Y-163205000D03*
X93210000Y-163205000D03*
X98290000Y-163205000D03*
%TD*%
D16*
%TO.C,REF\u002A\u002A*%
X130572961Y-32998051D03*
X130572961Y-226998051D03*
%TD*%
%TO.C,REF\u002A\u002A*%
X89425654Y-33015821D03*
X89425654Y-227015821D03*
%TD*%
D17*
%TO.C,U1*%
X115820000Y-112500000D03*
X108200000Y-127740000D03*
X115820000Y-115040000D03*
X108200000Y-125200000D03*
X115820000Y-117580000D03*
X108200000Y-122660000D03*
X115820000Y-120120000D03*
X108200000Y-120120000D03*
X115820000Y-122660000D03*
X108200000Y-117580000D03*
X115820000Y-125200000D03*
X108200000Y-115040000D03*
X115820000Y-127740000D03*
D18*
X108200000Y-112500000D03*
%TD*%
D11*
%TO.C,R14*%
X128000000Y-151160000D03*
D12*
X128000000Y-141000000D03*
%TD*%
D11*
%TO.C,R13*%
X122000000Y-157160000D03*
D12*
X122000000Y-147000000D03*
%TD*%
D11*
%TO.C,R12*%
X123000000Y-112560000D03*
D12*
X123000000Y-102400000D03*
%TD*%
D11*
%TO.C,R11*%
X127800000Y-102440000D03*
D12*
X127800000Y-112600000D03*
%TD*%
D11*
%TO.C,R10*%
X120200000Y-91660000D03*
D12*
X120200000Y-81500000D03*
%TD*%
D11*
%TO.C,R9*%
X103200000Y-81340000D03*
D12*
X103200000Y-91500000D03*
%TD*%
D11*
%TO.C,R8*%
X106440000Y-140700000D03*
D12*
X116600000Y-140700000D03*
%TD*%
D11*
%TO.C,R7*%
X98200000Y-88660000D03*
D12*
X98200000Y-78500000D03*
%TD*%
D11*
%TO.C,R6*%
X107200000Y-94540000D03*
D12*
X107200000Y-104700000D03*
%TD*%
D11*
%TO.C,R5*%
X116200000Y-104660000D03*
D12*
X116200000Y-94500000D03*
%TD*%
D11*
%TO.C,R4*%
X103300000Y-146740000D03*
D12*
X103300000Y-156900000D03*
%TD*%
D11*
%TO.C,R3*%
X92000000Y-140840000D03*
D12*
X92000000Y-151000000D03*
%TD*%
D11*
%TO.C,R2*%
X100200000Y-102340000D03*
D12*
X100200000Y-112500000D03*
%TD*%
D11*
%TO.C,R1*%
X97700000Y-153860000D03*
D12*
X97700000Y-143700000D03*
%TD*%
D19*
%TO.C,Q2*%
X109200000Y-81500000D03*
D20*
X114280000Y-81500000D03*
X111740000Y-81500000D03*
%TD*%
D19*
%TO.C,Q1*%
X114200000Y-134500000D03*
D20*
X109120000Y-134500000D03*
X111660000Y-134500000D03*
%TD*%
D11*
%TO.C,D2*%
X100200000Y-133120000D03*
D14*
X100200000Y-125500000D03*
%TD*%
D11*
%TO.C,D1*%
X94200000Y-133120000D03*
D14*
X94200000Y-125500000D03*
%TD*%
D12*
%TO.C,C4*%
X125400000Y-122700000D03*
X120400000Y-122700000D03*
%TD*%
%TO.C,C3*%
X112900000Y-89900000D03*
D14*
X110400000Y-89900000D03*
%TD*%
D12*
%TO.C,C2*%
X91700000Y-95500000D03*
D14*
X94200000Y-95500000D03*
%TD*%
D12*
%TO.C,C1*%
X95200000Y-117500000D03*
X100200000Y-117500000D03*
%TD*%
M02*
