%TF.GenerationSoftware,KiCad,Pcbnew,5.1.10-88a1d61d58~90~ubuntu21.04.1*%
%TF.CreationDate,2021-10-26T22:35:56+02:00*%
%TF.ProjectId,kosmo-sample-and-hold,6b6f736d-6f2d-4736-916d-706c652d616e,v1.0.1*%
%TF.SameCoordinates,Original*%
%TF.FileFunction,Legend,Top*%
%TF.FilePolarity,Positive*%
%FSLAX46Y46*%
G04 Gerber Fmt 4.6, Leading zero omitted, Abs format (unit mm)*
G04 Created by KiCad (PCBNEW 5.1.10-88a1d61d58~90~ubuntu21.04.1) date 2021-10-26 22:35:56*
%MOMM*%
%LPD*%
G01*
G04 APERTURE LIST*
%ADD10C,0.120000*%
%ADD11C,0.150000*%
G04 APERTURE END LIST*
D10*
%TO.C,Q2*%
X111135816Y-79877205D02*
G75*
G02*
X111660000Y-79150000I2324184J-1122795D01*
G01*
X111103600Y-82098807D02*
G75*
G03*
X113460000Y-83600000I2356400J1098807D01*
G01*
X115816400Y-82098807D02*
G75*
G02*
X113460000Y-83600000I-2356400J1098807D01*
G01*
X115784184Y-79877205D02*
G75*
G03*
X115260000Y-79150000I-2324184J-1122795D01*
G01*
X115260000Y-79150000D02*
X111660000Y-79150000D01*
%TO.C,R16*%
X112390000Y-75870000D02*
X112390000Y-73130000D01*
X112390000Y-73130000D02*
X105850000Y-73130000D01*
X105850000Y-73130000D02*
X105850000Y-75870000D01*
X105850000Y-75870000D02*
X112390000Y-75870000D01*
X113160000Y-74500000D02*
X112390000Y-74500000D01*
X105080000Y-74500000D02*
X105850000Y-74500000D01*
%TO.C,R15*%
X118190000Y-70670000D02*
X118190000Y-67930000D01*
X118190000Y-67930000D02*
X111650000Y-67930000D01*
X111650000Y-67930000D02*
X111650000Y-70670000D01*
X111650000Y-70670000D02*
X118190000Y-70670000D01*
X118960000Y-69300000D02*
X118190000Y-69300000D01*
X110880000Y-69300000D02*
X111650000Y-69300000D01*
%TO.C,C8*%
X109080000Y-106130000D02*
X114320000Y-106130000D01*
X109080000Y-108870000D02*
X114320000Y-108870000D01*
X109080000Y-106130000D02*
X109080000Y-106445000D01*
X109080000Y-108555000D02*
X109080000Y-108870000D01*
X114320000Y-106130000D02*
X114320000Y-106445000D01*
X114320000Y-108555000D02*
X114320000Y-108870000D01*
%TO.C,C7*%
X92870000Y-69000000D02*
G75*
G03*
X92870000Y-69000000I-2620000J0D01*
G01*
X90250000Y-66420000D02*
X90250000Y-71580000D01*
X90290000Y-66420000D02*
X90290000Y-71580000D01*
X90330000Y-66421000D02*
X90330000Y-71579000D01*
X90370000Y-66422000D02*
X90370000Y-71578000D01*
X90410000Y-66424000D02*
X90410000Y-71576000D01*
X90450000Y-66427000D02*
X90450000Y-71573000D01*
X90490000Y-66431000D02*
X90490000Y-67960000D01*
X90490000Y-70040000D02*
X90490000Y-71569000D01*
X90530000Y-66435000D02*
X90530000Y-67960000D01*
X90530000Y-70040000D02*
X90530000Y-71565000D01*
X90570000Y-66439000D02*
X90570000Y-67960000D01*
X90570000Y-70040000D02*
X90570000Y-71561000D01*
X90610000Y-66444000D02*
X90610000Y-67960000D01*
X90610000Y-70040000D02*
X90610000Y-71556000D01*
X90650000Y-66450000D02*
X90650000Y-67960000D01*
X90650000Y-70040000D02*
X90650000Y-71550000D01*
X90690000Y-66457000D02*
X90690000Y-67960000D01*
X90690000Y-70040000D02*
X90690000Y-71543000D01*
X90730000Y-66464000D02*
X90730000Y-67960000D01*
X90730000Y-70040000D02*
X90730000Y-71536000D01*
X90770000Y-66472000D02*
X90770000Y-67960000D01*
X90770000Y-70040000D02*
X90770000Y-71528000D01*
X90810000Y-66480000D02*
X90810000Y-67960000D01*
X90810000Y-70040000D02*
X90810000Y-71520000D01*
X90850000Y-66489000D02*
X90850000Y-67960000D01*
X90850000Y-70040000D02*
X90850000Y-71511000D01*
X90890000Y-66499000D02*
X90890000Y-67960000D01*
X90890000Y-70040000D02*
X90890000Y-71501000D01*
X90930000Y-66509000D02*
X90930000Y-67960000D01*
X90930000Y-70040000D02*
X90930000Y-71491000D01*
X90971000Y-66520000D02*
X90971000Y-67960000D01*
X90971000Y-70040000D02*
X90971000Y-71480000D01*
X91011000Y-66532000D02*
X91011000Y-67960000D01*
X91011000Y-70040000D02*
X91011000Y-71468000D01*
X91051000Y-66545000D02*
X91051000Y-67960000D01*
X91051000Y-70040000D02*
X91051000Y-71455000D01*
X91091000Y-66558000D02*
X91091000Y-67960000D01*
X91091000Y-70040000D02*
X91091000Y-71442000D01*
X91131000Y-66572000D02*
X91131000Y-67960000D01*
X91131000Y-70040000D02*
X91131000Y-71428000D01*
X91171000Y-66586000D02*
X91171000Y-67960000D01*
X91171000Y-70040000D02*
X91171000Y-71414000D01*
X91211000Y-66602000D02*
X91211000Y-67960000D01*
X91211000Y-70040000D02*
X91211000Y-71398000D01*
X91251000Y-66618000D02*
X91251000Y-67960000D01*
X91251000Y-70040000D02*
X91251000Y-71382000D01*
X91291000Y-66635000D02*
X91291000Y-67960000D01*
X91291000Y-70040000D02*
X91291000Y-71365000D01*
X91331000Y-66652000D02*
X91331000Y-67960000D01*
X91331000Y-70040000D02*
X91331000Y-71348000D01*
X91371000Y-66671000D02*
X91371000Y-67960000D01*
X91371000Y-70040000D02*
X91371000Y-71329000D01*
X91411000Y-66690000D02*
X91411000Y-67960000D01*
X91411000Y-70040000D02*
X91411000Y-71310000D01*
X91451000Y-66710000D02*
X91451000Y-67960000D01*
X91451000Y-70040000D02*
X91451000Y-71290000D01*
X91491000Y-66732000D02*
X91491000Y-67960000D01*
X91491000Y-70040000D02*
X91491000Y-71268000D01*
X91531000Y-66753000D02*
X91531000Y-67960000D01*
X91531000Y-70040000D02*
X91531000Y-71247000D01*
X91571000Y-66776000D02*
X91571000Y-67960000D01*
X91571000Y-70040000D02*
X91571000Y-71224000D01*
X91611000Y-66800000D02*
X91611000Y-67960000D01*
X91611000Y-70040000D02*
X91611000Y-71200000D01*
X91651000Y-66825000D02*
X91651000Y-67960000D01*
X91651000Y-70040000D02*
X91651000Y-71175000D01*
X91691000Y-66851000D02*
X91691000Y-67960000D01*
X91691000Y-70040000D02*
X91691000Y-71149000D01*
X91731000Y-66878000D02*
X91731000Y-67960000D01*
X91731000Y-70040000D02*
X91731000Y-71122000D01*
X91771000Y-66905000D02*
X91771000Y-67960000D01*
X91771000Y-70040000D02*
X91771000Y-71095000D01*
X91811000Y-66935000D02*
X91811000Y-67960000D01*
X91811000Y-70040000D02*
X91811000Y-71065000D01*
X91851000Y-66965000D02*
X91851000Y-67960000D01*
X91851000Y-70040000D02*
X91851000Y-71035000D01*
X91891000Y-66996000D02*
X91891000Y-67960000D01*
X91891000Y-70040000D02*
X91891000Y-71004000D01*
X91931000Y-67029000D02*
X91931000Y-67960000D01*
X91931000Y-70040000D02*
X91931000Y-70971000D01*
X91971000Y-67063000D02*
X91971000Y-67960000D01*
X91971000Y-70040000D02*
X91971000Y-70937000D01*
X92011000Y-67099000D02*
X92011000Y-67960000D01*
X92011000Y-70040000D02*
X92011000Y-70901000D01*
X92051000Y-67136000D02*
X92051000Y-67960000D01*
X92051000Y-70040000D02*
X92051000Y-70864000D01*
X92091000Y-67174000D02*
X92091000Y-67960000D01*
X92091000Y-70040000D02*
X92091000Y-70826000D01*
X92131000Y-67215000D02*
X92131000Y-67960000D01*
X92131000Y-70040000D02*
X92131000Y-70785000D01*
X92171000Y-67257000D02*
X92171000Y-67960000D01*
X92171000Y-70040000D02*
X92171000Y-70743000D01*
X92211000Y-67301000D02*
X92211000Y-67960000D01*
X92211000Y-70040000D02*
X92211000Y-70699000D01*
X92251000Y-67347000D02*
X92251000Y-67960000D01*
X92251000Y-70040000D02*
X92251000Y-70653000D01*
X92291000Y-67395000D02*
X92291000Y-67960000D01*
X92291000Y-70040000D02*
X92291000Y-70605000D01*
X92331000Y-67446000D02*
X92331000Y-67960000D01*
X92331000Y-70040000D02*
X92331000Y-70554000D01*
X92371000Y-67500000D02*
X92371000Y-67960000D01*
X92371000Y-70040000D02*
X92371000Y-70500000D01*
X92411000Y-67557000D02*
X92411000Y-67960000D01*
X92411000Y-70040000D02*
X92411000Y-70443000D01*
X92451000Y-67617000D02*
X92451000Y-67960000D01*
X92451000Y-70040000D02*
X92451000Y-70383000D01*
X92491000Y-67681000D02*
X92491000Y-67960000D01*
X92491000Y-70040000D02*
X92491000Y-70319000D01*
X92531000Y-67749000D02*
X92531000Y-67960000D01*
X92531000Y-70040000D02*
X92531000Y-70251000D01*
X92571000Y-67822000D02*
X92571000Y-70178000D01*
X92611000Y-67902000D02*
X92611000Y-70098000D01*
X92651000Y-67989000D02*
X92651000Y-70011000D01*
X92691000Y-68085000D02*
X92691000Y-69915000D01*
X92731000Y-68195000D02*
X92731000Y-69805000D01*
X92771000Y-68323000D02*
X92771000Y-69677000D01*
X92811000Y-68482000D02*
X92811000Y-69518000D01*
X92851000Y-68716000D02*
X92851000Y-69284000D01*
X87445225Y-67525000D02*
X87945225Y-67525000D01*
X87695225Y-67275000D02*
X87695225Y-67775000D01*
%TO.C,C6*%
X99570000Y-72500000D02*
G75*
G03*
X99570000Y-72500000I-2620000J0D01*
G01*
X96950000Y-75080000D02*
X96950000Y-69920000D01*
X96910000Y-75080000D02*
X96910000Y-69920000D01*
X96870000Y-75079000D02*
X96870000Y-69921000D01*
X96830000Y-75078000D02*
X96830000Y-69922000D01*
X96790000Y-75076000D02*
X96790000Y-69924000D01*
X96750000Y-75073000D02*
X96750000Y-69927000D01*
X96710000Y-75069000D02*
X96710000Y-73540000D01*
X96710000Y-71460000D02*
X96710000Y-69931000D01*
X96670000Y-75065000D02*
X96670000Y-73540000D01*
X96670000Y-71460000D02*
X96670000Y-69935000D01*
X96630000Y-75061000D02*
X96630000Y-73540000D01*
X96630000Y-71460000D02*
X96630000Y-69939000D01*
X96590000Y-75056000D02*
X96590000Y-73540000D01*
X96590000Y-71460000D02*
X96590000Y-69944000D01*
X96550000Y-75050000D02*
X96550000Y-73540000D01*
X96550000Y-71460000D02*
X96550000Y-69950000D01*
X96510000Y-75043000D02*
X96510000Y-73540000D01*
X96510000Y-71460000D02*
X96510000Y-69957000D01*
X96470000Y-75036000D02*
X96470000Y-73540000D01*
X96470000Y-71460000D02*
X96470000Y-69964000D01*
X96430000Y-75028000D02*
X96430000Y-73540000D01*
X96430000Y-71460000D02*
X96430000Y-69972000D01*
X96390000Y-75020000D02*
X96390000Y-73540000D01*
X96390000Y-71460000D02*
X96390000Y-69980000D01*
X96350000Y-75011000D02*
X96350000Y-73540000D01*
X96350000Y-71460000D02*
X96350000Y-69989000D01*
X96310000Y-75001000D02*
X96310000Y-73540000D01*
X96310000Y-71460000D02*
X96310000Y-69999000D01*
X96270000Y-74991000D02*
X96270000Y-73540000D01*
X96270000Y-71460000D02*
X96270000Y-70009000D01*
X96229000Y-74980000D02*
X96229000Y-73540000D01*
X96229000Y-71460000D02*
X96229000Y-70020000D01*
X96189000Y-74968000D02*
X96189000Y-73540000D01*
X96189000Y-71460000D02*
X96189000Y-70032000D01*
X96149000Y-74955000D02*
X96149000Y-73540000D01*
X96149000Y-71460000D02*
X96149000Y-70045000D01*
X96109000Y-74942000D02*
X96109000Y-73540000D01*
X96109000Y-71460000D02*
X96109000Y-70058000D01*
X96069000Y-74928000D02*
X96069000Y-73540000D01*
X96069000Y-71460000D02*
X96069000Y-70072000D01*
X96029000Y-74914000D02*
X96029000Y-73540000D01*
X96029000Y-71460000D02*
X96029000Y-70086000D01*
X95989000Y-74898000D02*
X95989000Y-73540000D01*
X95989000Y-71460000D02*
X95989000Y-70102000D01*
X95949000Y-74882000D02*
X95949000Y-73540000D01*
X95949000Y-71460000D02*
X95949000Y-70118000D01*
X95909000Y-74865000D02*
X95909000Y-73540000D01*
X95909000Y-71460000D02*
X95909000Y-70135000D01*
X95869000Y-74848000D02*
X95869000Y-73540000D01*
X95869000Y-71460000D02*
X95869000Y-70152000D01*
X95829000Y-74829000D02*
X95829000Y-73540000D01*
X95829000Y-71460000D02*
X95829000Y-70171000D01*
X95789000Y-74810000D02*
X95789000Y-73540000D01*
X95789000Y-71460000D02*
X95789000Y-70190000D01*
X95749000Y-74790000D02*
X95749000Y-73540000D01*
X95749000Y-71460000D02*
X95749000Y-70210000D01*
X95709000Y-74768000D02*
X95709000Y-73540000D01*
X95709000Y-71460000D02*
X95709000Y-70232000D01*
X95669000Y-74747000D02*
X95669000Y-73540000D01*
X95669000Y-71460000D02*
X95669000Y-70253000D01*
X95629000Y-74724000D02*
X95629000Y-73540000D01*
X95629000Y-71460000D02*
X95629000Y-70276000D01*
X95589000Y-74700000D02*
X95589000Y-73540000D01*
X95589000Y-71460000D02*
X95589000Y-70300000D01*
X95549000Y-74675000D02*
X95549000Y-73540000D01*
X95549000Y-71460000D02*
X95549000Y-70325000D01*
X95509000Y-74649000D02*
X95509000Y-73540000D01*
X95509000Y-71460000D02*
X95509000Y-70351000D01*
X95469000Y-74622000D02*
X95469000Y-73540000D01*
X95469000Y-71460000D02*
X95469000Y-70378000D01*
X95429000Y-74595000D02*
X95429000Y-73540000D01*
X95429000Y-71460000D02*
X95429000Y-70405000D01*
X95389000Y-74565000D02*
X95389000Y-73540000D01*
X95389000Y-71460000D02*
X95389000Y-70435000D01*
X95349000Y-74535000D02*
X95349000Y-73540000D01*
X95349000Y-71460000D02*
X95349000Y-70465000D01*
X95309000Y-74504000D02*
X95309000Y-73540000D01*
X95309000Y-71460000D02*
X95309000Y-70496000D01*
X95269000Y-74471000D02*
X95269000Y-73540000D01*
X95269000Y-71460000D02*
X95269000Y-70529000D01*
X95229000Y-74437000D02*
X95229000Y-73540000D01*
X95229000Y-71460000D02*
X95229000Y-70563000D01*
X95189000Y-74401000D02*
X95189000Y-73540000D01*
X95189000Y-71460000D02*
X95189000Y-70599000D01*
X95149000Y-74364000D02*
X95149000Y-73540000D01*
X95149000Y-71460000D02*
X95149000Y-70636000D01*
X95109000Y-74326000D02*
X95109000Y-73540000D01*
X95109000Y-71460000D02*
X95109000Y-70674000D01*
X95069000Y-74285000D02*
X95069000Y-73540000D01*
X95069000Y-71460000D02*
X95069000Y-70715000D01*
X95029000Y-74243000D02*
X95029000Y-73540000D01*
X95029000Y-71460000D02*
X95029000Y-70757000D01*
X94989000Y-74199000D02*
X94989000Y-73540000D01*
X94989000Y-71460000D02*
X94989000Y-70801000D01*
X94949000Y-74153000D02*
X94949000Y-73540000D01*
X94949000Y-71460000D02*
X94949000Y-70847000D01*
X94909000Y-74105000D02*
X94909000Y-73540000D01*
X94909000Y-71460000D02*
X94909000Y-70895000D01*
X94869000Y-74054000D02*
X94869000Y-73540000D01*
X94869000Y-71460000D02*
X94869000Y-70946000D01*
X94829000Y-74000000D02*
X94829000Y-73540000D01*
X94829000Y-71460000D02*
X94829000Y-71000000D01*
X94789000Y-73943000D02*
X94789000Y-73540000D01*
X94789000Y-71460000D02*
X94789000Y-71057000D01*
X94749000Y-73883000D02*
X94749000Y-73540000D01*
X94749000Y-71460000D02*
X94749000Y-71117000D01*
X94709000Y-73819000D02*
X94709000Y-73540000D01*
X94709000Y-71460000D02*
X94709000Y-71181000D01*
X94669000Y-73751000D02*
X94669000Y-73540000D01*
X94669000Y-71460000D02*
X94669000Y-71249000D01*
X94629000Y-73678000D02*
X94629000Y-71322000D01*
X94589000Y-73598000D02*
X94589000Y-71402000D01*
X94549000Y-73511000D02*
X94549000Y-71489000D01*
X94509000Y-73415000D02*
X94509000Y-71585000D01*
X94469000Y-73305000D02*
X94469000Y-71695000D01*
X94429000Y-73177000D02*
X94429000Y-71823000D01*
X94389000Y-73018000D02*
X94389000Y-71982000D01*
X94349000Y-72784000D02*
X94349000Y-72216000D01*
X99754775Y-73975000D02*
X99254775Y-73975000D01*
X99504775Y-74225000D02*
X99504775Y-73725000D01*
%TO.C,U1*%
X111010000Y-111170000D02*
X109760000Y-111170000D01*
X109760000Y-111170000D02*
X109760000Y-129070000D01*
X109760000Y-129070000D02*
X114260000Y-129070000D01*
X114260000Y-129070000D02*
X114260000Y-111170000D01*
X114260000Y-111170000D02*
X113010000Y-111170000D01*
X106760000Y-111110000D02*
X106760000Y-129130000D01*
X106760000Y-129130000D02*
X117260000Y-129130000D01*
X117260000Y-129130000D02*
X117260000Y-111110000D01*
X117260000Y-111110000D02*
X106760000Y-111110000D01*
X113010000Y-111170000D02*
G75*
G02*
X111010000Y-111170000I-1000000J0D01*
G01*
%TO.C,R14*%
X129370000Y-142810000D02*
X126630000Y-142810000D01*
X126630000Y-142810000D02*
X126630000Y-149350000D01*
X126630000Y-149350000D02*
X129370000Y-149350000D01*
X129370000Y-149350000D02*
X129370000Y-142810000D01*
X128000000Y-142040000D02*
X128000000Y-142810000D01*
X128000000Y-150120000D02*
X128000000Y-149350000D01*
%TO.C,R13*%
X123370000Y-148810000D02*
X120630000Y-148810000D01*
X120630000Y-148810000D02*
X120630000Y-155350000D01*
X120630000Y-155350000D02*
X123370000Y-155350000D01*
X123370000Y-155350000D02*
X123370000Y-148810000D01*
X122000000Y-148040000D02*
X122000000Y-148810000D01*
X122000000Y-156120000D02*
X122000000Y-155350000D01*
%TO.C,R12*%
X124370000Y-104210000D02*
X121630000Y-104210000D01*
X121630000Y-104210000D02*
X121630000Y-110750000D01*
X121630000Y-110750000D02*
X124370000Y-110750000D01*
X124370000Y-110750000D02*
X124370000Y-104210000D01*
X123000000Y-103440000D02*
X123000000Y-104210000D01*
X123000000Y-111520000D02*
X123000000Y-110750000D01*
%TO.C,R11*%
X126430000Y-110790000D02*
X129170000Y-110790000D01*
X129170000Y-110790000D02*
X129170000Y-104250000D01*
X129170000Y-104250000D02*
X126430000Y-104250000D01*
X126430000Y-104250000D02*
X126430000Y-110790000D01*
X127800000Y-111560000D02*
X127800000Y-110790000D01*
X127800000Y-103480000D02*
X127800000Y-104250000D01*
%TO.C,R10*%
X121570000Y-83310000D02*
X118830000Y-83310000D01*
X118830000Y-83310000D02*
X118830000Y-89850000D01*
X118830000Y-89850000D02*
X121570000Y-89850000D01*
X121570000Y-89850000D02*
X121570000Y-83310000D01*
X120200000Y-82540000D02*
X120200000Y-83310000D01*
X120200000Y-90620000D02*
X120200000Y-89850000D01*
%TO.C,R9*%
X101830000Y-89690000D02*
X104570000Y-89690000D01*
X104570000Y-89690000D02*
X104570000Y-83150000D01*
X104570000Y-83150000D02*
X101830000Y-83150000D01*
X101830000Y-83150000D02*
X101830000Y-89690000D01*
X103200000Y-90460000D02*
X103200000Y-89690000D01*
X103200000Y-82380000D02*
X103200000Y-83150000D01*
%TO.C,R8*%
X114790000Y-142070000D02*
X114790000Y-139330000D01*
X114790000Y-139330000D02*
X108250000Y-139330000D01*
X108250000Y-139330000D02*
X108250000Y-142070000D01*
X108250000Y-142070000D02*
X114790000Y-142070000D01*
X115560000Y-140700000D02*
X114790000Y-140700000D01*
X107480000Y-140700000D02*
X108250000Y-140700000D01*
%TO.C,R7*%
X99570000Y-80310000D02*
X96830000Y-80310000D01*
X96830000Y-80310000D02*
X96830000Y-86850000D01*
X96830000Y-86850000D02*
X99570000Y-86850000D01*
X99570000Y-86850000D02*
X99570000Y-80310000D01*
X98200000Y-79540000D02*
X98200000Y-80310000D01*
X98200000Y-87620000D02*
X98200000Y-86850000D01*
%TO.C,R6*%
X105830000Y-102890000D02*
X108570000Y-102890000D01*
X108570000Y-102890000D02*
X108570000Y-96350000D01*
X108570000Y-96350000D02*
X105830000Y-96350000D01*
X105830000Y-96350000D02*
X105830000Y-102890000D01*
X107200000Y-103660000D02*
X107200000Y-102890000D01*
X107200000Y-95580000D02*
X107200000Y-96350000D01*
%TO.C,R5*%
X117570000Y-96310000D02*
X114830000Y-96310000D01*
X114830000Y-96310000D02*
X114830000Y-102850000D01*
X114830000Y-102850000D02*
X117570000Y-102850000D01*
X117570000Y-102850000D02*
X117570000Y-96310000D01*
X116200000Y-95540000D02*
X116200000Y-96310000D01*
X116200000Y-103620000D02*
X116200000Y-102850000D01*
%TO.C,R4*%
X101930000Y-155090000D02*
X104670000Y-155090000D01*
X104670000Y-155090000D02*
X104670000Y-148550000D01*
X104670000Y-148550000D02*
X101930000Y-148550000D01*
X101930000Y-148550000D02*
X101930000Y-155090000D01*
X103300000Y-155860000D02*
X103300000Y-155090000D01*
X103300000Y-147780000D02*
X103300000Y-148550000D01*
%TO.C,R3*%
X90630000Y-149190000D02*
X93370000Y-149190000D01*
X93370000Y-149190000D02*
X93370000Y-142650000D01*
X93370000Y-142650000D02*
X90630000Y-142650000D01*
X90630000Y-142650000D02*
X90630000Y-149190000D01*
X92000000Y-149960000D02*
X92000000Y-149190000D01*
X92000000Y-141880000D02*
X92000000Y-142650000D01*
%TO.C,R2*%
X98830000Y-110690000D02*
X101570000Y-110690000D01*
X101570000Y-110690000D02*
X101570000Y-104150000D01*
X101570000Y-104150000D02*
X98830000Y-104150000D01*
X98830000Y-104150000D02*
X98830000Y-110690000D01*
X100200000Y-111460000D02*
X100200000Y-110690000D01*
X100200000Y-103380000D02*
X100200000Y-104150000D01*
%TO.C,R1*%
X99070000Y-145510000D02*
X96330000Y-145510000D01*
X96330000Y-145510000D02*
X96330000Y-152050000D01*
X96330000Y-152050000D02*
X99070000Y-152050000D01*
X99070000Y-152050000D02*
X99070000Y-145510000D01*
X97700000Y-144740000D02*
X97700000Y-145510000D01*
X97700000Y-152820000D02*
X97700000Y-152050000D01*
%TO.C,Q1*%
X113460000Y-132650000D02*
X109860000Y-132650000D01*
X109335816Y-133377205D02*
G75*
G02*
X109860000Y-132650000I2324184J-1122795D01*
G01*
X109303600Y-135598807D02*
G75*
G03*
X111660000Y-137100000I2356400J1098807D01*
G01*
X114016400Y-135598807D02*
G75*
G02*
X111660000Y-137100000I-2356400J1098807D01*
G01*
X113984184Y-133377205D02*
G75*
G03*
X113460000Y-132650000I-2324184J-1122795D01*
G01*
%TO.C,D2*%
X101320000Y-127190000D02*
X99080000Y-127190000D01*
X99080000Y-127190000D02*
X99080000Y-131430000D01*
X99080000Y-131430000D02*
X101320000Y-131430000D01*
X101320000Y-131430000D02*
X101320000Y-127190000D01*
X100200000Y-126540000D02*
X100200000Y-127190000D01*
X100200000Y-132080000D02*
X100200000Y-131430000D01*
X101320000Y-127910000D02*
X99080000Y-127910000D01*
X101320000Y-128030000D02*
X99080000Y-128030000D01*
X101320000Y-127790000D02*
X99080000Y-127790000D01*
%TO.C,D1*%
X95320000Y-127190000D02*
X93080000Y-127190000D01*
X93080000Y-127190000D02*
X93080000Y-131430000D01*
X93080000Y-131430000D02*
X95320000Y-131430000D01*
X95320000Y-131430000D02*
X95320000Y-127190000D01*
X94200000Y-126540000D02*
X94200000Y-127190000D01*
X94200000Y-132080000D02*
X94200000Y-131430000D01*
X95320000Y-127910000D02*
X93080000Y-127910000D01*
X95320000Y-128030000D02*
X93080000Y-128030000D01*
X95320000Y-127790000D02*
X93080000Y-127790000D01*
%TO.C,C4*%
X120280000Y-121330000D02*
X125520000Y-121330000D01*
X120280000Y-124070000D02*
X125520000Y-124070000D01*
X120280000Y-121330000D02*
X120280000Y-121645000D01*
X120280000Y-123755000D02*
X120280000Y-124070000D01*
X125520000Y-121330000D02*
X125520000Y-121645000D01*
X125520000Y-123755000D02*
X125520000Y-124070000D01*
%TO.C,C3*%
X114270000Y-89900000D02*
G75*
G03*
X114270000Y-89900000I-2620000J0D01*
G01*
X111650000Y-87320000D02*
X111650000Y-92480000D01*
X111690000Y-87320000D02*
X111690000Y-92480000D01*
X111730000Y-87321000D02*
X111730000Y-92479000D01*
X111770000Y-87322000D02*
X111770000Y-92478000D01*
X111810000Y-87324000D02*
X111810000Y-92476000D01*
X111850000Y-87327000D02*
X111850000Y-92473000D01*
X111890000Y-87331000D02*
X111890000Y-88860000D01*
X111890000Y-90940000D02*
X111890000Y-92469000D01*
X111930000Y-87335000D02*
X111930000Y-88860000D01*
X111930000Y-90940000D02*
X111930000Y-92465000D01*
X111970000Y-87339000D02*
X111970000Y-88860000D01*
X111970000Y-90940000D02*
X111970000Y-92461000D01*
X112010000Y-87344000D02*
X112010000Y-88860000D01*
X112010000Y-90940000D02*
X112010000Y-92456000D01*
X112050000Y-87350000D02*
X112050000Y-88860000D01*
X112050000Y-90940000D02*
X112050000Y-92450000D01*
X112090000Y-87357000D02*
X112090000Y-88860000D01*
X112090000Y-90940000D02*
X112090000Y-92443000D01*
X112130000Y-87364000D02*
X112130000Y-88860000D01*
X112130000Y-90940000D02*
X112130000Y-92436000D01*
X112170000Y-87372000D02*
X112170000Y-88860000D01*
X112170000Y-90940000D02*
X112170000Y-92428000D01*
X112210000Y-87380000D02*
X112210000Y-88860000D01*
X112210000Y-90940000D02*
X112210000Y-92420000D01*
X112250000Y-87389000D02*
X112250000Y-88860000D01*
X112250000Y-90940000D02*
X112250000Y-92411000D01*
X112290000Y-87399000D02*
X112290000Y-88860000D01*
X112290000Y-90940000D02*
X112290000Y-92401000D01*
X112330000Y-87409000D02*
X112330000Y-88860000D01*
X112330000Y-90940000D02*
X112330000Y-92391000D01*
X112371000Y-87420000D02*
X112371000Y-88860000D01*
X112371000Y-90940000D02*
X112371000Y-92380000D01*
X112411000Y-87432000D02*
X112411000Y-88860000D01*
X112411000Y-90940000D02*
X112411000Y-92368000D01*
X112451000Y-87445000D02*
X112451000Y-88860000D01*
X112451000Y-90940000D02*
X112451000Y-92355000D01*
X112491000Y-87458000D02*
X112491000Y-88860000D01*
X112491000Y-90940000D02*
X112491000Y-92342000D01*
X112531000Y-87472000D02*
X112531000Y-88860000D01*
X112531000Y-90940000D02*
X112531000Y-92328000D01*
X112571000Y-87486000D02*
X112571000Y-88860000D01*
X112571000Y-90940000D02*
X112571000Y-92314000D01*
X112611000Y-87502000D02*
X112611000Y-88860000D01*
X112611000Y-90940000D02*
X112611000Y-92298000D01*
X112651000Y-87518000D02*
X112651000Y-88860000D01*
X112651000Y-90940000D02*
X112651000Y-92282000D01*
X112691000Y-87535000D02*
X112691000Y-88860000D01*
X112691000Y-90940000D02*
X112691000Y-92265000D01*
X112731000Y-87552000D02*
X112731000Y-88860000D01*
X112731000Y-90940000D02*
X112731000Y-92248000D01*
X112771000Y-87571000D02*
X112771000Y-88860000D01*
X112771000Y-90940000D02*
X112771000Y-92229000D01*
X112811000Y-87590000D02*
X112811000Y-88860000D01*
X112811000Y-90940000D02*
X112811000Y-92210000D01*
X112851000Y-87610000D02*
X112851000Y-88860000D01*
X112851000Y-90940000D02*
X112851000Y-92190000D01*
X112891000Y-87632000D02*
X112891000Y-88860000D01*
X112891000Y-90940000D02*
X112891000Y-92168000D01*
X112931000Y-87653000D02*
X112931000Y-88860000D01*
X112931000Y-90940000D02*
X112931000Y-92147000D01*
X112971000Y-87676000D02*
X112971000Y-88860000D01*
X112971000Y-90940000D02*
X112971000Y-92124000D01*
X113011000Y-87700000D02*
X113011000Y-88860000D01*
X113011000Y-90940000D02*
X113011000Y-92100000D01*
X113051000Y-87725000D02*
X113051000Y-88860000D01*
X113051000Y-90940000D02*
X113051000Y-92075000D01*
X113091000Y-87751000D02*
X113091000Y-88860000D01*
X113091000Y-90940000D02*
X113091000Y-92049000D01*
X113131000Y-87778000D02*
X113131000Y-88860000D01*
X113131000Y-90940000D02*
X113131000Y-92022000D01*
X113171000Y-87805000D02*
X113171000Y-88860000D01*
X113171000Y-90940000D02*
X113171000Y-91995000D01*
X113211000Y-87835000D02*
X113211000Y-88860000D01*
X113211000Y-90940000D02*
X113211000Y-91965000D01*
X113251000Y-87865000D02*
X113251000Y-88860000D01*
X113251000Y-90940000D02*
X113251000Y-91935000D01*
X113291000Y-87896000D02*
X113291000Y-88860000D01*
X113291000Y-90940000D02*
X113291000Y-91904000D01*
X113331000Y-87929000D02*
X113331000Y-88860000D01*
X113331000Y-90940000D02*
X113331000Y-91871000D01*
X113371000Y-87963000D02*
X113371000Y-88860000D01*
X113371000Y-90940000D02*
X113371000Y-91837000D01*
X113411000Y-87999000D02*
X113411000Y-88860000D01*
X113411000Y-90940000D02*
X113411000Y-91801000D01*
X113451000Y-88036000D02*
X113451000Y-88860000D01*
X113451000Y-90940000D02*
X113451000Y-91764000D01*
X113491000Y-88074000D02*
X113491000Y-88860000D01*
X113491000Y-90940000D02*
X113491000Y-91726000D01*
X113531000Y-88115000D02*
X113531000Y-88860000D01*
X113531000Y-90940000D02*
X113531000Y-91685000D01*
X113571000Y-88157000D02*
X113571000Y-88860000D01*
X113571000Y-90940000D02*
X113571000Y-91643000D01*
X113611000Y-88201000D02*
X113611000Y-88860000D01*
X113611000Y-90940000D02*
X113611000Y-91599000D01*
X113651000Y-88247000D02*
X113651000Y-88860000D01*
X113651000Y-90940000D02*
X113651000Y-91553000D01*
X113691000Y-88295000D02*
X113691000Y-88860000D01*
X113691000Y-90940000D02*
X113691000Y-91505000D01*
X113731000Y-88346000D02*
X113731000Y-88860000D01*
X113731000Y-90940000D02*
X113731000Y-91454000D01*
X113771000Y-88400000D02*
X113771000Y-88860000D01*
X113771000Y-90940000D02*
X113771000Y-91400000D01*
X113811000Y-88457000D02*
X113811000Y-88860000D01*
X113811000Y-90940000D02*
X113811000Y-91343000D01*
X113851000Y-88517000D02*
X113851000Y-88860000D01*
X113851000Y-90940000D02*
X113851000Y-91283000D01*
X113891000Y-88581000D02*
X113891000Y-88860000D01*
X113891000Y-90940000D02*
X113891000Y-91219000D01*
X113931000Y-88649000D02*
X113931000Y-88860000D01*
X113931000Y-90940000D02*
X113931000Y-91151000D01*
X113971000Y-88722000D02*
X113971000Y-91078000D01*
X114011000Y-88802000D02*
X114011000Y-90998000D01*
X114051000Y-88889000D02*
X114051000Y-90911000D01*
X114091000Y-88985000D02*
X114091000Y-90815000D01*
X114131000Y-89095000D02*
X114131000Y-90705000D01*
X114171000Y-89223000D02*
X114171000Y-90577000D01*
X114211000Y-89382000D02*
X114211000Y-90418000D01*
X114251000Y-89616000D02*
X114251000Y-90184000D01*
X108845225Y-88425000D02*
X109345225Y-88425000D01*
X109095225Y-88175000D02*
X109095225Y-88675000D01*
%TO.C,C2*%
X96220000Y-95500000D02*
G75*
G03*
X96220000Y-95500000I-3270000J0D01*
G01*
X92950000Y-98730000D02*
X92950000Y-92270000D01*
X92910000Y-98730000D02*
X92910000Y-92270000D01*
X92870000Y-98730000D02*
X92870000Y-92270000D01*
X92830000Y-98728000D02*
X92830000Y-92272000D01*
X92790000Y-98727000D02*
X92790000Y-92273000D01*
X92750000Y-98724000D02*
X92750000Y-92276000D01*
X92710000Y-98722000D02*
X92710000Y-96540000D01*
X92710000Y-94460000D02*
X92710000Y-92278000D01*
X92670000Y-98718000D02*
X92670000Y-96540000D01*
X92670000Y-94460000D02*
X92670000Y-92282000D01*
X92630000Y-98715000D02*
X92630000Y-96540000D01*
X92630000Y-94460000D02*
X92630000Y-92285000D01*
X92590000Y-98711000D02*
X92590000Y-96540000D01*
X92590000Y-94460000D02*
X92590000Y-92289000D01*
X92550000Y-98706000D02*
X92550000Y-96540000D01*
X92550000Y-94460000D02*
X92550000Y-92294000D01*
X92510000Y-98701000D02*
X92510000Y-96540000D01*
X92510000Y-94460000D02*
X92510000Y-92299000D01*
X92470000Y-98695000D02*
X92470000Y-96540000D01*
X92470000Y-94460000D02*
X92470000Y-92305000D01*
X92430000Y-98689000D02*
X92430000Y-96540000D01*
X92430000Y-94460000D02*
X92430000Y-92311000D01*
X92390000Y-98682000D02*
X92390000Y-96540000D01*
X92390000Y-94460000D02*
X92390000Y-92318000D01*
X92350000Y-98675000D02*
X92350000Y-96540000D01*
X92350000Y-94460000D02*
X92350000Y-92325000D01*
X92310000Y-98667000D02*
X92310000Y-96540000D01*
X92310000Y-94460000D02*
X92310000Y-92333000D01*
X92270000Y-98659000D02*
X92270000Y-96540000D01*
X92270000Y-94460000D02*
X92270000Y-92341000D01*
X92229000Y-98650000D02*
X92229000Y-96540000D01*
X92229000Y-94460000D02*
X92229000Y-92350000D01*
X92189000Y-98641000D02*
X92189000Y-96540000D01*
X92189000Y-94460000D02*
X92189000Y-92359000D01*
X92149000Y-98631000D02*
X92149000Y-96540000D01*
X92149000Y-94460000D02*
X92149000Y-92369000D01*
X92109000Y-98621000D02*
X92109000Y-96540000D01*
X92109000Y-94460000D02*
X92109000Y-92379000D01*
X92069000Y-98610000D02*
X92069000Y-96540000D01*
X92069000Y-94460000D02*
X92069000Y-92390000D01*
X92029000Y-98598000D02*
X92029000Y-96540000D01*
X92029000Y-94460000D02*
X92029000Y-92402000D01*
X91989000Y-98586000D02*
X91989000Y-96540000D01*
X91989000Y-94460000D02*
X91989000Y-92414000D01*
X91949000Y-98574000D02*
X91949000Y-96540000D01*
X91949000Y-94460000D02*
X91949000Y-92426000D01*
X91909000Y-98561000D02*
X91909000Y-96540000D01*
X91909000Y-94460000D02*
X91909000Y-92439000D01*
X91869000Y-98547000D02*
X91869000Y-96540000D01*
X91869000Y-94460000D02*
X91869000Y-92453000D01*
X91829000Y-98533000D02*
X91829000Y-96540000D01*
X91829000Y-94460000D02*
X91829000Y-92467000D01*
X91789000Y-98518000D02*
X91789000Y-96540000D01*
X91789000Y-94460000D02*
X91789000Y-92482000D01*
X91749000Y-98502000D02*
X91749000Y-96540000D01*
X91749000Y-94460000D02*
X91749000Y-92498000D01*
X91709000Y-98486000D02*
X91709000Y-96540000D01*
X91709000Y-94460000D02*
X91709000Y-92514000D01*
X91669000Y-98470000D02*
X91669000Y-96540000D01*
X91669000Y-94460000D02*
X91669000Y-92530000D01*
X91629000Y-98452000D02*
X91629000Y-96540000D01*
X91629000Y-94460000D02*
X91629000Y-92548000D01*
X91589000Y-98434000D02*
X91589000Y-96540000D01*
X91589000Y-94460000D02*
X91589000Y-92566000D01*
X91549000Y-98416000D02*
X91549000Y-96540000D01*
X91549000Y-94460000D02*
X91549000Y-92584000D01*
X91509000Y-98396000D02*
X91509000Y-96540000D01*
X91509000Y-94460000D02*
X91509000Y-92604000D01*
X91469000Y-98376000D02*
X91469000Y-96540000D01*
X91469000Y-94460000D02*
X91469000Y-92624000D01*
X91429000Y-98356000D02*
X91429000Y-96540000D01*
X91429000Y-94460000D02*
X91429000Y-92644000D01*
X91389000Y-98334000D02*
X91389000Y-96540000D01*
X91389000Y-94460000D02*
X91389000Y-92666000D01*
X91349000Y-98312000D02*
X91349000Y-96540000D01*
X91349000Y-94460000D02*
X91349000Y-92688000D01*
X91309000Y-98290000D02*
X91309000Y-96540000D01*
X91309000Y-94460000D02*
X91309000Y-92710000D01*
X91269000Y-98266000D02*
X91269000Y-96540000D01*
X91269000Y-94460000D02*
X91269000Y-92734000D01*
X91229000Y-98242000D02*
X91229000Y-96540000D01*
X91229000Y-94460000D02*
X91229000Y-92758000D01*
X91189000Y-98216000D02*
X91189000Y-96540000D01*
X91189000Y-94460000D02*
X91189000Y-92784000D01*
X91149000Y-98190000D02*
X91149000Y-96540000D01*
X91149000Y-94460000D02*
X91149000Y-92810000D01*
X91109000Y-98164000D02*
X91109000Y-96540000D01*
X91109000Y-94460000D02*
X91109000Y-92836000D01*
X91069000Y-98136000D02*
X91069000Y-96540000D01*
X91069000Y-94460000D02*
X91069000Y-92864000D01*
X91029000Y-98107000D02*
X91029000Y-96540000D01*
X91029000Y-94460000D02*
X91029000Y-92893000D01*
X90989000Y-98078000D02*
X90989000Y-96540000D01*
X90989000Y-94460000D02*
X90989000Y-92922000D01*
X90949000Y-98048000D02*
X90949000Y-96540000D01*
X90949000Y-94460000D02*
X90949000Y-92952000D01*
X90909000Y-98016000D02*
X90909000Y-96540000D01*
X90909000Y-94460000D02*
X90909000Y-92984000D01*
X90869000Y-97984000D02*
X90869000Y-96540000D01*
X90869000Y-94460000D02*
X90869000Y-93016000D01*
X90829000Y-97950000D02*
X90829000Y-96540000D01*
X90829000Y-94460000D02*
X90829000Y-93050000D01*
X90789000Y-97916000D02*
X90789000Y-96540000D01*
X90789000Y-94460000D02*
X90789000Y-93084000D01*
X90749000Y-97880000D02*
X90749000Y-96540000D01*
X90749000Y-94460000D02*
X90749000Y-93120000D01*
X90709000Y-97843000D02*
X90709000Y-96540000D01*
X90709000Y-94460000D02*
X90709000Y-93157000D01*
X90669000Y-97805000D02*
X90669000Y-96540000D01*
X90669000Y-94460000D02*
X90669000Y-93195000D01*
X90629000Y-97765000D02*
X90629000Y-93235000D01*
X90589000Y-97724000D02*
X90589000Y-93276000D01*
X90549000Y-97682000D02*
X90549000Y-93318000D01*
X90509000Y-97637000D02*
X90509000Y-93363000D01*
X90469000Y-97592000D02*
X90469000Y-93408000D01*
X90429000Y-97544000D02*
X90429000Y-93456000D01*
X90389000Y-97495000D02*
X90389000Y-93505000D01*
X90349000Y-97444000D02*
X90349000Y-93556000D01*
X90309000Y-97390000D02*
X90309000Y-93610000D01*
X90269000Y-97334000D02*
X90269000Y-93666000D01*
X90229000Y-97276000D02*
X90229000Y-93724000D01*
X90189000Y-97214000D02*
X90189000Y-93786000D01*
X90149000Y-97150000D02*
X90149000Y-93850000D01*
X90109000Y-97081000D02*
X90109000Y-93919000D01*
X90069000Y-97009000D02*
X90069000Y-93991000D01*
X90029000Y-96932000D02*
X90029000Y-94068000D01*
X89989000Y-96850000D02*
X89989000Y-94150000D01*
X89949000Y-96762000D02*
X89949000Y-94238000D01*
X89909000Y-96665000D02*
X89909000Y-94335000D01*
X89869000Y-96559000D02*
X89869000Y-94441000D01*
X89829000Y-96440000D02*
X89829000Y-94560000D01*
X89789000Y-96302000D02*
X89789000Y-94698000D01*
X89749000Y-96133000D02*
X89749000Y-94867000D01*
X89709000Y-95902000D02*
X89709000Y-95098000D01*
X96450241Y-97339000D02*
X95820241Y-97339000D01*
X96135241Y-97654000D02*
X96135241Y-97024000D01*
%TO.C,C1*%
X100320000Y-118870000D02*
X95080000Y-118870000D01*
X100320000Y-116130000D02*
X95080000Y-116130000D01*
X100320000Y-118870000D02*
X100320000Y-118555000D01*
X100320000Y-116445000D02*
X100320000Y-116130000D01*
X95080000Y-118870000D02*
X95080000Y-118555000D01*
X95080000Y-116445000D02*
X95080000Y-116130000D01*
%TO.C,Q2*%
D11*
X113364761Y-85107619D02*
X113269523Y-85060000D01*
X113174285Y-84964761D01*
X113031428Y-84821904D01*
X112936190Y-84774285D01*
X112840952Y-84774285D01*
X112888571Y-85012380D02*
X112793333Y-84964761D01*
X112698095Y-84869523D01*
X112650476Y-84679047D01*
X112650476Y-84345714D01*
X112698095Y-84155238D01*
X112793333Y-84060000D01*
X112888571Y-84012380D01*
X113079047Y-84012380D01*
X113174285Y-84060000D01*
X113269523Y-84155238D01*
X113317142Y-84345714D01*
X113317142Y-84679047D01*
X113269523Y-84869523D01*
X113174285Y-84964761D01*
X113079047Y-85012380D01*
X112888571Y-85012380D01*
X113698095Y-84107619D02*
X113745714Y-84060000D01*
X113840952Y-84012380D01*
X114079047Y-84012380D01*
X114174285Y-84060000D01*
X114221904Y-84107619D01*
X114269523Y-84202857D01*
X114269523Y-84298095D01*
X114221904Y-84440952D01*
X113650476Y-85012380D01*
X114269523Y-85012380D01*
X111602857Y-78138571D02*
X111745714Y-78186190D01*
X111793333Y-78233809D01*
X111840952Y-78329047D01*
X111840952Y-78471904D01*
X111793333Y-78567142D01*
X111745714Y-78614761D01*
X111650476Y-78662380D01*
X111269523Y-78662380D01*
X111269523Y-77662380D01*
X111602857Y-77662380D01*
X111698095Y-77710000D01*
X111745714Y-77757619D01*
X111793333Y-77852857D01*
X111793333Y-77948095D01*
X111745714Y-78043333D01*
X111698095Y-78090952D01*
X111602857Y-78138571D01*
X111269523Y-78138571D01*
X112840952Y-78567142D02*
X112793333Y-78614761D01*
X112650476Y-78662380D01*
X112555238Y-78662380D01*
X112412380Y-78614761D01*
X112317142Y-78519523D01*
X112269523Y-78424285D01*
X112221904Y-78233809D01*
X112221904Y-78090952D01*
X112269523Y-77900476D01*
X112317142Y-77805238D01*
X112412380Y-77710000D01*
X112555238Y-77662380D01*
X112650476Y-77662380D01*
X112793333Y-77710000D01*
X112840952Y-77757619D01*
X113745714Y-77662380D02*
X113269523Y-77662380D01*
X113221904Y-78138571D01*
X113269523Y-78090952D01*
X113364761Y-78043333D01*
X113602857Y-78043333D01*
X113698095Y-78090952D01*
X113745714Y-78138571D01*
X113793333Y-78233809D01*
X113793333Y-78471904D01*
X113745714Y-78567142D01*
X113698095Y-78614761D01*
X113602857Y-78662380D01*
X113364761Y-78662380D01*
X113269523Y-78614761D01*
X113221904Y-78567142D01*
X114650476Y-77995714D02*
X114650476Y-78662380D01*
X114412380Y-77614761D02*
X114174285Y-78329047D01*
X114793333Y-78329047D01*
X115079047Y-77662380D02*
X115745714Y-77662380D01*
X115317142Y-78662380D01*
%TO.C,R16*%
X108477142Y-77322380D02*
X108143809Y-76846190D01*
X107905714Y-77322380D02*
X107905714Y-76322380D01*
X108286666Y-76322380D01*
X108381904Y-76370000D01*
X108429523Y-76417619D01*
X108477142Y-76512857D01*
X108477142Y-76655714D01*
X108429523Y-76750952D01*
X108381904Y-76798571D01*
X108286666Y-76846190D01*
X107905714Y-76846190D01*
X109429523Y-77322380D02*
X108858095Y-77322380D01*
X109143809Y-77322380D02*
X109143809Y-76322380D01*
X109048571Y-76465238D01*
X108953333Y-76560476D01*
X108858095Y-76608095D01*
X110286666Y-76322380D02*
X110096190Y-76322380D01*
X110000952Y-76370000D01*
X109953333Y-76417619D01*
X109858095Y-76560476D01*
X109810476Y-76750952D01*
X109810476Y-77131904D01*
X109858095Y-77227142D01*
X109905714Y-77274761D01*
X110000952Y-77322380D01*
X110191428Y-77322380D01*
X110286666Y-77274761D01*
X110334285Y-77227142D01*
X110381904Y-77131904D01*
X110381904Y-76893809D01*
X110334285Y-76798571D01*
X110286666Y-76750952D01*
X110191428Y-76703333D01*
X110000952Y-76703333D01*
X109905714Y-76750952D01*
X109858095Y-76798571D01*
X109810476Y-76893809D01*
X108929523Y-72582380D02*
X108358095Y-72582380D01*
X108643809Y-72582380D02*
X108643809Y-71582380D01*
X108548571Y-71725238D01*
X108453333Y-71820476D01*
X108358095Y-71868095D01*
X109548571Y-71582380D02*
X109643809Y-71582380D01*
X109739047Y-71630000D01*
X109786666Y-71677619D01*
X109834285Y-71772857D01*
X109881904Y-71963333D01*
X109881904Y-72201428D01*
X109834285Y-72391904D01*
X109786666Y-72487142D01*
X109739047Y-72534761D01*
X109643809Y-72582380D01*
X109548571Y-72582380D01*
X109453333Y-72534761D01*
X109405714Y-72487142D01*
X109358095Y-72391904D01*
X109310476Y-72201428D01*
X109310476Y-71963333D01*
X109358095Y-71772857D01*
X109405714Y-71677619D01*
X109453333Y-71630000D01*
X109548571Y-71582380D01*
%TO.C,R15*%
X114277142Y-72122380D02*
X113943809Y-71646190D01*
X113705714Y-72122380D02*
X113705714Y-71122380D01*
X114086666Y-71122380D01*
X114181904Y-71170000D01*
X114229523Y-71217619D01*
X114277142Y-71312857D01*
X114277142Y-71455714D01*
X114229523Y-71550952D01*
X114181904Y-71598571D01*
X114086666Y-71646190D01*
X113705714Y-71646190D01*
X115229523Y-72122380D02*
X114658095Y-72122380D01*
X114943809Y-72122380D02*
X114943809Y-71122380D01*
X114848571Y-71265238D01*
X114753333Y-71360476D01*
X114658095Y-71408095D01*
X116134285Y-71122380D02*
X115658095Y-71122380D01*
X115610476Y-71598571D01*
X115658095Y-71550952D01*
X115753333Y-71503333D01*
X115991428Y-71503333D01*
X116086666Y-71550952D01*
X116134285Y-71598571D01*
X116181904Y-71693809D01*
X116181904Y-71931904D01*
X116134285Y-72027142D01*
X116086666Y-72074761D01*
X115991428Y-72122380D01*
X115753333Y-72122380D01*
X115658095Y-72074761D01*
X115610476Y-72027142D01*
X114729523Y-67382380D02*
X114158095Y-67382380D01*
X114443809Y-67382380D02*
X114443809Y-66382380D01*
X114348571Y-66525238D01*
X114253333Y-66620476D01*
X114158095Y-66668095D01*
X115348571Y-66382380D02*
X115443809Y-66382380D01*
X115539047Y-66430000D01*
X115586666Y-66477619D01*
X115634285Y-66572857D01*
X115681904Y-66763333D01*
X115681904Y-67001428D01*
X115634285Y-67191904D01*
X115586666Y-67287142D01*
X115539047Y-67334761D01*
X115443809Y-67382380D01*
X115348571Y-67382380D01*
X115253333Y-67334761D01*
X115205714Y-67287142D01*
X115158095Y-67191904D01*
X115110476Y-67001428D01*
X115110476Y-66763333D01*
X115158095Y-66572857D01*
X115205714Y-66477619D01*
X115253333Y-66430000D01*
X115348571Y-66382380D01*
%TO.C,C8*%
X111533333Y-105357142D02*
X111485714Y-105404761D01*
X111342857Y-105452380D01*
X111247619Y-105452380D01*
X111104761Y-105404761D01*
X111009523Y-105309523D01*
X110961904Y-105214285D01*
X110914285Y-105023809D01*
X110914285Y-104880952D01*
X110961904Y-104690476D01*
X111009523Y-104595238D01*
X111104761Y-104500000D01*
X111247619Y-104452380D01*
X111342857Y-104452380D01*
X111485714Y-104500000D01*
X111533333Y-104547619D01*
X112104761Y-104880952D02*
X112009523Y-104833333D01*
X111961904Y-104785714D01*
X111914285Y-104690476D01*
X111914285Y-104642857D01*
X111961904Y-104547619D01*
X112009523Y-104500000D01*
X112104761Y-104452380D01*
X112295238Y-104452380D01*
X112390476Y-104500000D01*
X112438095Y-104547619D01*
X112485714Y-104642857D01*
X112485714Y-104690476D01*
X112438095Y-104785714D01*
X112390476Y-104833333D01*
X112295238Y-104880952D01*
X112104761Y-104880952D01*
X112009523Y-104928571D01*
X111961904Y-104976190D01*
X111914285Y-105071428D01*
X111914285Y-105261904D01*
X111961904Y-105357142D01*
X112009523Y-105404761D01*
X112104761Y-105452380D01*
X112295238Y-105452380D01*
X112390476Y-105404761D01*
X112438095Y-105357142D01*
X112485714Y-105261904D01*
X112485714Y-105071428D01*
X112438095Y-104976190D01*
X112390476Y-104928571D01*
X112295238Y-104880952D01*
X110580952Y-110452380D02*
X110009523Y-110452380D01*
X110295238Y-110452380D02*
X110295238Y-109452380D01*
X110200000Y-109595238D01*
X110104761Y-109690476D01*
X110009523Y-109738095D01*
X111200000Y-109452380D02*
X111295238Y-109452380D01*
X111390476Y-109500000D01*
X111438095Y-109547619D01*
X111485714Y-109642857D01*
X111533333Y-109833333D01*
X111533333Y-110071428D01*
X111485714Y-110261904D01*
X111438095Y-110357142D01*
X111390476Y-110404761D01*
X111295238Y-110452380D01*
X111200000Y-110452380D01*
X111104761Y-110404761D01*
X111057142Y-110357142D01*
X111009523Y-110261904D01*
X110961904Y-110071428D01*
X110961904Y-109833333D01*
X111009523Y-109642857D01*
X111057142Y-109547619D01*
X111104761Y-109500000D01*
X111200000Y-109452380D01*
X112152380Y-109452380D02*
X112247619Y-109452380D01*
X112342857Y-109500000D01*
X112390476Y-109547619D01*
X112438095Y-109642857D01*
X112485714Y-109833333D01*
X112485714Y-110071428D01*
X112438095Y-110261904D01*
X112390476Y-110357142D01*
X112342857Y-110404761D01*
X112247619Y-110452380D01*
X112152380Y-110452380D01*
X112057142Y-110404761D01*
X112009523Y-110357142D01*
X111961904Y-110261904D01*
X111914285Y-110071428D01*
X111914285Y-109833333D01*
X111961904Y-109642857D01*
X112009523Y-109547619D01*
X112057142Y-109500000D01*
X112152380Y-109452380D01*
X112914285Y-109785714D02*
X112914285Y-110452380D01*
X112914285Y-109880952D02*
X112961904Y-109833333D01*
X113057142Y-109785714D01*
X113200000Y-109785714D01*
X113295238Y-109833333D01*
X113342857Y-109928571D01*
X113342857Y-110452380D01*
%TO.C,C7*%
X90083333Y-65607142D02*
X90035714Y-65654761D01*
X89892857Y-65702380D01*
X89797619Y-65702380D01*
X89654761Y-65654761D01*
X89559523Y-65559523D01*
X89511904Y-65464285D01*
X89464285Y-65273809D01*
X89464285Y-65130952D01*
X89511904Y-64940476D01*
X89559523Y-64845238D01*
X89654761Y-64750000D01*
X89797619Y-64702380D01*
X89892857Y-64702380D01*
X90035714Y-64750000D01*
X90083333Y-64797619D01*
X90416666Y-64702380D02*
X91083333Y-64702380D01*
X90654761Y-65702380D01*
X89607142Y-73202380D02*
X89035714Y-73202380D01*
X89321428Y-73202380D02*
X89321428Y-72202380D01*
X89226190Y-72345238D01*
X89130952Y-72440476D01*
X89035714Y-72488095D01*
X90226190Y-72202380D02*
X90321428Y-72202380D01*
X90416666Y-72250000D01*
X90464285Y-72297619D01*
X90511904Y-72392857D01*
X90559523Y-72583333D01*
X90559523Y-72821428D01*
X90511904Y-73011904D01*
X90464285Y-73107142D01*
X90416666Y-73154761D01*
X90321428Y-73202380D01*
X90226190Y-73202380D01*
X90130952Y-73154761D01*
X90083333Y-73107142D01*
X90035714Y-73011904D01*
X89988095Y-72821428D01*
X89988095Y-72583333D01*
X90035714Y-72392857D01*
X90083333Y-72297619D01*
X90130952Y-72250000D01*
X90226190Y-72202380D01*
X91416666Y-72535714D02*
X91416666Y-73202380D01*
X90988095Y-72535714D02*
X90988095Y-73059523D01*
X91035714Y-73154761D01*
X91130952Y-73202380D01*
X91273809Y-73202380D01*
X91369047Y-73154761D01*
X91416666Y-73107142D01*
%TO.C,C6*%
X96783333Y-76607142D02*
X96735714Y-76654761D01*
X96592857Y-76702380D01*
X96497619Y-76702380D01*
X96354761Y-76654761D01*
X96259523Y-76559523D01*
X96211904Y-76464285D01*
X96164285Y-76273809D01*
X96164285Y-76130952D01*
X96211904Y-75940476D01*
X96259523Y-75845238D01*
X96354761Y-75750000D01*
X96497619Y-75702380D01*
X96592857Y-75702380D01*
X96735714Y-75750000D01*
X96783333Y-75797619D01*
X97640476Y-75702380D02*
X97450000Y-75702380D01*
X97354761Y-75750000D01*
X97307142Y-75797619D01*
X97211904Y-75940476D01*
X97164285Y-76130952D01*
X97164285Y-76511904D01*
X97211904Y-76607142D01*
X97259523Y-76654761D01*
X97354761Y-76702380D01*
X97545238Y-76702380D01*
X97640476Y-76654761D01*
X97688095Y-76607142D01*
X97735714Y-76511904D01*
X97735714Y-76273809D01*
X97688095Y-76178571D01*
X97640476Y-76130952D01*
X97545238Y-76083333D01*
X97354761Y-76083333D01*
X97259523Y-76130952D01*
X97211904Y-76178571D01*
X97164285Y-76273809D01*
X96307142Y-69202380D02*
X95735714Y-69202380D01*
X96021428Y-69202380D02*
X96021428Y-68202380D01*
X95926190Y-68345238D01*
X95830952Y-68440476D01*
X95735714Y-68488095D01*
X96926190Y-68202380D02*
X97021428Y-68202380D01*
X97116666Y-68250000D01*
X97164285Y-68297619D01*
X97211904Y-68392857D01*
X97259523Y-68583333D01*
X97259523Y-68821428D01*
X97211904Y-69011904D01*
X97164285Y-69107142D01*
X97116666Y-69154761D01*
X97021428Y-69202380D01*
X96926190Y-69202380D01*
X96830952Y-69154761D01*
X96783333Y-69107142D01*
X96735714Y-69011904D01*
X96688095Y-68821428D01*
X96688095Y-68583333D01*
X96735714Y-68392857D01*
X96783333Y-68297619D01*
X96830952Y-68250000D01*
X96926190Y-68202380D01*
X98116666Y-68535714D02*
X98116666Y-69202380D01*
X97688095Y-68535714D02*
X97688095Y-69059523D01*
X97735714Y-69154761D01*
X97830952Y-69202380D01*
X97973809Y-69202380D01*
X98069047Y-69154761D01*
X98116666Y-69107142D01*
%TO.C,U1*%
X111452380Y-117161904D02*
X112261904Y-117161904D01*
X112357142Y-117114285D01*
X112404761Y-117066666D01*
X112452380Y-116971428D01*
X112452380Y-116780952D01*
X112404761Y-116685714D01*
X112357142Y-116638095D01*
X112261904Y-116590476D01*
X111452380Y-116590476D01*
X112452380Y-115590476D02*
X112452380Y-116161904D01*
X112452380Y-115876190D02*
X111452380Y-115876190D01*
X111595238Y-115971428D01*
X111690476Y-116066666D01*
X111738095Y-116161904D01*
X111452380Y-125619047D02*
X111452380Y-125047619D01*
X112452380Y-125333333D02*
X111452380Y-125333333D01*
X112452380Y-124238095D02*
X112452380Y-124714285D01*
X111452380Y-124714285D01*
X111452380Y-123714285D02*
X111452380Y-123619047D01*
X111500000Y-123523809D01*
X111547619Y-123476190D01*
X111642857Y-123428571D01*
X111833333Y-123380952D01*
X112071428Y-123380952D01*
X112261904Y-123428571D01*
X112357142Y-123476190D01*
X112404761Y-123523809D01*
X112452380Y-123619047D01*
X112452380Y-123714285D01*
X112404761Y-123809523D01*
X112357142Y-123857142D01*
X112261904Y-123904761D01*
X112071428Y-123952380D01*
X111833333Y-123952380D01*
X111642857Y-123904761D01*
X111547619Y-123857142D01*
X111500000Y-123809523D01*
X111452380Y-123714285D01*
X111452380Y-123047619D02*
X111452380Y-122380952D01*
X112452380Y-122809523D01*
X111785714Y-121571428D02*
X112452380Y-121571428D01*
X111404761Y-121809523D02*
X112119047Y-122047619D01*
X112119047Y-121428571D01*
%TO.C,R14*%
X130822380Y-146722857D02*
X130346190Y-147056190D01*
X130822380Y-147294285D02*
X129822380Y-147294285D01*
X129822380Y-146913333D01*
X129870000Y-146818095D01*
X129917619Y-146770476D01*
X130012857Y-146722857D01*
X130155714Y-146722857D01*
X130250952Y-146770476D01*
X130298571Y-146818095D01*
X130346190Y-146913333D01*
X130346190Y-147294285D01*
X130822380Y-145770476D02*
X130822380Y-146341904D01*
X130822380Y-146056190D02*
X129822380Y-146056190D01*
X129965238Y-146151428D01*
X130060476Y-146246666D01*
X130108095Y-146341904D01*
X130155714Y-144913333D02*
X130822380Y-144913333D01*
X129774761Y-145151428D02*
X130489047Y-145389523D01*
X130489047Y-144770476D01*
X126082380Y-146199047D02*
X126082380Y-146770476D01*
X126082380Y-146484761D02*
X125082380Y-146484761D01*
X125225238Y-146580000D01*
X125320476Y-146675238D01*
X125368095Y-146770476D01*
X126082380Y-145770476D02*
X125082380Y-145770476D01*
X125701428Y-145675238D02*
X126082380Y-145389523D01*
X125415714Y-145389523D02*
X125796666Y-145770476D01*
%TO.C,R13*%
X124822380Y-152722857D02*
X124346190Y-153056190D01*
X124822380Y-153294285D02*
X123822380Y-153294285D01*
X123822380Y-152913333D01*
X123870000Y-152818095D01*
X123917619Y-152770476D01*
X124012857Y-152722857D01*
X124155714Y-152722857D01*
X124250952Y-152770476D01*
X124298571Y-152818095D01*
X124346190Y-152913333D01*
X124346190Y-153294285D01*
X124822380Y-151770476D02*
X124822380Y-152341904D01*
X124822380Y-152056190D02*
X123822380Y-152056190D01*
X123965238Y-152151428D01*
X124060476Y-152246666D01*
X124108095Y-152341904D01*
X123822380Y-151437142D02*
X123822380Y-150818095D01*
X124203333Y-151151428D01*
X124203333Y-151008571D01*
X124250952Y-150913333D01*
X124298571Y-150865714D01*
X124393809Y-150818095D01*
X124631904Y-150818095D01*
X124727142Y-150865714D01*
X124774761Y-150913333D01*
X124822380Y-151008571D01*
X124822380Y-151294285D01*
X124774761Y-151389523D01*
X124727142Y-151437142D01*
X120082380Y-152199047D02*
X120082380Y-152770476D01*
X120082380Y-152484761D02*
X119082380Y-152484761D01*
X119225238Y-152580000D01*
X119320476Y-152675238D01*
X119368095Y-152770476D01*
X120082380Y-151770476D02*
X119082380Y-151770476D01*
X119701428Y-151675238D02*
X120082380Y-151389523D01*
X119415714Y-151389523D02*
X119796666Y-151770476D01*
%TO.C,R12*%
X123452380Y-108242857D02*
X122976190Y-108576190D01*
X123452380Y-108814285D02*
X122452380Y-108814285D01*
X122452380Y-108433333D01*
X122500000Y-108338095D01*
X122547619Y-108290476D01*
X122642857Y-108242857D01*
X122785714Y-108242857D01*
X122880952Y-108290476D01*
X122928571Y-108338095D01*
X122976190Y-108433333D01*
X122976190Y-108814285D01*
X123452380Y-107290476D02*
X123452380Y-107861904D01*
X123452380Y-107576190D02*
X122452380Y-107576190D01*
X122595238Y-107671428D01*
X122690476Y-107766666D01*
X122738095Y-107861904D01*
X122547619Y-106909523D02*
X122500000Y-106861904D01*
X122452380Y-106766666D01*
X122452380Y-106528571D01*
X122500000Y-106433333D01*
X122547619Y-106385714D01*
X122642857Y-106338095D01*
X122738095Y-106338095D01*
X122880952Y-106385714D01*
X123452380Y-106957142D01*
X123452380Y-106338095D01*
X121082380Y-108551428D02*
X121082380Y-109122857D01*
X121082380Y-108837142D02*
X120082380Y-108837142D01*
X120225238Y-108932380D01*
X120320476Y-109027619D01*
X120368095Y-109122857D01*
X120082380Y-107932380D02*
X120082380Y-107837142D01*
X120130000Y-107741904D01*
X120177619Y-107694285D01*
X120272857Y-107646666D01*
X120463333Y-107599047D01*
X120701428Y-107599047D01*
X120891904Y-107646666D01*
X120987142Y-107694285D01*
X121034761Y-107741904D01*
X121082380Y-107837142D01*
X121082380Y-107932380D01*
X121034761Y-108027619D01*
X120987142Y-108075238D01*
X120891904Y-108122857D01*
X120701428Y-108170476D01*
X120463333Y-108170476D01*
X120272857Y-108122857D01*
X120177619Y-108075238D01*
X120130000Y-108027619D01*
X120082380Y-107932380D01*
X120082380Y-106980000D02*
X120082380Y-106884761D01*
X120130000Y-106789523D01*
X120177619Y-106741904D01*
X120272857Y-106694285D01*
X120463333Y-106646666D01*
X120701428Y-106646666D01*
X120891904Y-106694285D01*
X120987142Y-106741904D01*
X121034761Y-106789523D01*
X121082380Y-106884761D01*
X121082380Y-106980000D01*
X121034761Y-107075238D01*
X120987142Y-107122857D01*
X120891904Y-107170476D01*
X120701428Y-107218095D01*
X120463333Y-107218095D01*
X120272857Y-107170476D01*
X120177619Y-107122857D01*
X120130000Y-107075238D01*
X120082380Y-106980000D01*
X121082380Y-106218095D02*
X120082380Y-106218095D01*
X120701428Y-106122857D02*
X121082380Y-105837142D01*
X120415714Y-105837142D02*
X120796666Y-106218095D01*
%TO.C,R11*%
X128252380Y-108242857D02*
X127776190Y-108576190D01*
X128252380Y-108814285D02*
X127252380Y-108814285D01*
X127252380Y-108433333D01*
X127300000Y-108338095D01*
X127347619Y-108290476D01*
X127442857Y-108242857D01*
X127585714Y-108242857D01*
X127680952Y-108290476D01*
X127728571Y-108338095D01*
X127776190Y-108433333D01*
X127776190Y-108814285D01*
X128252380Y-107290476D02*
X128252380Y-107861904D01*
X128252380Y-107576190D02*
X127252380Y-107576190D01*
X127395238Y-107671428D01*
X127490476Y-107766666D01*
X127538095Y-107861904D01*
X128252380Y-106338095D02*
X128252380Y-106909523D01*
X128252380Y-106623809D02*
X127252380Y-106623809D01*
X127395238Y-106719047D01*
X127490476Y-106814285D01*
X127538095Y-106909523D01*
X130622380Y-107639047D02*
X130622380Y-108210476D01*
X130622380Y-107924761D02*
X129622380Y-107924761D01*
X129765238Y-108020000D01*
X129860476Y-108115238D01*
X129908095Y-108210476D01*
X130622380Y-107210476D02*
X129622380Y-107210476D01*
X130241428Y-107115238D02*
X130622380Y-106829523D01*
X129955714Y-106829523D02*
X130336666Y-107210476D01*
%TO.C,R10*%
X123022380Y-87222857D02*
X122546190Y-87556190D01*
X123022380Y-87794285D02*
X122022380Y-87794285D01*
X122022380Y-87413333D01*
X122070000Y-87318095D01*
X122117619Y-87270476D01*
X122212857Y-87222857D01*
X122355714Y-87222857D01*
X122450952Y-87270476D01*
X122498571Y-87318095D01*
X122546190Y-87413333D01*
X122546190Y-87794285D01*
X123022380Y-86270476D02*
X123022380Y-86841904D01*
X123022380Y-86556190D02*
X122022380Y-86556190D01*
X122165238Y-86651428D01*
X122260476Y-86746666D01*
X122308095Y-86841904D01*
X122022380Y-85651428D02*
X122022380Y-85556190D01*
X122070000Y-85460952D01*
X122117619Y-85413333D01*
X122212857Y-85365714D01*
X122403333Y-85318095D01*
X122641428Y-85318095D01*
X122831904Y-85365714D01*
X122927142Y-85413333D01*
X122974761Y-85460952D01*
X123022380Y-85556190D01*
X123022380Y-85651428D01*
X122974761Y-85746666D01*
X122927142Y-85794285D01*
X122831904Y-85841904D01*
X122641428Y-85889523D01*
X122403333Y-85889523D01*
X122212857Y-85841904D01*
X122117619Y-85794285D01*
X122070000Y-85746666D01*
X122022380Y-85651428D01*
X118282380Y-87651428D02*
X118282380Y-88222857D01*
X118282380Y-87937142D02*
X117282380Y-87937142D01*
X117425238Y-88032380D01*
X117520476Y-88127619D01*
X117568095Y-88222857D01*
X117282380Y-87032380D02*
X117282380Y-86937142D01*
X117330000Y-86841904D01*
X117377619Y-86794285D01*
X117472857Y-86746666D01*
X117663333Y-86699047D01*
X117901428Y-86699047D01*
X118091904Y-86746666D01*
X118187142Y-86794285D01*
X118234761Y-86841904D01*
X118282380Y-86937142D01*
X118282380Y-87032380D01*
X118234761Y-87127619D01*
X118187142Y-87175238D01*
X118091904Y-87222857D01*
X117901428Y-87270476D01*
X117663333Y-87270476D01*
X117472857Y-87222857D01*
X117377619Y-87175238D01*
X117330000Y-87127619D01*
X117282380Y-87032380D01*
X117282380Y-86080000D02*
X117282380Y-85984761D01*
X117330000Y-85889523D01*
X117377619Y-85841904D01*
X117472857Y-85794285D01*
X117663333Y-85746666D01*
X117901428Y-85746666D01*
X118091904Y-85794285D01*
X118187142Y-85841904D01*
X118234761Y-85889523D01*
X118282380Y-85984761D01*
X118282380Y-86080000D01*
X118234761Y-86175238D01*
X118187142Y-86222857D01*
X118091904Y-86270476D01*
X117901428Y-86318095D01*
X117663333Y-86318095D01*
X117472857Y-86270476D01*
X117377619Y-86222857D01*
X117330000Y-86175238D01*
X117282380Y-86080000D01*
X118282380Y-85318095D02*
X117282380Y-85318095D01*
X117901428Y-85222857D02*
X118282380Y-84937142D01*
X117615714Y-84937142D02*
X117996666Y-85318095D01*
%TO.C,R9*%
X101282380Y-86586666D02*
X100806190Y-86920000D01*
X101282380Y-87158095D02*
X100282380Y-87158095D01*
X100282380Y-86777142D01*
X100330000Y-86681904D01*
X100377619Y-86634285D01*
X100472857Y-86586666D01*
X100615714Y-86586666D01*
X100710952Y-86634285D01*
X100758571Y-86681904D01*
X100806190Y-86777142D01*
X100806190Y-87158095D01*
X101282380Y-86110476D02*
X101282380Y-85920000D01*
X101234761Y-85824761D01*
X101187142Y-85777142D01*
X101044285Y-85681904D01*
X100853809Y-85634285D01*
X100472857Y-85634285D01*
X100377619Y-85681904D01*
X100330000Y-85729523D01*
X100282380Y-85824761D01*
X100282380Y-86015238D01*
X100330000Y-86110476D01*
X100377619Y-86158095D01*
X100472857Y-86205714D01*
X100710952Y-86205714D01*
X100806190Y-86158095D01*
X100853809Y-86110476D01*
X100901428Y-86015238D01*
X100901428Y-85824761D01*
X100853809Y-85729523D01*
X100806190Y-85681904D01*
X100710952Y-85634285D01*
X106022380Y-86705714D02*
X106022380Y-87277142D01*
X106022380Y-86991428D02*
X105022380Y-86991428D01*
X105165238Y-87086666D01*
X105260476Y-87181904D01*
X105308095Y-87277142D01*
X106022380Y-86277142D02*
X105022380Y-86277142D01*
X105736666Y-85943809D01*
X105022380Y-85610476D01*
X106022380Y-85610476D01*
%TO.C,R8*%
X111333333Y-141152380D02*
X111000000Y-140676190D01*
X110761904Y-141152380D02*
X110761904Y-140152380D01*
X111142857Y-140152380D01*
X111238095Y-140200000D01*
X111285714Y-140247619D01*
X111333333Y-140342857D01*
X111333333Y-140485714D01*
X111285714Y-140580952D01*
X111238095Y-140628571D01*
X111142857Y-140676190D01*
X110761904Y-140676190D01*
X111904761Y-140580952D02*
X111809523Y-140533333D01*
X111761904Y-140485714D01*
X111714285Y-140390476D01*
X111714285Y-140342857D01*
X111761904Y-140247619D01*
X111809523Y-140200000D01*
X111904761Y-140152380D01*
X112095238Y-140152380D01*
X112190476Y-140200000D01*
X112238095Y-140247619D01*
X112285714Y-140342857D01*
X112285714Y-140390476D01*
X112238095Y-140485714D01*
X112190476Y-140533333D01*
X112095238Y-140580952D01*
X111904761Y-140580952D01*
X111809523Y-140628571D01*
X111761904Y-140676190D01*
X111714285Y-140771428D01*
X111714285Y-140961904D01*
X111761904Y-141057142D01*
X111809523Y-141104761D01*
X111904761Y-141152380D01*
X112095238Y-141152380D01*
X112190476Y-141104761D01*
X112238095Y-141057142D01*
X112285714Y-140961904D01*
X112285714Y-140771428D01*
X112238095Y-140676190D01*
X112190476Y-140628571D01*
X112095238Y-140580952D01*
X111234285Y-143752380D02*
X110662857Y-143752380D01*
X110948571Y-143752380D02*
X110948571Y-142752380D01*
X110853333Y-142895238D01*
X110758095Y-142990476D01*
X110662857Y-143038095D01*
X111662857Y-143752380D02*
X111662857Y-142752380D01*
X111996190Y-143466666D01*
X112329523Y-142752380D01*
X112329523Y-143752380D01*
%TO.C,R7*%
X101022380Y-83746666D02*
X100546190Y-84080000D01*
X101022380Y-84318095D02*
X100022380Y-84318095D01*
X100022380Y-83937142D01*
X100070000Y-83841904D01*
X100117619Y-83794285D01*
X100212857Y-83746666D01*
X100355714Y-83746666D01*
X100450952Y-83794285D01*
X100498571Y-83841904D01*
X100546190Y-83937142D01*
X100546190Y-84318095D01*
X100022380Y-83413333D02*
X100022380Y-82746666D01*
X101022380Y-83175238D01*
X96282380Y-84246666D02*
X96282380Y-84818095D01*
X96282380Y-84532380D02*
X95282380Y-84532380D01*
X95425238Y-84627619D01*
X95520476Y-84722857D01*
X95568095Y-84818095D01*
X95282380Y-83627619D02*
X95282380Y-83532380D01*
X95330000Y-83437142D01*
X95377619Y-83389523D01*
X95472857Y-83341904D01*
X95663333Y-83294285D01*
X95901428Y-83294285D01*
X96091904Y-83341904D01*
X96187142Y-83389523D01*
X96234761Y-83437142D01*
X96282380Y-83532380D01*
X96282380Y-83627619D01*
X96234761Y-83722857D01*
X96187142Y-83770476D01*
X96091904Y-83818095D01*
X95901428Y-83865714D01*
X95663333Y-83865714D01*
X95472857Y-83818095D01*
X95377619Y-83770476D01*
X95330000Y-83722857D01*
X95282380Y-83627619D01*
X95282380Y-82675238D02*
X95282380Y-82580000D01*
X95330000Y-82484761D01*
X95377619Y-82437142D01*
X95472857Y-82389523D01*
X95663333Y-82341904D01*
X95901428Y-82341904D01*
X96091904Y-82389523D01*
X96187142Y-82437142D01*
X96234761Y-82484761D01*
X96282380Y-82580000D01*
X96282380Y-82675238D01*
X96234761Y-82770476D01*
X96187142Y-82818095D01*
X96091904Y-82865714D01*
X95901428Y-82913333D01*
X95663333Y-82913333D01*
X95472857Y-82865714D01*
X95377619Y-82818095D01*
X95330000Y-82770476D01*
X95282380Y-82675238D01*
%TO.C,R6*%
X105282380Y-99786666D02*
X104806190Y-100120000D01*
X105282380Y-100358095D02*
X104282380Y-100358095D01*
X104282380Y-99977142D01*
X104330000Y-99881904D01*
X104377619Y-99834285D01*
X104472857Y-99786666D01*
X104615714Y-99786666D01*
X104710952Y-99834285D01*
X104758571Y-99881904D01*
X104806190Y-99977142D01*
X104806190Y-100358095D01*
X104282380Y-98929523D02*
X104282380Y-99120000D01*
X104330000Y-99215238D01*
X104377619Y-99262857D01*
X104520476Y-99358095D01*
X104710952Y-99405714D01*
X105091904Y-99405714D01*
X105187142Y-99358095D01*
X105234761Y-99310476D01*
X105282380Y-99215238D01*
X105282380Y-99024761D01*
X105234761Y-98929523D01*
X105187142Y-98881904D01*
X105091904Y-98834285D01*
X104853809Y-98834285D01*
X104758571Y-98881904D01*
X104710952Y-98929523D01*
X104663333Y-99024761D01*
X104663333Y-99215238D01*
X104710952Y-99310476D01*
X104758571Y-99358095D01*
X104853809Y-99405714D01*
X110022380Y-100215238D02*
X110022380Y-100786666D01*
X110022380Y-100500952D02*
X109022380Y-100500952D01*
X109165238Y-100596190D01*
X109260476Y-100691428D01*
X109308095Y-100786666D01*
X109022380Y-99596190D02*
X109022380Y-99500952D01*
X109070000Y-99405714D01*
X109117619Y-99358095D01*
X109212857Y-99310476D01*
X109403333Y-99262857D01*
X109641428Y-99262857D01*
X109831904Y-99310476D01*
X109927142Y-99358095D01*
X109974761Y-99405714D01*
X110022380Y-99500952D01*
X110022380Y-99596190D01*
X109974761Y-99691428D01*
X109927142Y-99739047D01*
X109831904Y-99786666D01*
X109641428Y-99834285D01*
X109403333Y-99834285D01*
X109212857Y-99786666D01*
X109117619Y-99739047D01*
X109070000Y-99691428D01*
X109022380Y-99596190D01*
X110022380Y-98834285D02*
X109022380Y-98834285D01*
X109641428Y-98739047D02*
X110022380Y-98453333D01*
X109355714Y-98453333D02*
X109736666Y-98834285D01*
%TO.C,R5*%
X119022380Y-99746666D02*
X118546190Y-100080000D01*
X119022380Y-100318095D02*
X118022380Y-100318095D01*
X118022380Y-99937142D01*
X118070000Y-99841904D01*
X118117619Y-99794285D01*
X118212857Y-99746666D01*
X118355714Y-99746666D01*
X118450952Y-99794285D01*
X118498571Y-99841904D01*
X118546190Y-99937142D01*
X118546190Y-100318095D01*
X118022380Y-98841904D02*
X118022380Y-99318095D01*
X118498571Y-99365714D01*
X118450952Y-99318095D01*
X118403333Y-99222857D01*
X118403333Y-98984761D01*
X118450952Y-98889523D01*
X118498571Y-98841904D01*
X118593809Y-98794285D01*
X118831904Y-98794285D01*
X118927142Y-98841904D01*
X118974761Y-98889523D01*
X119022380Y-98984761D01*
X119022380Y-99222857D01*
X118974761Y-99318095D01*
X118927142Y-99365714D01*
X114282380Y-100651428D02*
X114282380Y-101222857D01*
X114282380Y-100937142D02*
X113282380Y-100937142D01*
X113425238Y-101032380D01*
X113520476Y-101127619D01*
X113568095Y-101222857D01*
X113282380Y-100032380D02*
X113282380Y-99937142D01*
X113330000Y-99841904D01*
X113377619Y-99794285D01*
X113472857Y-99746666D01*
X113663333Y-99699047D01*
X113901428Y-99699047D01*
X114091904Y-99746666D01*
X114187142Y-99794285D01*
X114234761Y-99841904D01*
X114282380Y-99937142D01*
X114282380Y-100032380D01*
X114234761Y-100127619D01*
X114187142Y-100175238D01*
X114091904Y-100222857D01*
X113901428Y-100270476D01*
X113663333Y-100270476D01*
X113472857Y-100222857D01*
X113377619Y-100175238D01*
X113330000Y-100127619D01*
X113282380Y-100032380D01*
X113282380Y-99080000D02*
X113282380Y-98984761D01*
X113330000Y-98889523D01*
X113377619Y-98841904D01*
X113472857Y-98794285D01*
X113663333Y-98746666D01*
X113901428Y-98746666D01*
X114091904Y-98794285D01*
X114187142Y-98841904D01*
X114234761Y-98889523D01*
X114282380Y-98984761D01*
X114282380Y-99080000D01*
X114234761Y-99175238D01*
X114187142Y-99222857D01*
X114091904Y-99270476D01*
X113901428Y-99318095D01*
X113663333Y-99318095D01*
X113472857Y-99270476D01*
X113377619Y-99222857D01*
X113330000Y-99175238D01*
X113282380Y-99080000D01*
X114282380Y-98318095D02*
X113282380Y-98318095D01*
X113901428Y-98222857D02*
X114282380Y-97937142D01*
X113615714Y-97937142D02*
X113996666Y-98318095D01*
%TO.C,R4*%
X103852380Y-152066666D02*
X103376190Y-152400000D01*
X103852380Y-152638095D02*
X102852380Y-152638095D01*
X102852380Y-152257142D01*
X102900000Y-152161904D01*
X102947619Y-152114285D01*
X103042857Y-152066666D01*
X103185714Y-152066666D01*
X103280952Y-152114285D01*
X103328571Y-152161904D01*
X103376190Y-152257142D01*
X103376190Y-152638095D01*
X103185714Y-151209523D02*
X103852380Y-151209523D01*
X102804761Y-151447619D02*
X103519047Y-151685714D01*
X103519047Y-151066666D01*
X101452380Y-153071428D02*
X101452380Y-153642857D01*
X101452380Y-153357142D02*
X100452380Y-153357142D01*
X100595238Y-153452380D01*
X100690476Y-153547619D01*
X100738095Y-153642857D01*
X100452380Y-152452380D02*
X100452380Y-152357142D01*
X100500000Y-152261904D01*
X100547619Y-152214285D01*
X100642857Y-152166666D01*
X100833333Y-152119047D01*
X101071428Y-152119047D01*
X101261904Y-152166666D01*
X101357142Y-152214285D01*
X101404761Y-152261904D01*
X101452380Y-152357142D01*
X101452380Y-152452380D01*
X101404761Y-152547619D01*
X101357142Y-152595238D01*
X101261904Y-152642857D01*
X101071428Y-152690476D01*
X100833333Y-152690476D01*
X100642857Y-152642857D01*
X100547619Y-152595238D01*
X100500000Y-152547619D01*
X100452380Y-152452380D01*
X100452380Y-151500000D02*
X100452380Y-151404761D01*
X100500000Y-151309523D01*
X100547619Y-151261904D01*
X100642857Y-151214285D01*
X100833333Y-151166666D01*
X101071428Y-151166666D01*
X101261904Y-151214285D01*
X101357142Y-151261904D01*
X101404761Y-151309523D01*
X101452380Y-151404761D01*
X101452380Y-151500000D01*
X101404761Y-151595238D01*
X101357142Y-151642857D01*
X101261904Y-151690476D01*
X101071428Y-151738095D01*
X100833333Y-151738095D01*
X100642857Y-151690476D01*
X100547619Y-151642857D01*
X100500000Y-151595238D01*
X100452380Y-151500000D01*
X101452380Y-150738095D02*
X100452380Y-150738095D01*
X101071428Y-150642857D02*
X101452380Y-150357142D01*
X100785714Y-150357142D02*
X101166666Y-150738095D01*
%TO.C,R3*%
X92552380Y-146266666D02*
X92076190Y-146600000D01*
X92552380Y-146838095D02*
X91552380Y-146838095D01*
X91552380Y-146457142D01*
X91600000Y-146361904D01*
X91647619Y-146314285D01*
X91742857Y-146266666D01*
X91885714Y-146266666D01*
X91980952Y-146314285D01*
X92028571Y-146361904D01*
X92076190Y-146457142D01*
X92076190Y-146838095D01*
X91552380Y-145933333D02*
X91552380Y-145314285D01*
X91933333Y-145647619D01*
X91933333Y-145504761D01*
X91980952Y-145409523D01*
X92028571Y-145361904D01*
X92123809Y-145314285D01*
X92361904Y-145314285D01*
X92457142Y-145361904D01*
X92504761Y-145409523D01*
X92552380Y-145504761D01*
X92552380Y-145790476D01*
X92504761Y-145885714D01*
X92457142Y-145933333D01*
X90052380Y-146766666D02*
X90052380Y-147338095D01*
X90052380Y-147052380D02*
X89052380Y-147052380D01*
X89195238Y-147147619D01*
X89290476Y-147242857D01*
X89338095Y-147338095D01*
X89052380Y-146147619D02*
X89052380Y-146052380D01*
X89100000Y-145957142D01*
X89147619Y-145909523D01*
X89242857Y-145861904D01*
X89433333Y-145814285D01*
X89671428Y-145814285D01*
X89861904Y-145861904D01*
X89957142Y-145909523D01*
X90004761Y-145957142D01*
X90052380Y-146052380D01*
X90052380Y-146147619D01*
X90004761Y-146242857D01*
X89957142Y-146290476D01*
X89861904Y-146338095D01*
X89671428Y-146385714D01*
X89433333Y-146385714D01*
X89242857Y-146338095D01*
X89147619Y-146290476D01*
X89100000Y-146242857D01*
X89052380Y-146147619D01*
X89052380Y-145195238D02*
X89052380Y-145100000D01*
X89100000Y-145004761D01*
X89147619Y-144957142D01*
X89242857Y-144909523D01*
X89433333Y-144861904D01*
X89671428Y-144861904D01*
X89861904Y-144909523D01*
X89957142Y-144957142D01*
X90004761Y-145004761D01*
X90052380Y-145100000D01*
X90052380Y-145195238D01*
X90004761Y-145290476D01*
X89957142Y-145338095D01*
X89861904Y-145385714D01*
X89671428Y-145433333D01*
X89433333Y-145433333D01*
X89242857Y-145385714D01*
X89147619Y-145338095D01*
X89100000Y-145290476D01*
X89052380Y-145195238D01*
%TO.C,R2*%
X100652380Y-107666666D02*
X100176190Y-108000000D01*
X100652380Y-108238095D02*
X99652380Y-108238095D01*
X99652380Y-107857142D01*
X99700000Y-107761904D01*
X99747619Y-107714285D01*
X99842857Y-107666666D01*
X99985714Y-107666666D01*
X100080952Y-107714285D01*
X100128571Y-107761904D01*
X100176190Y-107857142D01*
X100176190Y-108238095D01*
X99747619Y-107285714D02*
X99700000Y-107238095D01*
X99652380Y-107142857D01*
X99652380Y-106904761D01*
X99700000Y-106809523D01*
X99747619Y-106761904D01*
X99842857Y-106714285D01*
X99938095Y-106714285D01*
X100080952Y-106761904D01*
X100652380Y-107333333D01*
X100652380Y-106714285D01*
X103022380Y-108491428D02*
X103022380Y-109062857D01*
X103022380Y-108777142D02*
X102022380Y-108777142D01*
X102165238Y-108872380D01*
X102260476Y-108967619D01*
X102308095Y-109062857D01*
X102022380Y-107872380D02*
X102022380Y-107777142D01*
X102070000Y-107681904D01*
X102117619Y-107634285D01*
X102212857Y-107586666D01*
X102403333Y-107539047D01*
X102641428Y-107539047D01*
X102831904Y-107586666D01*
X102927142Y-107634285D01*
X102974761Y-107681904D01*
X103022380Y-107777142D01*
X103022380Y-107872380D01*
X102974761Y-107967619D01*
X102927142Y-108015238D01*
X102831904Y-108062857D01*
X102641428Y-108110476D01*
X102403333Y-108110476D01*
X102212857Y-108062857D01*
X102117619Y-108015238D01*
X102070000Y-107967619D01*
X102022380Y-107872380D01*
X102022380Y-106920000D02*
X102022380Y-106824761D01*
X102070000Y-106729523D01*
X102117619Y-106681904D01*
X102212857Y-106634285D01*
X102403333Y-106586666D01*
X102641428Y-106586666D01*
X102831904Y-106634285D01*
X102927142Y-106681904D01*
X102974761Y-106729523D01*
X103022380Y-106824761D01*
X103022380Y-106920000D01*
X102974761Y-107015238D01*
X102927142Y-107062857D01*
X102831904Y-107110476D01*
X102641428Y-107158095D01*
X102403333Y-107158095D01*
X102212857Y-107110476D01*
X102117619Y-107062857D01*
X102070000Y-107015238D01*
X102022380Y-106920000D01*
X103022380Y-106158095D02*
X102022380Y-106158095D01*
X102641428Y-106062857D02*
X103022380Y-105777142D01*
X102355714Y-105777142D02*
X102736666Y-106158095D01*
%TO.C,R1*%
X98152380Y-149066666D02*
X97676190Y-149400000D01*
X98152380Y-149638095D02*
X97152380Y-149638095D01*
X97152380Y-149257142D01*
X97200000Y-149161904D01*
X97247619Y-149114285D01*
X97342857Y-149066666D01*
X97485714Y-149066666D01*
X97580952Y-149114285D01*
X97628571Y-149161904D01*
X97676190Y-149257142D01*
X97676190Y-149638095D01*
X98152380Y-148114285D02*
X98152380Y-148685714D01*
X98152380Y-148400000D02*
X97152380Y-148400000D01*
X97295238Y-148495238D01*
X97390476Y-148590476D01*
X97438095Y-148685714D01*
X95782380Y-148899047D02*
X95782380Y-149470476D01*
X95782380Y-149184761D02*
X94782380Y-149184761D01*
X94925238Y-149280000D01*
X95020476Y-149375238D01*
X95068095Y-149470476D01*
X95782380Y-148470476D02*
X94782380Y-148470476D01*
X95401428Y-148375238D02*
X95782380Y-148089523D01*
X95115714Y-148089523D02*
X95496666Y-148470476D01*
%TO.C,Q1*%
X111564761Y-138607619D02*
X111469523Y-138560000D01*
X111374285Y-138464761D01*
X111231428Y-138321904D01*
X111136190Y-138274285D01*
X111040952Y-138274285D01*
X111088571Y-138512380D02*
X110993333Y-138464761D01*
X110898095Y-138369523D01*
X110850476Y-138179047D01*
X110850476Y-137845714D01*
X110898095Y-137655238D01*
X110993333Y-137560000D01*
X111088571Y-137512380D01*
X111279047Y-137512380D01*
X111374285Y-137560000D01*
X111469523Y-137655238D01*
X111517142Y-137845714D01*
X111517142Y-138179047D01*
X111469523Y-138369523D01*
X111374285Y-138464761D01*
X111279047Y-138512380D01*
X111088571Y-138512380D01*
X112469523Y-138512380D02*
X111898095Y-138512380D01*
X112183809Y-138512380D02*
X112183809Y-137512380D01*
X112088571Y-137655238D01*
X111993333Y-137750476D01*
X111898095Y-137798095D01*
X110374285Y-131162380D02*
X110374285Y-131876666D01*
X110326666Y-132019523D01*
X110231428Y-132114761D01*
X110088571Y-132162380D01*
X109993333Y-132162380D01*
X111374285Y-132162380D02*
X110802857Y-132162380D01*
X111088571Y-132162380D02*
X111088571Y-131162380D01*
X110993333Y-131305238D01*
X110898095Y-131400476D01*
X110802857Y-131448095D01*
X112326666Y-132162380D02*
X111755238Y-132162380D01*
X112040952Y-132162380D02*
X112040952Y-131162380D01*
X111945714Y-131305238D01*
X111850476Y-131400476D01*
X111755238Y-131448095D01*
X112660000Y-131162380D02*
X113279047Y-131162380D01*
X112945714Y-131543333D01*
X113088571Y-131543333D01*
X113183809Y-131590952D01*
X113231428Y-131638571D01*
X113279047Y-131733809D01*
X113279047Y-131971904D01*
X113231428Y-132067142D01*
X113183809Y-132114761D01*
X113088571Y-132162380D01*
X112802857Y-132162380D01*
X112707619Y-132114761D01*
X112660000Y-132067142D01*
%TO.C,D2*%
X102772380Y-130048095D02*
X101772380Y-130048095D01*
X101772380Y-129810000D01*
X101820000Y-129667142D01*
X101915238Y-129571904D01*
X102010476Y-129524285D01*
X102200952Y-129476666D01*
X102343809Y-129476666D01*
X102534285Y-129524285D01*
X102629523Y-129571904D01*
X102724761Y-129667142D01*
X102772380Y-129810000D01*
X102772380Y-130048095D01*
X101867619Y-129095714D02*
X101820000Y-129048095D01*
X101772380Y-128952857D01*
X101772380Y-128714761D01*
X101820000Y-128619523D01*
X101867619Y-128571904D01*
X101962857Y-128524285D01*
X102058095Y-128524285D01*
X102200952Y-128571904D01*
X102772380Y-129143333D01*
X102772380Y-128524285D01*
X98532380Y-131452857D02*
X98532380Y-132024285D01*
X98532380Y-131738571D02*
X97532380Y-131738571D01*
X97675238Y-131833809D01*
X97770476Y-131929047D01*
X97818095Y-132024285D01*
X98532380Y-131024285D02*
X97532380Y-131024285D01*
X98532380Y-130452857D01*
X97532380Y-130452857D01*
X97865714Y-129548095D02*
X98532380Y-129548095D01*
X97484761Y-129786190D02*
X98199047Y-130024285D01*
X98199047Y-129405238D01*
X98532380Y-128500476D02*
X98532380Y-129071904D01*
X98532380Y-128786190D02*
X97532380Y-128786190D01*
X97675238Y-128881428D01*
X97770476Y-128976666D01*
X97818095Y-129071904D01*
X97865714Y-127643333D02*
X98532380Y-127643333D01*
X97484761Y-127881428D02*
X98199047Y-128119523D01*
X98199047Y-127500476D01*
X97960952Y-126976666D02*
X97913333Y-127071904D01*
X97865714Y-127119523D01*
X97770476Y-127167142D01*
X97722857Y-127167142D01*
X97627619Y-127119523D01*
X97580000Y-127071904D01*
X97532380Y-126976666D01*
X97532380Y-126786190D01*
X97580000Y-126690952D01*
X97627619Y-126643333D01*
X97722857Y-126595714D01*
X97770476Y-126595714D01*
X97865714Y-126643333D01*
X97913333Y-126690952D01*
X97960952Y-126786190D01*
X97960952Y-126976666D01*
X98008571Y-127071904D01*
X98056190Y-127119523D01*
X98151428Y-127167142D01*
X98341904Y-127167142D01*
X98437142Y-127119523D01*
X98484761Y-127071904D01*
X98532380Y-126976666D01*
X98532380Y-126786190D01*
X98484761Y-126690952D01*
X98437142Y-126643333D01*
X98341904Y-126595714D01*
X98151428Y-126595714D01*
X98056190Y-126643333D01*
X98008571Y-126690952D01*
X97960952Y-126786190D01*
%TO.C,D1*%
X96772380Y-130048095D02*
X95772380Y-130048095D01*
X95772380Y-129810000D01*
X95820000Y-129667142D01*
X95915238Y-129571904D01*
X96010476Y-129524285D01*
X96200952Y-129476666D01*
X96343809Y-129476666D01*
X96534285Y-129524285D01*
X96629523Y-129571904D01*
X96724761Y-129667142D01*
X96772380Y-129810000D01*
X96772380Y-130048095D01*
X96772380Y-128524285D02*
X96772380Y-129095714D01*
X96772380Y-128810000D02*
X95772380Y-128810000D01*
X95915238Y-128905238D01*
X96010476Y-129000476D01*
X96058095Y-129095714D01*
X92532380Y-131452857D02*
X92532380Y-132024285D01*
X92532380Y-131738571D02*
X91532380Y-131738571D01*
X91675238Y-131833809D01*
X91770476Y-131929047D01*
X91818095Y-132024285D01*
X92532380Y-131024285D02*
X91532380Y-131024285D01*
X92532380Y-130452857D01*
X91532380Y-130452857D01*
X91865714Y-129548095D02*
X92532380Y-129548095D01*
X91484761Y-129786190D02*
X92199047Y-130024285D01*
X92199047Y-129405238D01*
X92532380Y-128500476D02*
X92532380Y-129071904D01*
X92532380Y-128786190D02*
X91532380Y-128786190D01*
X91675238Y-128881428D01*
X91770476Y-128976666D01*
X91818095Y-129071904D01*
X91865714Y-127643333D02*
X92532380Y-127643333D01*
X91484761Y-127881428D02*
X92199047Y-128119523D01*
X92199047Y-127500476D01*
X91960952Y-126976666D02*
X91913333Y-127071904D01*
X91865714Y-127119523D01*
X91770476Y-127167142D01*
X91722857Y-127167142D01*
X91627619Y-127119523D01*
X91580000Y-127071904D01*
X91532380Y-126976666D01*
X91532380Y-126786190D01*
X91580000Y-126690952D01*
X91627619Y-126643333D01*
X91722857Y-126595714D01*
X91770476Y-126595714D01*
X91865714Y-126643333D01*
X91913333Y-126690952D01*
X91960952Y-126786190D01*
X91960952Y-126976666D01*
X92008571Y-127071904D01*
X92056190Y-127119523D01*
X92151428Y-127167142D01*
X92341904Y-127167142D01*
X92437142Y-127119523D01*
X92484761Y-127071904D01*
X92532380Y-126976666D01*
X92532380Y-126786190D01*
X92484761Y-126690952D01*
X92437142Y-126643333D01*
X92341904Y-126595714D01*
X92151428Y-126595714D01*
X92056190Y-126643333D01*
X92008571Y-126690952D01*
X91960952Y-126786190D01*
%TO.C,C4*%
X122533333Y-123157142D02*
X122485714Y-123204761D01*
X122342857Y-123252380D01*
X122247619Y-123252380D01*
X122104761Y-123204761D01*
X122009523Y-123109523D01*
X121961904Y-123014285D01*
X121914285Y-122823809D01*
X121914285Y-122680952D01*
X121961904Y-122490476D01*
X122009523Y-122395238D01*
X122104761Y-122300000D01*
X122247619Y-122252380D01*
X122342857Y-122252380D01*
X122485714Y-122300000D01*
X122533333Y-122347619D01*
X123390476Y-122585714D02*
X123390476Y-123252380D01*
X123152380Y-122204761D02*
X122914285Y-122919047D01*
X123533333Y-122919047D01*
X121400000Y-125652380D02*
X120828571Y-125652380D01*
X121114285Y-125652380D02*
X121114285Y-124652380D01*
X121019047Y-124795238D01*
X120923809Y-124890476D01*
X120828571Y-124938095D01*
X122019047Y-124652380D02*
X122114285Y-124652380D01*
X122209523Y-124700000D01*
X122257142Y-124747619D01*
X122304761Y-124842857D01*
X122352380Y-125033333D01*
X122352380Y-125271428D01*
X122304761Y-125461904D01*
X122257142Y-125557142D01*
X122209523Y-125604761D01*
X122114285Y-125652380D01*
X122019047Y-125652380D01*
X121923809Y-125604761D01*
X121876190Y-125557142D01*
X121828571Y-125461904D01*
X121780952Y-125271428D01*
X121780952Y-125033333D01*
X121828571Y-124842857D01*
X121876190Y-124747619D01*
X121923809Y-124700000D01*
X122019047Y-124652380D01*
X122971428Y-124652380D02*
X123066666Y-124652380D01*
X123161904Y-124700000D01*
X123209523Y-124747619D01*
X123257142Y-124842857D01*
X123304761Y-125033333D01*
X123304761Y-125271428D01*
X123257142Y-125461904D01*
X123209523Y-125557142D01*
X123161904Y-125604761D01*
X123066666Y-125652380D01*
X122971428Y-125652380D01*
X122876190Y-125604761D01*
X122828571Y-125557142D01*
X122780952Y-125461904D01*
X122733333Y-125271428D01*
X122733333Y-125033333D01*
X122780952Y-124842857D01*
X122828571Y-124747619D01*
X122876190Y-124700000D01*
X122971428Y-124652380D01*
X123733333Y-124985714D02*
X123733333Y-125652380D01*
X123733333Y-125080952D02*
X123780952Y-125033333D01*
X123876190Y-124985714D01*
X124019047Y-124985714D01*
X124114285Y-125033333D01*
X124161904Y-125128571D01*
X124161904Y-125652380D01*
X124780952Y-124652380D02*
X124780952Y-124890476D01*
X124542857Y-124795238D02*
X124780952Y-124890476D01*
X125019047Y-124795238D01*
X124638095Y-125080952D02*
X124780952Y-124890476D01*
X124923809Y-125080952D01*
%TO.C,C3*%
X111483333Y-86507142D02*
X111435714Y-86554761D01*
X111292857Y-86602380D01*
X111197619Y-86602380D01*
X111054761Y-86554761D01*
X110959523Y-86459523D01*
X110911904Y-86364285D01*
X110864285Y-86173809D01*
X110864285Y-86030952D01*
X110911904Y-85840476D01*
X110959523Y-85745238D01*
X111054761Y-85650000D01*
X111197619Y-85602380D01*
X111292857Y-85602380D01*
X111435714Y-85650000D01*
X111483333Y-85697619D01*
X111816666Y-85602380D02*
X112435714Y-85602380D01*
X112102380Y-85983333D01*
X112245238Y-85983333D01*
X112340476Y-86030952D01*
X112388095Y-86078571D01*
X112435714Y-86173809D01*
X112435714Y-86411904D01*
X112388095Y-86507142D01*
X112340476Y-86554761D01*
X112245238Y-86602380D01*
X111959523Y-86602380D01*
X111864285Y-86554761D01*
X111816666Y-86507142D01*
X111483333Y-94102380D02*
X110911904Y-94102380D01*
X111197619Y-94102380D02*
X111197619Y-93102380D01*
X111102380Y-93245238D01*
X111007142Y-93340476D01*
X110911904Y-93388095D01*
X112340476Y-93435714D02*
X112340476Y-94102380D01*
X111911904Y-93435714D02*
X111911904Y-93959523D01*
X111959523Y-94054761D01*
X112054761Y-94102380D01*
X112197619Y-94102380D01*
X112292857Y-94054761D01*
X112340476Y-94007142D01*
%TO.C,C2*%
X92783333Y-100257142D02*
X92735714Y-100304761D01*
X92592857Y-100352380D01*
X92497619Y-100352380D01*
X92354761Y-100304761D01*
X92259523Y-100209523D01*
X92211904Y-100114285D01*
X92164285Y-99923809D01*
X92164285Y-99780952D01*
X92211904Y-99590476D01*
X92259523Y-99495238D01*
X92354761Y-99400000D01*
X92497619Y-99352380D01*
X92592857Y-99352380D01*
X92735714Y-99400000D01*
X92783333Y-99447619D01*
X93164285Y-99447619D02*
X93211904Y-99400000D01*
X93307142Y-99352380D01*
X93545238Y-99352380D01*
X93640476Y-99400000D01*
X93688095Y-99447619D01*
X93735714Y-99542857D01*
X93735714Y-99638095D01*
X93688095Y-99780952D01*
X93116666Y-100352380D01*
X93735714Y-100352380D01*
X92211904Y-90885714D02*
X92211904Y-91552380D01*
X91973809Y-90504761D02*
X91735714Y-91219047D01*
X92354761Y-91219047D01*
X92640476Y-90552380D02*
X93307142Y-90552380D01*
X92878571Y-91552380D01*
X94116666Y-90885714D02*
X94116666Y-91552380D01*
X93688095Y-90885714D02*
X93688095Y-91409523D01*
X93735714Y-91504761D01*
X93830952Y-91552380D01*
X93973809Y-91552380D01*
X94069047Y-91504761D01*
X94116666Y-91457142D01*
%TO.C,C1*%
X97533333Y-120357142D02*
X97485714Y-120404761D01*
X97342857Y-120452380D01*
X97247619Y-120452380D01*
X97104761Y-120404761D01*
X97009523Y-120309523D01*
X96961904Y-120214285D01*
X96914285Y-120023809D01*
X96914285Y-119880952D01*
X96961904Y-119690476D01*
X97009523Y-119595238D01*
X97104761Y-119500000D01*
X97247619Y-119452380D01*
X97342857Y-119452380D01*
X97485714Y-119500000D01*
X97533333Y-119547619D01*
X98485714Y-120452380D02*
X97914285Y-120452380D01*
X98200000Y-120452380D02*
X98200000Y-119452380D01*
X98104761Y-119595238D01*
X98009523Y-119690476D01*
X97914285Y-119738095D01*
X97533333Y-115452380D02*
X96961904Y-115452380D01*
X97247619Y-115452380D02*
X97247619Y-114452380D01*
X97152380Y-114595238D01*
X97057142Y-114690476D01*
X96961904Y-114738095D01*
X97961904Y-114785714D02*
X97961904Y-115452380D01*
X97961904Y-114880952D02*
X98009523Y-114833333D01*
X98104761Y-114785714D01*
X98247619Y-114785714D01*
X98342857Y-114833333D01*
X98390476Y-114928571D01*
X98390476Y-115452380D01*
%TD*%
M02*
