M48
; DRILL file {KiCad 5.1.10-88a1d61d58~90~ubuntu21.04.1} date Tue Oct 26 22:35:55 2021
; FORMAT={-:-/ absolute / inch / decimal}
; #@! TF.CreationDate,2021-10-26T22:35:55+02:00
; #@! TF.GenerationSoftware,Kicad,Pcbnew,5.1.10-88a1d61d58~90~ubuntu21.04.1
; #@! TF.FileFunction,Plated,1,2,PTH
FMAT,2
INCH
T1C0.0300
T2C0.0315
T3C0.0394
T4C0.1260
T5C0.3937
%
G90
G05
T1
X3.6697Y-6.4254
X3.6697Y-7.5278
X3.7697Y-6.4254
X3.7697Y-7.5278
X3.8697Y-6.4254
X3.8697Y-7.5278
X3.9697Y-6.4254
X3.9697Y-7.5278
X4.6933Y-6.4254
X4.6933Y-7.5278
X4.7933Y-6.4254
X4.7933Y-7.5278
X4.8933Y-6.4254
X4.8933Y-7.5278
X4.9933Y-6.4254
X4.9933Y-7.5278
T2
X3.5039Y-2.7165
X3.6024Y-2.7165
X3.6102Y-3.7598
X3.622Y-5.5449
X3.622Y-5.9449
X3.7087Y-3.7598
X3.7087Y-4.9409
X3.7087Y-5.2409
X3.748Y-4.626
X3.7677Y-2.8543
X3.8465Y-5.6575
X3.8465Y-6.0575
X3.8661Y-2.8543
X3.8661Y-3.0906
X3.8661Y-3.4906
X3.9449Y-4.0291
X3.9449Y-4.4291
X3.9449Y-4.626
X3.9449Y-4.9409
X3.9449Y-5.2409
X4.063Y-3.2024
X4.063Y-3.6024
X4.0669Y-5.7772
X4.0669Y-6.1772
X4.0961Y-2.9331
X4.1906Y-5.5394
X4.2205Y-3.722
X4.2205Y-4.122
X4.2598Y-4.4291
X4.2598Y-4.5291
X4.2598Y-4.6291
X4.2598Y-4.7291
X4.2598Y-4.8291
X4.2598Y-4.9291
X4.2598Y-5.0291
X4.2961Y-5.2953
X4.2992Y-4.2323
X4.3244Y-2.7283
X4.3465Y-3.5394
X4.3669Y-3.189
X4.3961Y-5.2953
X4.4449Y-3.5394
X4.4669Y-3.189
X4.4961Y-2.9331
X4.4961Y-4.2323
X4.4961Y-5.2953
X4.5598Y-4.4291
X4.5598Y-4.5291
X4.5598Y-4.6291
X4.5598Y-4.7291
X4.5598Y-4.8291
X4.5598Y-4.9291
X4.5598Y-5.0291
X4.5669Y-3.189
X4.5748Y-3.7205
X4.5748Y-4.1205
X4.5906Y-5.5394
X4.7244Y-2.7283
X4.7323Y-3.2087
X4.7323Y-3.6087
X4.7402Y-4.8307
X4.8031Y-5.7874
X4.8031Y-6.1874
X4.8425Y-4.0315
X4.8425Y-4.4315
X4.937Y-4.8307
X5.0315Y-4.0331
X5.0315Y-4.4331
X5.0394Y-5.5512
X5.0394Y-5.9512
T3
X4.9882Y-2.6394
X4.9882Y-2.7394
X4.9882Y-2.8394
X4.9882Y-2.9394
X4.9882Y-3.0394
X5.0882Y-2.6394
X5.0882Y-2.7394
X5.0882Y-2.8394
X5.0882Y-2.9394
X5.0882Y-3.0394
T5
X3.8189Y-6.811
X3.8189Y-7.9134
X4.8425Y-6.811
X4.8425Y-7.9134
T4
G00X3.4656Y-1.2998
M15
G01X3.5758Y-1.2998
M16
G05
G00X3.4656Y-8.9376
M15
G01X3.5758Y-8.9376
M16
G05
G00X5.0855Y-1.2991
M15
G01X5.1958Y-1.2991
M16
G05
G00X5.0855Y-8.9369
M15
G01X5.1958Y-8.9369
M16
G05
T0
M30
